<?xml version="1.0" encoding="UTF-8" standalone="no"?>
<!DOCTYPE svg PUBLIC "-//W3C//DTD SVG 1.1//EN"
 "http://www.w3.org/Graphics/SVG/1.1/DTD/svg11.dtd">
<!-- Generated by graphviz version 14.1.2 (0)
 -->
<!-- Title: together Pages: 1 -->
<svg width="433pt" height="791pt"
 viewBox="0.00 0.00 433.00 791.00" xmlns="http://www.w3.org/2000/svg" xmlns:xlink="http://www.w3.org/1999/xlink">
<g id="graph0" class="graph" transform="scale(1 1) rotate(0) translate(4 787)">
<title>together</title>
<polygon fill="white" stroke="none" points="-4,4 -4,-787 428.53,-787 428.53,4 -4,4"/>
<g id="clust1" class="cluster">
<title>cluster_syn</title>
<polygon fill="lightgrey" stroke="lightgrey" points="91,-624.75 91,-775 189,-775 189,-624.75 91,-624.75"/>
<text xml:space="preserve" text-anchor="middle" x="140" y="-757.7" font-family="Helvetica,sans-Serif" font-size="14.00">1. &#160;job: syn</text>
</g>
<g id="clust2" class="cluster">
<title>cluster_impl_a</title>
<polygon fill="lightgrey" stroke="lightgrey" points="8,-285.75 8,-509 136,-509 136,-285.75 8,-285.75"/>
<text xml:space="preserve" text-anchor="middle" x="72" y="-491.7" font-family="Helvetica,sans-Serif" font-size="14.00">3. &#160;job: impl_a</text>
</g>
<g id="clust3" class="cluster">
<title>cluster_impl_n</title>
<polygon fill="lightgrey" stroke="lightgrey" points="144,-285.75 144,-509 272,-509 272,-285.75 144,-285.75"/>
<text xml:space="preserve" text-anchor="middle" x="208" y="-491.7" font-family="Helvetica,sans-Serif" font-size="14.00">3. &#160;job: impl_n</text>
</g>
<g id="clust4" class="cluster">
<title>cluster_signoff</title>
<polygon fill="lightgrey" stroke="lightgrey" points="90,-8 90,-158.25 206,-158.25 206,-8 90,-8"/>
<text xml:space="preserve" text-anchor="middle" x="148" y="-140.95" font-family="Helvetica,sans-Serif" font-size="14.00">5. &#160;job: signoff</text>
</g>
<!-- elaborate -->
<g id="node1" class="node">
<title>elaborate</title>
<polygon fill="white" stroke="white" points="180.62,-741.75 99.38,-741.75 99.38,-705.75 180.62,-705.75 180.62,-741.75"/>
<text xml:space="preserve" text-anchor="middle" x="140" y="-719.08" font-family="Helvetica,sans-Serif" font-size="14.00">elaborate</text>
</g>
<!-- synthesis -->
<g id="node2" class="node">
<title>synthesis</title>
<polygon fill="white" stroke="white" points="181,-668.75 99,-668.75 99,-632.75 181,-632.75 181,-668.75"/>
<text xml:space="preserve" text-anchor="middle" x="140" y="-646.08" font-family="Helvetica,sans-Serif" font-size="14.00">synthesis</text>
</g>
<!-- elaborate&#45;&gt;synthesis -->
<g id="edge1" class="edge">
<title>elaborate&#45;&gt;synthesis</title>
<path fill="none" stroke="black" d="M140,-705.56C140,-697.98 140,-688.85 140,-680.29"/>
<polygon fill="black" stroke="black" points="143.5,-680.29 140,-670.29 136.5,-680.29 143.5,-680.29"/>
</g>
<!-- fanout -->
<g id="node3" class="node">
<title>fanout</title>
<polygon fill="#fff3c4" stroke="#b8860b" points="232.75,-595.75 41.25,-595.75 41.25,-536 238.75,-536 238.75,-589.75 232.75,-595.75"/>
<polyline fill="none" stroke="#b8860b" points="232.75,-595.75 232.75,-589.75"/>
<polyline fill="none" stroke="#b8860b" points="238.75,-589.75 232.75,-589.75"/>
<text xml:space="preserve" text-anchor="start" x="49.25" y="-578.45" font-family="Helvetica,sans-Serif" font-size="14.00">2. &#160;your code</text>
<text xml:space="preserve" text-anchor="start" x="49.25" y="-561.2" font-family="Helvetica,sans-Serif" font-size="14.00">for cfg in configs:</text>
<text xml:space="preserve" text-anchor="start" x="49.25" y="-543.95" font-family="Helvetica,sans-Serif" font-size="14.00"> &#160;&#160;&#160;set_jobname(cfg); run()</text>
</g>
<!-- synthesis&#45;&gt;fanout -->
<g id="edge7" class="edge">
<title>synthesis&#45;&gt;fanout</title>
<path fill="none" stroke="black" d="M140,-632.58C140,-625.26 140,-616.38 140,-607.55"/>
<polygon fill="black" stroke="black" points="143.5,-607.62 140,-597.62 136.5,-607.62 143.5,-607.62"/>
</g>
<!-- fa -->
<g id="node4" class="node">
<title>fa</title>
<polygon fill="white" stroke="white" points="126.88,-475.75 23.12,-475.75 23.12,-439.75 126.88,-439.75 126.88,-475.75"/>
<text xml:space="preserve" text-anchor="middle" x="75" y="-453.07" font-family="Helvetica,sans-Serif" font-size="14.00">floorplan.init</text>
</g>
<!-- fanout&#45;&gt;fa -->
<g id="edge8" class="edge">
<title>fanout&#45;&gt;fa</title>
<path fill="none" stroke="black" d="M122.07,-535.59C112.45,-519.89 100.69,-500.69 91.33,-485.4"/>
<polygon fill="black" stroke="black" points="94.57,-483.99 86.36,-477.29 88.6,-487.65 94.57,-483.99"/>
</g>
<!-- fn -->
<g id="node7" class="node">
<title>fn</title>
<polygon fill="white" stroke="white" points="257.88,-475.75 154.12,-475.75 154.12,-439.75 257.88,-439.75 257.88,-475.75"/>
<text xml:space="preserve" text-anchor="middle" x="206" y="-453.07" font-family="Helvetica,sans-Serif" font-size="14.00">floorplan.init</text>
</g>
<!-- fanout&#45;&gt;fn -->
<g id="edge9" class="edge">
<title>fanout&#45;&gt;fn</title>
<path fill="none" stroke="black" d="M158.21,-535.59C167.97,-519.89 179.92,-500.69 189.42,-485.4"/>
<polygon fill="black" stroke="black" points="192.16,-487.63 194.47,-477.29 186.22,-483.93 192.16,-487.63"/>
</g>
<!-- pa -->
<g id="node5" class="node">
<title>pa</title>
<polygon fill="white" stroke="white" points="122.62,-402.75 23.38,-402.75 23.38,-366.75 122.62,-366.75 122.62,-402.75"/>
<text xml:space="preserve" text-anchor="middle" x="73" y="-380.07" font-family="Helvetica,sans-Serif" font-size="14.00">place.global</text>
</g>
<!-- fa&#45;&gt;pa -->
<g id="edge2" class="edge">
<title>fa&#45;&gt;pa</title>
<path fill="none" stroke="black" d="M74.52,-439.56C74.3,-431.89 74.04,-422.64 73.8,-413.99"/>
<polygon fill="black" stroke="black" points="77.3,-414.19 73.52,-404.29 70.31,-414.39 77.3,-414.19"/>
</g>
<!-- ra -->
<g id="node6" class="node">
<title>ra</title>
<polygon fill="white" stroke="white" points="128,-329.75 16,-329.75 16,-293.75 128,-293.75 128,-329.75"/>
<text xml:space="preserve" text-anchor="middle" x="72" y="-307.07" font-family="Helvetica,sans-Serif" font-size="14.00">route.detailed</text>
</g>
<!-- pa&#45;&gt;ra -->
<g id="edge3" class="edge">
<title>pa&#45;&gt;ra</title>
<path fill="none" stroke="black" d="M72.76,-366.56C72.65,-358.98 72.52,-349.85 72.4,-341.29"/>
<polygon fill="black" stroke="black" points="75.9,-341.24 72.26,-331.29 68.9,-341.34 75.9,-341.24"/>
</g>
<!-- decide -->
<g id="node10" class="node">
<title>decide</title>
<polygon fill="#fff3c4" stroke="#b8860b" points="270.75,-256.75 1.25,-256.75 1.25,-197 276.75,-197 276.75,-250.75 270.75,-256.75"/>
<polyline fill="none" stroke="#b8860b" points="270.75,-256.75 270.75,-250.75"/>
<polyline fill="none" stroke="#b8860b" points="276.75,-250.75 270.75,-250.75"/>
<text xml:space="preserve" text-anchor="start" x="9.25" y="-239.45" font-family="Helvetica,sans-Serif" font-size="14.00">4. &#160;your code</text>
<text xml:space="preserve" text-anchor="start" x="9.25" y="-222.2" font-family="Helvetica,sans-Serif" font-size="14.00">history(&quot;impl_a&quot;) vs history(&quot;impl_n&quot;)</text>
<text xml:space="preserve" text-anchor="start" x="9.25" y="-204.95" font-family="Helvetica,sans-Serif" font-size="14.00">good enough?</text>
</g>
<!-- ra&#45;&gt;decide -->
<g id="edge10" class="edge">
<title>ra&#45;&gt;decide</title>
<path fill="none" stroke="black" d="M85.88,-293.58C92.4,-285.52 100.44,-275.57 108.28,-265.87"/>
<polygon fill="black" stroke="black" points="110.85,-268.26 114.42,-258.28 105.41,-263.86 110.85,-268.26"/>
</g>
<!-- pn -->
<g id="node8" class="node">
<title>pn</title>
<polygon fill="white" stroke="white" points="256.62,-402.75 157.38,-402.75 157.38,-366.75 256.62,-366.75 256.62,-402.75"/>
<text xml:space="preserve" text-anchor="middle" x="207" y="-380.07" font-family="Helvetica,sans-Serif" font-size="14.00">place.global</text>
</g>
<!-- fn&#45;&gt;pn -->
<g id="edge4" class="edge">
<title>fn&#45;&gt;pn</title>
<path fill="none" stroke="black" d="M206.24,-439.56C206.35,-431.98 206.48,-422.85 206.6,-414.29"/>
<polygon fill="black" stroke="black" points="210.1,-414.34 206.74,-404.29 203.1,-414.24 210.1,-414.34"/>
</g>
<!-- rn -->
<g id="node9" class="node">
<title>rn</title>
<polygon fill="white" stroke="white" points="264,-329.75 152,-329.75 152,-293.75 264,-293.75 264,-329.75"/>
<text xml:space="preserve" text-anchor="middle" x="208" y="-307.07" font-family="Helvetica,sans-Serif" font-size="14.00">route.detailed</text>
</g>
<!-- pn&#45;&gt;rn -->
<g id="edge5" class="edge">
<title>pn&#45;&gt;rn</title>
<path fill="none" stroke="black" d="M207.24,-366.56C207.35,-358.98 207.48,-349.85 207.6,-341.29"/>
<polygon fill="black" stroke="black" points="211.1,-341.34 207.74,-331.29 204.1,-341.24 211.1,-341.34"/>
</g>
<!-- rn&#45;&gt;decide -->
<g id="edge11" class="edge">
<title>rn&#45;&gt;decide</title>
<path fill="none" stroke="black" d="M193.7,-293.58C186.99,-285.52 178.71,-275.57 170.64,-265.87"/>
<polygon fill="black" stroke="black" points="173.39,-263.71 164.3,-258.27 168.01,-268.19 173.39,-263.71"/>
</g>
<!-- decide&#45;&gt;fanout -->
<g id="edge13" class="edge">
<title>decide&#45;&gt;fanout</title>
<path fill="none" stroke="black" stroke-dasharray="5,2" d="M245.56,-257.2C257.55,-264.67 268.22,-274.02 276,-285.75 330.84,-368.44 331.24,-426.58 276,-509 268.91,-519.58 259.42,-528.15 248.73,-535.11"/>
<polygon fill="black" stroke="black" points="247.2,-531.95 240.37,-540.04 250.76,-537.98 247.2,-531.95"/>
<text xml:space="preserve" text-anchor="middle" x="370.9" y="-381.62" font-family="Helvetica,sans-Serif" font-size="10.00"> &#160;no: adjust and re&#45;run</text>
</g>
<!-- drc -->
<g id="node11" class="node">
<title>drc</title>
<polygon fill="white" stroke="white" points="166,-125 112,-125 112,-89 166,-89 166,-125"/>
<text xml:space="preserve" text-anchor="middle" x="139" y="-102.33" font-family="Helvetica,sans-Serif" font-size="14.00">drc</text>
</g>
<!-- decide&#45;&gt;drc -->
<g id="edge12" class="edge">
<title>decide&#45;&gt;drc</title>
<path fill="none" stroke="black" d="M139,-196.74C139,-178.48 139,-155.05 139,-136.85"/>
<polygon fill="black" stroke="black" points="142.5,-136.99 139,-126.99 135.5,-136.99 142.5,-136.99"/>
<text xml:space="preserve" text-anchor="middle" x="150.62" y="-169.5" font-family="Helvetica,sans-Serif" font-size="10.00"> &#160;yes</text>
</g>
<!-- lvs -->
<g id="node12" class="node">
<title>lvs</title>
<polygon fill="white" stroke="white" points="166,-52 112,-52 112,-16 166,-16 166,-52"/>
<text xml:space="preserve" text-anchor="middle" x="139" y="-29.32" font-family="Helvetica,sans-Serif" font-size="14.00">lvs</text>
</g>
<!-- drc&#45;&gt;lvs -->
<g id="edge6" class="edge">
<title>drc&#45;&gt;lvs</title>
<path fill="none" stroke="black" d="M139,-88.81C139,-81.23 139,-72.1 139,-63.54"/>
<polygon fill="black" stroke="black" points="142.5,-63.54 139,-53.54 135.5,-63.54 142.5,-63.54"/>
</g>
</g>
</svg>
