<?xml version="1.0" encoding="UTF-8" standalone="no"?>
<!DOCTYPE svg PUBLIC "-//W3C//DTD SVG 1.1//EN"
 "http://www.w3.org/Graphics/SVG/1.1/DTD/svg11.dtd">
<!-- Generated by graphviz version 2.43.0 (0)
 -->
<!-- Title: %3 Pages: 1 -->
<svg width="1120pt" height="223pt"
 viewBox="0.00 0.00 1119.75 223.48" xmlns="http://www.w3.org/2000/svg" xmlns:xlink="http://www.w3.org/1999/xlink">
<g id="graph0" class="graph" transform="scale(1 1) rotate(0) translate(4 219.48)">
<title>%3</title>
<!-- import0 -->
<g id="node1" class="node">
<title>import0</title>
<ellipse fill="#ffffff" stroke="black" cx="555.38" cy="-188.61" rx="56.64" ry="26.74"/>
<text text-anchor="middle" x="555.38" y="-192.41" font-family="Times,serif" font-size="14.00" fill="#000000">import0</text>
<text text-anchor="middle" x="555.38" y="-177.41" font-family="Times,serif" font-size="14.00" fill="#000000">(surelog)</text>
</g>
<!-- syn0 -->
<g id="node2" class="node">
<title>syn0</title>
<ellipse fill="#ffffff" stroke="black" cx="47.38" cy="-98.87" rx="47.25" ry="26.74"/>
<text text-anchor="middle" x="47.38" y="-102.67" font-family="Times,serif" font-size="14.00" fill="#000000">syn0</text>
<text text-anchor="middle" x="47.38" y="-87.67" font-family="Times,serif" font-size="14.00" fill="#000000">(yosys)</text>
</g>
<!-- import0&#45;&gt;syn0 -->
<g id="edge1" class="edge">
<title>import0&#45;&gt;syn0</title>
<path fill="none" stroke="black" d="M499.11,-185.12C412.68,-180.13 242.75,-165.71 104.38,-125.74 100.03,-124.48 95.59,-122.95 91.2,-121.27"/>
<polygon fill="black" stroke="black" points="92.32,-117.94 81.74,-117.39 89.66,-124.42 92.32,-117.94"/>
</g>
<!-- syn1 -->
<g id="node3" class="node">
<title>syn1</title>
<ellipse fill="#ffffff" stroke="black" cx="160.38" cy="-98.87" rx="47.25" ry="26.74"/>
<text text-anchor="middle" x="160.38" y="-102.67" font-family="Times,serif" font-size="14.00" fill="#000000">syn1</text>
<text text-anchor="middle" x="160.38" y="-87.67" font-family="Times,serif" font-size="14.00" fill="#000000">(yosys)</text>
</g>
<!-- import0&#45;&gt;syn1 -->
<g id="edge2" class="edge">
<title>import0&#45;&gt;syn1</title>
<path fill="none" stroke="black" d="M500.53,-181.76C432.83,-173.59 314.72,-156.23 217.38,-125.74 213.12,-124.41 208.76,-122.84 204.45,-121.14"/>
<polygon fill="black" stroke="black" points="205.7,-117.87 195.12,-117.26 203.01,-124.33 205.7,-117.87"/>
</g>
<!-- syn2 -->
<g id="node4" class="node">
<title>syn2</title>
<ellipse fill="#ffffff" stroke="black" cx="273.38" cy="-98.87" rx="47.25" ry="26.74"/>
<text text-anchor="middle" x="273.38" y="-102.67" font-family="Times,serif" font-size="14.00" fill="#000000">syn2</text>
<text text-anchor="middle" x="273.38" y="-87.67" font-family="Times,serif" font-size="14.00" fill="#000000">(yosys)</text>
</g>
<!-- import0&#45;&gt;syn2 -->
<g id="edge3" class="edge">
<title>import0&#45;&gt;syn2</title>
<path fill="none" stroke="black" d="M505.07,-176.19C459,-165.16 389.23,-147.04 330.38,-125.74 326.35,-124.28 322.22,-122.66 318.1,-120.96"/>
<polygon fill="black" stroke="black" points="319.16,-117.61 308.59,-116.9 316.41,-124.05 319.16,-117.61"/>
</g>
<!-- syn3 -->
<g id="node5" class="node">
<title>syn3</title>
<ellipse fill="#ffffff" stroke="black" cx="386.38" cy="-98.87" rx="47.25" ry="26.74"/>
<text text-anchor="middle" x="386.38" y="-102.67" font-family="Times,serif" font-size="14.00" fill="#000000">syn3</text>
<text text-anchor="middle" x="386.38" y="-87.67" font-family="Times,serif" font-size="14.00" fill="#000000">(yosys)</text>
</g>
<!-- import0&#45;&gt;syn3 -->
<g id="edge4" class="edge">
<title>import0&#45;&gt;syn3</title>
<path fill="none" stroke="black" d="M517.87,-168.14C491.75,-154.58 456.84,-136.45 429.55,-122.29"/>
<polygon fill="black" stroke="black" points="431.11,-119.15 420.62,-117.65 427.88,-125.36 431.11,-119.15"/>
</g>
<!-- syn4 -->
<g id="node6" class="node">
<title>syn4</title>
<ellipse fill="#ffffff" stroke="black" cx="499.38" cy="-98.87" rx="47.25" ry="26.74"/>
<text text-anchor="middle" x="499.38" y="-102.67" font-family="Times,serif" font-size="14.00" fill="#000000">syn4</text>
<text text-anchor="middle" x="499.38" y="-87.67" font-family="Times,serif" font-size="14.00" fill="#000000">(yosys)</text>
</g>
<!-- import0&#45;&gt;syn4 -->
<g id="edge5" class="edge">
<title>import0&#45;&gt;syn4</title>
<path fill="none" stroke="black" d="M539.48,-162.7C533.64,-153.55 526.92,-143.03 520.68,-133.25"/>
<polygon fill="black" stroke="black" points="523.45,-131.08 515.12,-124.54 517.55,-134.85 523.45,-131.08"/>
</g>
<!-- syn5 -->
<g id="node7" class="node">
<title>syn5</title>
<ellipse fill="#ffffff" stroke="black" cx="612.38" cy="-98.87" rx="47.25" ry="26.74"/>
<text text-anchor="middle" x="612.38" y="-102.67" font-family="Times,serif" font-size="14.00" fill="#000000">syn5</text>
<text text-anchor="middle" x="612.38" y="-87.67" font-family="Times,serif" font-size="14.00" fill="#000000">(yosys)</text>
</g>
<!-- import0&#45;&gt;syn5 -->
<g id="edge6" class="edge">
<title>import0&#45;&gt;syn5</title>
<path fill="none" stroke="black" d="M571.56,-162.7C577.62,-153.38 584.59,-142.63 591.05,-132.7"/>
<polygon fill="black" stroke="black" points="594.04,-134.53 596.55,-124.23 588.17,-130.71 594.04,-134.53"/>
</g>
<!-- syn6 -->
<g id="node8" class="node">
<title>syn6</title>
<ellipse fill="#ffffff" stroke="black" cx="725.38" cy="-98.87" rx="47.25" ry="26.74"/>
<text text-anchor="middle" x="725.38" y="-102.67" font-family="Times,serif" font-size="14.00" fill="#000000">syn6</text>
<text text-anchor="middle" x="725.38" y="-87.67" font-family="Times,serif" font-size="14.00" fill="#000000">(yosys)</text>
</g>
<!-- import0&#45;&gt;syn6 -->
<g id="edge7" class="edge">
<title>import0&#45;&gt;syn6</title>
<path fill="none" stroke="black" d="M592.68,-168.36C619.03,-154.76 654.41,-136.5 682.01,-122.25"/>
<polygon fill="black" stroke="black" points="683.77,-125.28 691.05,-117.59 680.56,-119.06 683.77,-125.28"/>
</g>
<!-- syn7 -->
<g id="node9" class="node">
<title>syn7</title>
<ellipse fill="#ffffff" stroke="black" cx="838.38" cy="-98.87" rx="47.25" ry="26.74"/>
<text text-anchor="middle" x="838.38" y="-102.67" font-family="Times,serif" font-size="14.00" fill="#000000">syn7</text>
<text text-anchor="middle" x="838.38" y="-87.67" font-family="Times,serif" font-size="14.00" fill="#000000">(yosys)</text>
</g>
<!-- import0&#45;&gt;syn7 -->
<g id="edge8" class="edge">
<title>import0&#45;&gt;syn7</title>
<path fill="none" stroke="black" d="M605.91,-176.21C652.19,-165.21 722.26,-147.09 781.38,-125.74 785.4,-124.29 789.54,-122.67 793.65,-120.97"/>
<polygon fill="black" stroke="black" points="795.34,-124.05 803.16,-116.9 792.59,-117.62 795.34,-124.05"/>
</g>
<!-- syn8 -->
<g id="node10" class="node">
<title>syn8</title>
<ellipse fill="#ffffff" stroke="black" cx="951.38" cy="-98.87" rx="47.25" ry="26.74"/>
<text text-anchor="middle" x="951.38" y="-102.67" font-family="Times,serif" font-size="14.00" fill="#000000">syn8</text>
<text text-anchor="middle" x="951.38" y="-87.67" font-family="Times,serif" font-size="14.00" fill="#000000">(yosys)</text>
</g>
<!-- import0&#45;&gt;syn8 -->
<g id="edge9" class="edge">
<title>import0&#45;&gt;syn8</title>
<path fill="none" stroke="black" d="M610.39,-181.78C678.29,-173.64 796.74,-156.29 894.38,-125.74 898.63,-124.41 902.99,-122.84 907.31,-121.14"/>
<polygon fill="black" stroke="black" points="908.74,-124.33 916.63,-117.26 906.06,-117.87 908.74,-124.33"/>
</g>
<!-- syn9 -->
<g id="node11" class="node">
<title>syn9</title>
<ellipse fill="#ffffff" stroke="black" cx="1064.38" cy="-98.87" rx="47.25" ry="26.74"/>
<text text-anchor="middle" x="1064.38" y="-102.67" font-family="Times,serif" font-size="14.00" fill="#000000">syn9</text>
<text text-anchor="middle" x="1064.38" y="-87.67" font-family="Times,serif" font-size="14.00" fill="#000000">(yosys)</text>
</g>
<!-- import0&#45;&gt;syn9 -->
<g id="edge10" class="edge">
<title>import0&#45;&gt;syn9</title>
<path fill="none" stroke="black" d="M611.77,-185.13C698.39,-180.17 868.69,-165.78 1007.38,-125.74 1011.72,-124.49 1016.16,-122.95 1020.55,-121.27"/>
<polygon fill="black" stroke="black" points="1022.09,-124.42 1030.02,-117.39 1019.44,-117.94 1022.09,-124.42"/>
</g>
<!-- synmin0 -->
<g id="node12" class="node">
<title>synmin0</title>
<ellipse fill="#ffffff" stroke="black" cx="555.38" cy="-18" rx="44.39" ry="18"/>
<text text-anchor="middle" x="555.38" y="-14.3" font-family="Times,serif" font-size="14.00" fill="#000000">synmin</text>
</g>
<!-- syn0&#45;&gt;synmin0 -->
<g id="edge11" class="edge">
<title>syn0&#45;&gt;synmin0</title>
<path fill="none" stroke="black" d="M81.7,-80.24C89.03,-77.06 96.84,-74.1 104.38,-72 243.95,-33.14 415.56,-22.76 501.27,-20"/>
<polygon fill="black" stroke="black" points="501.4,-23.49 511.29,-19.7 501.19,-16.5 501.4,-23.49"/>
</g>
<!-- syn1&#45;&gt;synmin0 -->
<g id="edge12" class="edge">
<title>syn1&#45;&gt;synmin0</title>
<path fill="none" stroke="black" d="M195.07,-80.33C202.31,-77.19 209.98,-74.21 217.38,-72 315.48,-42.64 434.74,-28.79 502.17,-22.87"/>
<polygon fill="black" stroke="black" points="502.47,-26.36 512.13,-22.02 501.87,-19.38 502.47,-26.36"/>
</g>
<!-- syn2&#45;&gt;synmin0 -->
<g id="edge13" class="edge">
<title>syn2&#45;&gt;synmin0</title>
<path fill="none" stroke="black" d="M308.52,-80.63C315.65,-77.5 323.18,-74.46 330.38,-72 389.17,-51.95 459.13,-36.77 505.25,-27.9"/>
<polygon fill="black" stroke="black" points="506.12,-31.3 515.29,-26 504.81,-24.42 506.12,-31.3"/>
</g>
<!-- syn3&#45;&gt;synmin0 -->
<g id="edge14" class="edge">
<title>syn3&#45;&gt;synmin0</title>
<path fill="none" stroke="black" d="M422.22,-81.14C450.42,-67.98 489.6,-49.7 518.15,-36.37"/>
<polygon fill="black" stroke="black" points="519.82,-39.46 527.4,-32.06 516.86,-33.11 519.82,-39.46"/>
</g>
<!-- syn4&#45;&gt;synmin0 -->
<g id="edge15" class="edge">
<title>syn4&#45;&gt;synmin0</title>
<path fill="none" stroke="black" d="M516.48,-73.78C523.18,-64.34 530.86,-53.52 537.62,-44"/>
<polygon fill="black" stroke="black" points="540.58,-45.88 543.52,-35.7 534.87,-41.83 540.58,-45.88"/>
</g>
<!-- syn5&#45;&gt;synmin0 -->
<g id="edge16" class="edge">
<title>syn5&#45;&gt;synmin0</title>
<path fill="none" stroke="black" d="M594.96,-73.78C588.15,-64.34 580.33,-53.52 573.45,-44"/>
<polygon fill="black" stroke="black" points="576.14,-41.76 567.45,-35.7 570.47,-45.86 576.14,-41.76"/>
</g>
<!-- syn6&#45;&gt;synmin0 -->
<g id="edge17" class="edge">
<title>syn6&#45;&gt;synmin0</title>
<path fill="none" stroke="black" d="M689.32,-81.14C660.95,-67.98 621.54,-49.7 592.82,-36.37"/>
<polygon fill="black" stroke="black" points="594.06,-33.09 583.52,-32.06 591.12,-39.44 594.06,-33.09"/>
</g>
<!-- syn7&#45;&gt;synmin0 -->
<g id="edge18" class="edge">
<title>syn7&#45;&gt;synmin0</title>
<path fill="none" stroke="black" d="M803.24,-80.63C796.1,-77.5 788.58,-74.45 781.38,-72 722.15,-51.83 651.63,-36.63 605.31,-27.79"/>
<polygon fill="black" stroke="black" points="605.7,-24.31 595.23,-25.9 604.41,-31.19 605.7,-24.31"/>
</g>
<!-- syn8&#45;&gt;synmin0 -->
<g id="edge19" class="edge">
<title>syn8&#45;&gt;synmin0</title>
<path fill="none" stroke="black" d="M916.68,-80.33C909.44,-77.18 901.77,-74.21 894.38,-72 795.85,-42.54 676.04,-28.71 608.46,-22.83"/>
<polygon fill="black" stroke="black" points="608.74,-19.34 598.48,-21.98 608.15,-26.31 608.74,-19.34"/>
</g>
<!-- syn9&#45;&gt;synmin0 -->
<g id="edge20" class="edge">
<title>syn9&#45;&gt;synmin0</title>
<path fill="none" stroke="black" d="M1030.05,-80.24C1022.72,-77.06 1014.91,-74.1 1007.38,-72 867.49,-33.07 695.5,-22.72 609.6,-19.98"/>
<polygon fill="black" stroke="black" points="609.66,-16.48 599.56,-19.68 609.45,-23.48 609.66,-16.48"/>
</g>
</g>
</svg>
