<?xml version="1.0" encoding="UTF-8" standalone="no"?>
<!DOCTYPE svg PUBLIC "-//W3C//DTD SVG 1.1//EN"
 "http://www.w3.org/Graphics/SVG/1.1/DTD/svg11.dtd">
<!-- Generated by graphviz version 2.43.0 (0)
 -->
<!-- Title: %3 Pages: 1 -->
<svg width="781pt" height="223pt"
 viewBox="0.00 0.00 780.75 223.48" xmlns="http://www.w3.org/2000/svg" xmlns:xlink="http://www.w3.org/1999/xlink">
<g id="graph0" class="graph" transform="scale(1 1) rotate(0) translate(4 219.48)">
<title>%3</title>
<!-- import0 -->
<g id="node1" class="node">
<title>import0</title>
<ellipse fill="#ffffff" stroke="black" cx="386.38" cy="-188.61" rx="56.64" ry="26.74"/>
<text text-anchor="middle" x="386.38" y="-192.41" font-family="Times,serif" font-size="14.00" fill="#000000">import0</text>
<text text-anchor="middle" x="386.38" y="-177.41" font-family="Times,serif" font-size="14.00" fill="#000000">(surelog)</text>
</g>
<!-- syn0 -->
<g id="node2" class="node">
<title>syn0</title>
<ellipse fill="#ffffff" stroke="black" cx="47.38" cy="-98.87" rx="47.25" ry="26.74"/>
<text text-anchor="middle" x="47.38" y="-102.67" font-family="Times,serif" font-size="14.00" fill="#000000">syn0</text>
<text text-anchor="middle" x="47.38" y="-87.67" font-family="Times,serif" font-size="14.00" fill="#000000">(yosys)</text>
</g>
<!-- import0&#45;&gt;syn0 -->
<g id="edge1" class="edge">
<title>import0&#45;&gt;syn0</title>
<path fill="none" stroke="black" d="M332.99,-179.34C275.6,-169.66 182.14,-151.6 104.38,-125.74 100.32,-124.39 96.16,-122.84 92.02,-121.19"/>
<polygon fill="black" stroke="black" points="93.07,-117.83 82.49,-117.19 90.36,-124.29 93.07,-117.83"/>
</g>
<!-- syn1 -->
<g id="node3" class="node">
<title>syn1</title>
<ellipse fill="#ffffff" stroke="black" cx="160.38" cy="-98.87" rx="47.25" ry="26.74"/>
<text text-anchor="middle" x="160.38" y="-102.67" font-family="Times,serif" font-size="14.00" fill="#000000">syn1</text>
<text text-anchor="middle" x="160.38" y="-87.67" font-family="Times,serif" font-size="14.00" fill="#000000">(yosys)</text>
</g>
<!-- import0&#45;&gt;syn1 -->
<g id="edge2" class="edge">
<title>import0&#45;&gt;syn1</title>
<path fill="none" stroke="black" d="M341.19,-172.11C306.95,-160.11 258.87,-142.72 217.38,-125.74 213.47,-124.14 209.44,-122.43 205.41,-120.69"/>
<polygon fill="black" stroke="black" points="206.64,-117.4 196.08,-116.57 203.81,-123.81 206.64,-117.4"/>
</g>
<!-- syn2 -->
<g id="node4" class="node">
<title>syn2</title>
<ellipse fill="#ffffff" stroke="black" cx="273.38" cy="-98.87" rx="47.25" ry="26.74"/>
<text text-anchor="middle" x="273.38" y="-102.67" font-family="Times,serif" font-size="14.00" fill="#000000">syn2</text>
<text text-anchor="middle" x="273.38" y="-87.67" font-family="Times,serif" font-size="14.00" fill="#000000">(yosys)</text>
</g>
<!-- import0&#45;&gt;syn2 -->
<g id="edge3" class="edge">
<title>import0&#45;&gt;syn2</title>
<path fill="none" stroke="black" d="M357.57,-165.24C342.65,-153.66 324.3,-139.41 308.55,-127.18"/>
<polygon fill="black" stroke="black" points="310.62,-124.36 300.58,-120.99 306.33,-129.89 310.62,-124.36"/>
</g>
<!-- syn3 -->
<g id="node5" class="node">
<title>syn3</title>
<ellipse fill="#ffffff" stroke="black" cx="386.38" cy="-98.87" rx="47.25" ry="26.74"/>
<text text-anchor="middle" x="386.38" y="-102.67" font-family="Times,serif" font-size="14.00" fill="#000000">syn3</text>
<text text-anchor="middle" x="386.38" y="-87.67" font-family="Times,serif" font-size="14.00" fill="#000000">(yosys)</text>
</g>
<!-- import0&#45;&gt;syn3 -->
<g id="edge4" class="edge">
<title>import0&#45;&gt;syn3</title>
<path fill="none" stroke="black" d="M386.38,-161.29C386.38,-153.32 386.38,-144.43 386.38,-135.94"/>
<polygon fill="black" stroke="black" points="389.88,-135.87 386.38,-125.87 382.88,-135.87 389.88,-135.87"/>
</g>
<!-- syn4 -->
<g id="node6" class="node">
<title>syn4</title>
<ellipse fill="#ffffff" stroke="black" cx="499.38" cy="-98.87" rx="47.25" ry="26.74"/>
<text text-anchor="middle" x="499.38" y="-102.67" font-family="Times,serif" font-size="14.00" fill="#000000">syn4</text>
<text text-anchor="middle" x="499.38" y="-87.67" font-family="Times,serif" font-size="14.00" fill="#000000">(yosys)</text>
</g>
<!-- import0&#45;&gt;syn4 -->
<g id="edge5" class="edge">
<title>import0&#45;&gt;syn4</title>
<path fill="none" stroke="black" d="M415.18,-165.24C430.11,-153.66 448.45,-139.41 464.21,-127.18"/>
<polygon fill="black" stroke="black" points="466.43,-129.89 472.18,-120.99 462.13,-124.36 466.43,-129.89"/>
</g>
<!-- syn5 -->
<g id="node7" class="node">
<title>syn5</title>
<ellipse fill="#ffffff" stroke="black" cx="612.38" cy="-98.87" rx="47.25" ry="26.74"/>
<text text-anchor="middle" x="612.38" y="-102.67" font-family="Times,serif" font-size="14.00" fill="#000000">syn5</text>
<text text-anchor="middle" x="612.38" y="-87.67" font-family="Times,serif" font-size="14.00" fill="#000000">(yosys)</text>
</g>
<!-- import0&#45;&gt;syn5 -->
<g id="edge6" class="edge">
<title>import0&#45;&gt;syn5</title>
<path fill="none" stroke="black" d="M431.56,-172.11C465.8,-160.11 513.88,-142.72 555.38,-125.74 559.28,-124.14 563.31,-122.43 567.34,-120.69"/>
<polygon fill="black" stroke="black" points="568.94,-123.81 576.68,-116.57 566.11,-117.4 568.94,-123.81"/>
</g>
<!-- syn6 -->
<g id="node8" class="node">
<title>syn6</title>
<ellipse fill="#ffffff" stroke="black" cx="725.38" cy="-98.87" rx="47.25" ry="26.74"/>
<text text-anchor="middle" x="725.38" y="-102.67" font-family="Times,serif" font-size="14.00" fill="#000000">syn6</text>
<text text-anchor="middle" x="725.38" y="-87.67" font-family="Times,serif" font-size="14.00" fill="#000000">(yosys)</text>
</g>
<!-- import0&#45;&gt;syn6 -->
<g id="edge7" class="edge">
<title>import0&#45;&gt;syn6</title>
<path fill="none" stroke="black" d="M439.76,-179.34C497.15,-169.66 590.61,-151.6 668.38,-125.74 672.44,-124.39 676.6,-122.84 680.73,-121.19"/>
<polygon fill="black" stroke="black" points="682.39,-124.29 690.26,-117.19 679.69,-117.83 682.39,-124.29"/>
</g>
<!-- synmin0 -->
<g id="node9" class="node">
<title>synmin0</title>
<ellipse fill="#ffffff" stroke="black" cx="386.38" cy="-18" rx="44.39" ry="18"/>
<text text-anchor="middle" x="386.38" y="-14.3" font-family="Times,serif" font-size="14.00" fill="#000000">synmin</text>
</g>
<!-- syn0&#45;&gt;synmin0 -->
<g id="edge8" class="edge">
<title>syn0&#45;&gt;synmin0</title>
<path fill="none" stroke="black" d="M82.13,-80.51C89.36,-77.35 97.02,-74.32 104.38,-72 182.41,-47.35 276.42,-32.51 333.76,-25.04"/>
<polygon fill="black" stroke="black" points="334.56,-28.47 344.03,-23.73 333.67,-21.53 334.56,-28.47"/>
</g>
<!-- syn1&#45;&gt;synmin0 -->
<g id="edge9" class="edge">
<title>syn1&#45;&gt;synmin0</title>
<path fill="none" stroke="black" d="M195.97,-80.91C203,-77.79 210.37,-74.68 217.38,-72 258.55,-56.27 306.6,-41.54 340.92,-31.62"/>
<polygon fill="black" stroke="black" points="342.02,-34.94 350.66,-28.82 340.09,-28.22 342.02,-34.94"/>
</g>
<!-- syn2&#45;&gt;synmin0 -->
<g id="edge10" class="edge">
<title>syn2&#45;&gt;synmin0</title>
<path fill="none" stroke="black" d="M302.48,-77.56C319.07,-65.98 339.83,-51.49 356.54,-39.82"/>
<polygon fill="black" stroke="black" points="358.67,-42.6 364.87,-34.01 354.67,-36.86 358.67,-42.6"/>
</g>
<!-- syn3&#45;&gt;synmin0 -->
<g id="edge11" class="edge">
<title>syn3&#45;&gt;synmin0</title>
<path fill="none" stroke="black" d="M386.38,-71.61C386.38,-63.51 386.38,-54.57 386.38,-46.39"/>
<polygon fill="black" stroke="black" points="389.88,-46.22 386.38,-36.22 382.88,-46.22 389.88,-46.22"/>
</g>
<!-- syn4&#45;&gt;synmin0 -->
<g id="edge12" class="edge">
<title>syn4&#45;&gt;synmin0</title>
<path fill="none" stroke="black" d="M470.28,-77.56C453.68,-65.98 432.93,-51.49 416.21,-39.82"/>
<polygon fill="black" stroke="black" points="418.09,-36.86 407.88,-34.01 414.08,-42.6 418.09,-36.86"/>
</g>
<!-- syn5&#45;&gt;synmin0 -->
<g id="edge13" class="edge">
<title>syn5&#45;&gt;synmin0</title>
<path fill="none" stroke="black" d="M576.78,-80.91C569.75,-77.79 562.38,-74.68 555.38,-72 514.2,-56.27 466.15,-41.54 431.83,-31.62"/>
<polygon fill="black" stroke="black" points="432.67,-28.22 422.09,-28.82 430.74,-34.94 432.67,-28.22"/>
</g>
<!-- syn6&#45;&gt;synmin0 -->
<g id="edge14" class="edge">
<title>syn6&#45;&gt;synmin0</title>
<path fill="none" stroke="black" d="M690.62,-80.51C683.39,-77.35 675.73,-74.32 668.38,-72 590.34,-47.35 496.33,-32.51 438.99,-25.04"/>
<polygon fill="black" stroke="black" points="439.08,-21.53 428.72,-23.73 438.19,-28.47 439.08,-21.53"/>
</g>
</g>
</svg>
