<?xml version="1.0" encoding="UTF-8" standalone="no"?>
<!DOCTYPE svg PUBLIC "-//W3C//DTD SVG 1.1//EN"
 "http://www.w3.org/Graphics/SVG/1.1/DTD/svg11.dtd">
<!-- Generated by graphviz version 2.43.0 (0)
 -->
<!-- Title: %3 Pages: 1 -->
<svg width="147pt" height="1284pt"
 viewBox="0.00 0.00 147.09 1283.66" xmlns="http://www.w3.org/2000/svg" xmlns:xlink="http://www.w3.org/1999/xlink">
<g id="graph0" class="graph" transform="scale(1 1) rotate(0) translate(4 1279.66)">
<title>%3</title>
<!-- import0 -->
<g id="node1" class="node">
<title>import0</title>
<ellipse fill="none" stroke="black" cx="69.54" cy="-1248.79" rx="62.87" ry="26.74"/>
<text text-anchor="middle" x="69.54" y="-1252.59" font-family="Times,serif" font-size="14.00">import0</text>
<text text-anchor="middle" x="69.54" y="-1237.59" font-family="Times,serif" font-size="14.00">(verilator)</text>
</g>
<!-- syn0 -->
<g id="node2" class="node">
<title>syn0</title>
<ellipse fill="none" stroke="black" cx="69.54" cy="-1159.05" rx="47.25" ry="26.74"/>
<text text-anchor="middle" x="69.54" y="-1162.85" font-family="Times,serif" font-size="14.00">syn0</text>
<text text-anchor="middle" x="69.54" y="-1147.85" font-family="Times,serif" font-size="14.00">(yosys)</text>
</g>
<!-- import0&#45;&gt;syn0 -->
<g id="edge1" class="edge">
<title>import0&#45;&gt;syn0</title>
<path fill="none" stroke="black" d="M69.54,-1221.47C69.54,-1213.5 69.54,-1204.61 69.54,-1196.12"/>
<polygon fill="black" stroke="black" points="73.04,-1196.05 69.54,-1186.05 66.04,-1196.05 73.04,-1196.05"/>
</g>
<!-- synmin0 -->
<g id="node3" class="node">
<title>synmin0</title>
<ellipse fill="none" stroke="black" cx="69.54" cy="-1078.18" rx="44.39" ry="18"/>
<text text-anchor="middle" x="69.54" y="-1074.48" font-family="Times,serif" font-size="14.00">synmin</text>
</g>
<!-- syn0&#45;&gt;synmin0 -->
<g id="edge2" class="edge">
<title>syn0&#45;&gt;synmin0</title>
<path fill="none" stroke="black" d="M69.54,-1131.79C69.54,-1123.69 69.54,-1114.75 69.54,-1106.57"/>
<polygon fill="black" stroke="black" points="73.04,-1106.4 69.54,-1096.4 66.04,-1106.4 73.04,-1106.4"/>
</g>
<!-- floorplan0 -->
<g id="node4" class="node">
<title>floorplan0</title>
<ellipse fill="none" stroke="black" cx="69.54" cy="-997.31" rx="66.44" ry="26.74"/>
<text text-anchor="middle" x="69.54" y="-1001.11" font-family="Times,serif" font-size="14.00">floorplan0</text>
<text text-anchor="middle" x="69.54" y="-986.11" font-family="Times,serif" font-size="14.00">(openroad)</text>
</g>
<!-- synmin0&#45;&gt;floorplan0 -->
<g id="edge3" class="edge">
<title>synmin0&#45;&gt;floorplan0</title>
<path fill="none" stroke="black" d="M69.54,-1060.07C69.54,-1052.58 69.54,-1043.49 69.54,-1034.61"/>
<polygon fill="black" stroke="black" points="73.04,-1034.39 69.54,-1024.39 66.04,-1034.39 73.04,-1034.39"/>
</g>
<!-- floorplanmin0 -->
<g id="node5" class="node">
<title>floorplanmin0</title>
<ellipse fill="none" stroke="black" cx="69.54" cy="-916.44" rx="69.59" ry="18"/>
<text text-anchor="middle" x="69.54" y="-912.74" font-family="Times,serif" font-size="14.00">floorplanmin</text>
</g>
<!-- floorplan0&#45;&gt;floorplanmin0 -->
<g id="edge4" class="edge">
<title>floorplan0&#45;&gt;floorplanmin0</title>
<path fill="none" stroke="black" d="M69.54,-970.05C69.54,-961.95 69.54,-953.01 69.54,-944.83"/>
<polygon fill="black" stroke="black" points="73.04,-944.66 69.54,-934.66 66.04,-944.66 73.04,-944.66"/>
</g>
<!-- physyn0 -->
<g id="node6" class="node">
<title>physyn0</title>
<ellipse fill="none" stroke="black" cx="69.54" cy="-835.57" rx="66.44" ry="26.74"/>
<text text-anchor="middle" x="69.54" y="-839.37" font-family="Times,serif" font-size="14.00">physyn0</text>
<text text-anchor="middle" x="69.54" y="-824.37" font-family="Times,serif" font-size="14.00">(openroad)</text>
</g>
<!-- floorplanmin0&#45;&gt;physyn0 -->
<g id="edge5" class="edge">
<title>floorplanmin0&#45;&gt;physyn0</title>
<path fill="none" stroke="black" d="M69.54,-898.33C69.54,-890.84 69.54,-881.75 69.54,-872.87"/>
<polygon fill="black" stroke="black" points="73.04,-872.65 69.54,-862.65 66.04,-872.65 73.04,-872.65"/>
</g>
<!-- physynmin0 -->
<g id="node7" class="node">
<title>physynmin0</title>
<ellipse fill="none" stroke="black" cx="69.54" cy="-754.7" rx="61.99" ry="18"/>
<text text-anchor="middle" x="69.54" y="-751" font-family="Times,serif" font-size="14.00">physynmin</text>
</g>
<!-- physyn0&#45;&gt;physynmin0 -->
<g id="edge6" class="edge">
<title>physyn0&#45;&gt;physynmin0</title>
<path fill="none" stroke="black" d="M69.54,-808.31C69.54,-800.21 69.54,-791.27 69.54,-783.09"/>
<polygon fill="black" stroke="black" points="73.04,-782.92 69.54,-772.92 66.04,-782.92 73.04,-782.92"/>
</g>
<!-- place0 -->
<g id="node8" class="node">
<title>place0</title>
<ellipse fill="none" stroke="black" cx="69.54" cy="-673.83" rx="66.44" ry="26.74"/>
<text text-anchor="middle" x="69.54" y="-677.63" font-family="Times,serif" font-size="14.00">place0</text>
<text text-anchor="middle" x="69.54" y="-662.63" font-family="Times,serif" font-size="14.00">(openroad)</text>
</g>
<!-- physynmin0&#45;&gt;place0 -->
<g id="edge7" class="edge">
<title>physynmin0&#45;&gt;place0</title>
<path fill="none" stroke="black" d="M69.54,-736.59C69.54,-729.1 69.54,-720.01 69.54,-711.13"/>
<polygon fill="black" stroke="black" points="73.04,-710.91 69.54,-700.91 66.04,-710.91 73.04,-710.91"/>
</g>
<!-- placemin0 -->
<g id="node9" class="node">
<title>placemin0</title>
<ellipse fill="none" stroke="black" cx="69.54" cy="-592.96" rx="52.79" ry="18"/>
<text text-anchor="middle" x="69.54" y="-589.26" font-family="Times,serif" font-size="14.00">placemin</text>
</g>
<!-- place0&#45;&gt;placemin0 -->
<g id="edge8" class="edge">
<title>place0&#45;&gt;placemin0</title>
<path fill="none" stroke="black" d="M69.54,-646.57C69.54,-638.47 69.54,-629.53 69.54,-621.35"/>
<polygon fill="black" stroke="black" points="73.04,-621.18 69.54,-611.18 66.04,-621.18 73.04,-621.18"/>
</g>
<!-- cts0 -->
<g id="node10" class="node">
<title>cts0</title>
<ellipse fill="none" stroke="black" cx="69.54" cy="-512.09" rx="66.44" ry="26.74"/>
<text text-anchor="middle" x="69.54" y="-515.89" font-family="Times,serif" font-size="14.00">cts0</text>
<text text-anchor="middle" x="69.54" y="-500.89" font-family="Times,serif" font-size="14.00">(openroad)</text>
</g>
<!-- placemin0&#45;&gt;cts0 -->
<g id="edge9" class="edge">
<title>placemin0&#45;&gt;cts0</title>
<path fill="none" stroke="black" d="M69.54,-574.85C69.54,-567.36 69.54,-558.27 69.54,-549.39"/>
<polygon fill="black" stroke="black" points="73.04,-549.17 69.54,-539.17 66.04,-549.17 73.04,-549.17"/>
</g>
<!-- ctsmin0 -->
<g id="node11" class="node">
<title>ctsmin0</title>
<ellipse fill="none" stroke="black" cx="69.54" cy="-431.22" rx="42.49" ry="18"/>
<text text-anchor="middle" x="69.54" y="-427.52" font-family="Times,serif" font-size="14.00">ctsmin</text>
</g>
<!-- cts0&#45;&gt;ctsmin0 -->
<g id="edge10" class="edge">
<title>cts0&#45;&gt;ctsmin0</title>
<path fill="none" stroke="black" d="M69.54,-484.83C69.54,-476.73 69.54,-467.79 69.54,-459.61"/>
<polygon fill="black" stroke="black" points="73.04,-459.44 69.54,-449.44 66.04,-459.44 73.04,-459.44"/>
</g>
<!-- route0 -->
<g id="node12" class="node">
<title>route0</title>
<ellipse fill="none" stroke="black" cx="69.54" cy="-350.35" rx="66.44" ry="26.74"/>
<text text-anchor="middle" x="69.54" y="-354.15" font-family="Times,serif" font-size="14.00">route0</text>
<text text-anchor="middle" x="69.54" y="-339.15" font-family="Times,serif" font-size="14.00">(openroad)</text>
</g>
<!-- ctsmin0&#45;&gt;route0 -->
<g id="edge11" class="edge">
<title>ctsmin0&#45;&gt;route0</title>
<path fill="none" stroke="black" d="M69.54,-413.11C69.54,-405.62 69.54,-396.53 69.54,-387.65"/>
<polygon fill="black" stroke="black" points="73.04,-387.43 69.54,-377.43 66.04,-387.43 73.04,-387.43"/>
</g>
<!-- routemin0 -->
<g id="node13" class="node">
<title>routemin0</title>
<ellipse fill="none" stroke="black" cx="69.54" cy="-269.48" rx="53.09" ry="18"/>
<text text-anchor="middle" x="69.54" y="-265.78" font-family="Times,serif" font-size="14.00">routemin</text>
</g>
<!-- route0&#45;&gt;routemin0 -->
<g id="edge12" class="edge">
<title>route0&#45;&gt;routemin0</title>
<path fill="none" stroke="black" d="M69.54,-323.09C69.54,-314.99 69.54,-306.05 69.54,-297.87"/>
<polygon fill="black" stroke="black" points="73.04,-297.7 69.54,-287.7 66.04,-297.7 73.04,-297.7"/>
</g>
<!-- dfm0 -->
<g id="node14" class="node">
<title>dfm0</title>
<ellipse fill="none" stroke="black" cx="69.54" cy="-188.61" rx="66.44" ry="26.74"/>
<text text-anchor="middle" x="69.54" y="-192.41" font-family="Times,serif" font-size="14.00">dfm0</text>
<text text-anchor="middle" x="69.54" y="-177.41" font-family="Times,serif" font-size="14.00">(openroad)</text>
</g>
<!-- routemin0&#45;&gt;dfm0 -->
<g id="edge13" class="edge">
<title>routemin0&#45;&gt;dfm0</title>
<path fill="none" stroke="black" d="M69.54,-251.37C69.54,-243.88 69.54,-234.79 69.54,-225.91"/>
<polygon fill="black" stroke="black" points="73.04,-225.69 69.54,-215.69 66.04,-225.69 73.04,-225.69"/>
</g>
<!-- dfmmin0 -->
<g id="node15" class="node">
<title>dfmmin0</title>
<ellipse fill="none" stroke="black" cx="69.54" cy="-107.74" rx="46.29" ry="18"/>
<text text-anchor="middle" x="69.54" y="-104.04" font-family="Times,serif" font-size="14.00">dfmmin</text>
</g>
<!-- dfm0&#45;&gt;dfmmin0 -->
<g id="edge14" class="edge">
<title>dfm0&#45;&gt;dfmmin0</title>
<path fill="none" stroke="black" d="M69.54,-161.35C69.54,-153.25 69.54,-144.31 69.54,-136.13"/>
<polygon fill="black" stroke="black" points="73.04,-135.96 69.54,-125.96 66.04,-135.96 73.04,-135.96"/>
</g>
<!-- export0 -->
<g id="node16" class="node">
<title>export0</title>
<ellipse fill="none" stroke="black" cx="69.54" cy="-26.87" rx="56.64" ry="26.74"/>
<text text-anchor="middle" x="69.54" y="-30.67" font-family="Times,serif" font-size="14.00">export0</text>
<text text-anchor="middle" x="69.54" y="-15.67" font-family="Times,serif" font-size="14.00">(klayout)</text>
</g>
<!-- dfmmin0&#45;&gt;export0 -->
<g id="edge15" class="edge">
<title>dfmmin0&#45;&gt;export0</title>
<path fill="none" stroke="black" d="M69.54,-89.63C69.54,-82.14 69.54,-73.05 69.54,-64.17"/>
<polygon fill="black" stroke="black" points="73.04,-63.95 69.54,-53.95 66.04,-63.95 73.04,-63.95"/>
</g>
</g>
</svg>
