<?xml version="1.0" encoding="UTF-8" standalone="no"?>
<!DOCTYPE svg PUBLIC "-//W3C//DTD SVG 1.1//EN"
 "http://www.w3.org/Graphics/SVG/1.1/DTD/svg11.dtd">
<!-- Generated by graphviz version 2.43.0 (0)
 -->
<!-- Title: %3 Pages: 1 -->
<svg width="134pt" height="582pt"
 viewBox="0.00 0.00 133.87 582.44" xmlns="http://www.w3.org/2000/svg" xmlns:xlink="http://www.w3.org/1999/xlink">
<g id="graph0" class="graph" transform="scale(1 1) rotate(0) translate(4 578.44)">
<title>%3</title>
<!-- import0 -->
<g id="node1" class="node">
<title>import0</title>
<ellipse fill="none" stroke="black" cx="62.93" cy="-547.57" rx="62.87" ry="26.74"/>
<text text-anchor="middle" x="62.93" y="-551.37" font-family="Times,serif" font-size="14.00">import0</text>
<text text-anchor="middle" x="62.93" y="-536.37" font-family="Times,serif" font-size="14.00">(verilator)</text>
</g>
<!-- compile0 -->
<g id="node2" class="node">
<title>compile0</title>
<ellipse fill="none" stroke="black" cx="62.93" cy="-457.83" rx="62.87" ry="26.74"/>
<text text-anchor="middle" x="62.93" y="-461.63" font-family="Times,serif" font-size="14.00">compile0</text>
<text text-anchor="middle" x="62.93" y="-446.63" font-family="Times,serif" font-size="14.00">(verilator)</text>
</g>
<!-- import0&#45;&gt;compile0 -->
<g id="edge1" class="edge">
<title>import0&#45;&gt;compile0</title>
<path fill="none" stroke="black" d="M62.93,-520.25C62.93,-512.28 62.93,-503.39 62.93,-494.9"/>
<polygon fill="black" stroke="black" points="66.43,-494.83 62.93,-484.83 59.43,-494.83 66.43,-494.83"/>
</g>
<!-- testgen0 -->
<g id="node3" class="node">
<title>testgen0</title>
<ellipse fill="none" stroke="black" cx="62.93" cy="-368.09" rx="62.87" ry="26.74"/>
<text text-anchor="middle" x="62.93" y="-371.89" font-family="Times,serif" font-size="14.00">testgen0</text>
<text text-anchor="middle" x="62.93" y="-356.89" font-family="Times,serif" font-size="14.00">(verilator)</text>
</g>
<!-- compile0&#45;&gt;testgen0 -->
<g id="edge2" class="edge">
<title>compile0&#45;&gt;testgen0</title>
<path fill="none" stroke="black" d="M62.93,-430.51C62.93,-422.54 62.93,-413.65 62.93,-405.16"/>
<polygon fill="black" stroke="black" points="66.43,-405.09 62.93,-395.09 59.43,-405.09 66.43,-405.09"/>
</g>
<!-- refsim0 -->
<g id="node4" class="node">
<title>refsim0</title>
<ellipse fill="none" stroke="black" cx="62.93" cy="-278.35" rx="62.87" ry="26.74"/>
<text text-anchor="middle" x="62.93" y="-282.15" font-family="Times,serif" font-size="14.00">refsim0</text>
<text text-anchor="middle" x="62.93" y="-267.15" font-family="Times,serif" font-size="14.00">(verilator)</text>
</g>
<!-- testgen0&#45;&gt;refsim0 -->
<g id="edge3" class="edge">
<title>testgen0&#45;&gt;refsim0</title>
<path fill="none" stroke="black" d="M62.93,-340.77C62.93,-332.8 62.93,-323.91 62.93,-315.42"/>
<polygon fill="black" stroke="black" points="66.43,-315.35 62.93,-305.35 59.43,-315.35 66.43,-315.35"/>
</g>
<!-- sim0 -->
<g id="node5" class="node">
<title>sim0</title>
<ellipse fill="none" stroke="black" cx="62.93" cy="-188.61" rx="62.87" ry="26.74"/>
<text text-anchor="middle" x="62.93" y="-192.41" font-family="Times,serif" font-size="14.00">sim0</text>
<text text-anchor="middle" x="62.93" y="-177.41" font-family="Times,serif" font-size="14.00">(verilator)</text>
</g>
<!-- refsim0&#45;&gt;sim0 -->
<g id="edge4" class="edge">
<title>refsim0&#45;&gt;sim0</title>
<path fill="none" stroke="black" d="M62.93,-251.03C62.93,-243.06 62.93,-234.17 62.93,-225.68"/>
<polygon fill="black" stroke="black" points="66.43,-225.61 62.93,-215.61 59.43,-225.61 66.43,-225.61"/>
</g>
<!-- compare0 -->
<g id="node6" class="node">
<title>compare0</title>
<ellipse fill="none" stroke="black" cx="62.93" cy="-98.87" rx="62.87" ry="26.74"/>
<text text-anchor="middle" x="62.93" y="-102.67" font-family="Times,serif" font-size="14.00">compare0</text>
<text text-anchor="middle" x="62.93" y="-87.67" font-family="Times,serif" font-size="14.00">(verilator)</text>
</g>
<!-- sim0&#45;&gt;compare0 -->
<g id="edge5" class="edge">
<title>sim0&#45;&gt;compare0</title>
<path fill="none" stroke="black" d="M62.93,-161.29C62.93,-153.32 62.93,-144.43 62.93,-135.94"/>
<polygon fill="black" stroke="black" points="66.43,-135.87 62.93,-125.87 59.43,-135.87 66.43,-135.87"/>
</g>
<!-- signoff0 -->
<g id="node7" class="node">
<title>signoff0</title>
<ellipse fill="none" stroke="black" cx="62.93" cy="-18" rx="42.49" ry="18"/>
<text text-anchor="middle" x="62.93" y="-14.3" font-family="Times,serif" font-size="14.00">signoff</text>
</g>
<!-- compare0&#45;&gt;signoff0 -->
<g id="edge6" class="edge">
<title>compare0&#45;&gt;signoff0</title>
<path fill="none" stroke="black" d="M62.93,-71.61C62.93,-63.51 62.93,-54.57 62.93,-46.39"/>
<polygon fill="black" stroke="black" points="66.43,-46.22 62.93,-36.22 59.43,-46.22 66.43,-46.22"/>
</g>
</g>
</svg>
