<?xml version="1.0" encoding="UTF-8" standalone="no"?>
<!DOCTYPE svg PUBLIC "-//W3C//DTD SVG 1.1//EN"
 "http://www.w3.org/Graphics/SVG/1.1/DTD/svg11.dtd">
<!-- Generated by graphviz version 2.43.0 (0)
 -->
<!-- Title: %3 Pages: 1 -->
<svg width="142pt" height="331pt"
 viewBox="0.00 0.00 142.35 330.96" xmlns="http://www.w3.org/2000/svg" xmlns:xlink="http://www.w3.org/1999/xlink">
<g id="graph0" class="graph" transform="scale(1 1) rotate(0) translate(4 326.96)">
<title>%3</title>
<!-- import0 -->
<g id="node1" class="node">
<title>import0</title>
<ellipse fill="none" stroke="black" cx="67.18" cy="-296.09" rx="62.87" ry="26.74"/>
<text text-anchor="middle" x="67.18" y="-299.89" font-family="Times,serif" font-size="14.00">import0</text>
<text text-anchor="middle" x="67.18" y="-284.89" font-family="Times,serif" font-size="14.00">(verilator)</text>
</g>
<!-- syn0 -->
<g id="node2" class="node">
<title>syn0</title>
<ellipse fill="none" stroke="black" cx="67.18" cy="-206.35" rx="47.25" ry="26.74"/>
<text text-anchor="middle" x="67.18" y="-210.15" font-family="Times,serif" font-size="14.00">syn0</text>
<text text-anchor="middle" x="67.18" y="-195.15" font-family="Times,serif" font-size="14.00">(yosys)</text>
</g>
<!-- import0&#45;&gt;syn0 -->
<g id="edge1" class="edge">
<title>import0&#45;&gt;syn0</title>
<path fill="none" stroke="black" d="M67.18,-268.77C67.18,-260.8 67.18,-251.91 67.18,-243.42"/>
<polygon fill="black" stroke="black" points="70.68,-243.35 67.18,-233.35 63.68,-243.35 70.68,-243.35"/>
</g>
<!-- apr0 -->
<g id="node3" class="node">
<title>apr0</title>
<ellipse fill="none" stroke="black" cx="67.18" cy="-116.61" rx="65.52" ry="26.74"/>
<text text-anchor="middle" x="67.18" y="-120.41" font-family="Times,serif" font-size="14.00">apr0</text>
<text text-anchor="middle" x="67.18" y="-105.41" font-family="Times,serif" font-size="14.00">(openfpga)</text>
</g>
<!-- syn0&#45;&gt;apr0 -->
<g id="edge2" class="edge">
<title>syn0&#45;&gt;apr0</title>
<path fill="none" stroke="black" d="M67.18,-179.03C67.18,-171.06 67.18,-162.17 67.18,-153.68"/>
<polygon fill="black" stroke="black" points="70.68,-153.61 67.18,-143.61 63.68,-153.61 70.68,-153.61"/>
</g>
<!-- bitstream0 -->
<g id="node4" class="node">
<title>bitstream0</title>
<ellipse fill="none" stroke="black" cx="67.18" cy="-26.87" rx="67.35" ry="26.74"/>
<text text-anchor="middle" x="67.18" y="-30.67" font-family="Times,serif" font-size="14.00">bitstream0</text>
<text text-anchor="middle" x="67.18" y="-15.67" font-family="Times,serif" font-size="14.00">(openfpga)</text>
</g>
<!-- apr0&#45;&gt;bitstream0 -->
<g id="edge3" class="edge">
<title>apr0&#45;&gt;bitstream0</title>
<path fill="none" stroke="black" d="M67.18,-89.29C67.18,-81.32 67.18,-72.43 67.18,-63.94"/>
<polygon fill="black" stroke="black" points="70.68,-63.87 67.18,-53.87 63.68,-63.87 70.68,-63.87"/>
</g>
</g>
</svg>
