<?xml version="1.0" encoding="UTF-8" standalone="no"?>
<!DOCTYPE svg PUBLIC "-//W3C//DTD SVG 1.1//EN"
 "http://www.w3.org/Graphics/SVG/1.1/DTD/svg11.dtd">
<!-- Generated by graphviz version 2.43.0 (0)
 -->
<!-- Title: %3 Pages: 1 -->
<svg width="1120pt" height="151pt"
 viewBox="0.00 0.00 1119.75 151.48" xmlns="http://www.w3.org/2000/svg" xmlns:xlink="http://www.w3.org/1999/xlink">
<g id="graph0" class="graph" transform="scale(1 1) rotate(0) translate(4 147.48)">
<title>%3</title>
<!-- syn0 -->
<g id="node1" class="node">
<title>syn0</title>
<ellipse fill="none" stroke="black" cx="47.38" cy="-26.87" rx="47.25" ry="26.74"/>
<text text-anchor="middle" x="47.38" y="-30.67" font-family="Times,serif" font-size="14.00">syn0</text>
<text text-anchor="middle" x="47.38" y="-15.67" font-family="Times,serif" font-size="14.00">(yosys)</text>
</g>
<!-- import -->
<g id="node2" class="node">
<title>import</title>
<ellipse fill="none" stroke="black" cx="555.38" cy="-116.61" rx="62.87" ry="26.74"/>
<text text-anchor="middle" x="555.38" y="-120.41" font-family="Times,serif" font-size="14.00">import</text>
<text text-anchor="middle" x="555.38" y="-105.41" font-family="Times,serif" font-size="14.00">(verilator)</text>
</g>
<!-- import&#45;&gt;syn0 -->
<g id="edge1" class="edge">
<title>import&#45;&gt;syn0</title>
<path fill="none" stroke="black" d="M492.92,-112.75C404.77,-107.44 239.53,-92.78 104.38,-53.74 100.03,-52.48 95.59,-50.95 91.2,-49.27"/>
<polygon fill="black" stroke="black" points="92.32,-45.94 81.74,-45.39 89.66,-52.42 92.32,-45.94"/>
</g>
<!-- syn1 -->
<g id="node3" class="node">
<title>syn1</title>
<ellipse fill="none" stroke="black" cx="160.38" cy="-26.87" rx="47.25" ry="26.74"/>
<text text-anchor="middle" x="160.38" y="-30.67" font-family="Times,serif" font-size="14.00">syn1</text>
<text text-anchor="middle" x="160.38" y="-15.67" font-family="Times,serif" font-size="14.00">(yosys)</text>
</g>
<!-- import&#45;&gt;syn1 -->
<g id="edge2" class="edge">
<title>import&#45;&gt;syn1</title>
<path fill="none" stroke="black" d="M494.77,-109.06C426.28,-100.62 312.02,-83.39 217.38,-53.74 213.12,-52.41 208.76,-50.84 204.45,-49.14"/>
<polygon fill="black" stroke="black" points="205.7,-45.87 195.12,-45.26 203.01,-52.33 205.7,-45.87"/>
</g>
<!-- syn2 -->
<g id="node4" class="node">
<title>syn2</title>
<ellipse fill="none" stroke="black" cx="273.38" cy="-26.87" rx="47.25" ry="26.74"/>
<text text-anchor="middle" x="273.38" y="-30.67" font-family="Times,serif" font-size="14.00">syn2</text>
<text text-anchor="middle" x="273.38" y="-15.67" font-family="Times,serif" font-size="14.00">(yosys)</text>
</g>
<!-- import&#45;&gt;syn2 -->
<g id="edge3" class="edge">
<title>import&#45;&gt;syn2</title>
<path fill="none" stroke="black" d="M500.52,-103.1C454.5,-91.99 387.33,-74.35 330.38,-53.74 326.35,-52.28 322.22,-50.66 318.1,-48.96"/>
<polygon fill="black" stroke="black" points="319.16,-45.61 308.59,-44.9 316.41,-52.05 319.16,-45.61"/>
</g>
<!-- syn3 -->
<g id="node5" class="node">
<title>syn3</title>
<ellipse fill="none" stroke="black" cx="386.38" cy="-26.87" rx="47.25" ry="26.74"/>
<text text-anchor="middle" x="386.38" y="-30.67" font-family="Times,serif" font-size="14.00">syn3</text>
<text text-anchor="middle" x="386.38" y="-15.67" font-family="Times,serif" font-size="14.00">(yosys)</text>
</g>
<!-- import&#45;&gt;syn3 -->
<g id="edge4" class="edge">
<title>import&#45;&gt;syn3</title>
<path fill="none" stroke="black" d="M516.18,-95.26C490.27,-81.81 456.3,-64.17 429.61,-50.32"/>
<polygon fill="black" stroke="black" points="430.99,-47.09 420.5,-45.59 427.76,-53.3 430.99,-47.09"/>
</g>
<!-- syn4 -->
<g id="node6" class="node">
<title>syn4</title>
<ellipse fill="none" stroke="black" cx="499.38" cy="-26.87" rx="47.25" ry="26.74"/>
<text text-anchor="middle" x="499.38" y="-30.67" font-family="Times,serif" font-size="14.00">syn4</text>
<text text-anchor="middle" x="499.38" y="-15.67" font-family="Times,serif" font-size="14.00">(yosys)</text>
</g>
<!-- import&#45;&gt;syn4 -->
<g id="edge5" class="edge">
<title>import&#45;&gt;syn4</title>
<path fill="none" stroke="black" d="M539.18,-90.23C533.34,-81.09 526.67,-70.63 520.47,-60.93"/>
<polygon fill="black" stroke="black" points="523.29,-58.83 514.96,-52.29 517.39,-62.6 523.29,-58.83"/>
</g>
<!-- syn5 -->
<g id="node7" class="node">
<title>syn5</title>
<ellipse fill="none" stroke="black" cx="612.38" cy="-26.87" rx="47.25" ry="26.74"/>
<text text-anchor="middle" x="612.38" y="-30.67" font-family="Times,serif" font-size="14.00">syn5</text>
<text text-anchor="middle" x="612.38" y="-15.67" font-family="Times,serif" font-size="14.00">(yosys)</text>
</g>
<!-- import&#45;&gt;syn5 -->
<g id="edge6" class="edge">
<title>import&#45;&gt;syn5</title>
<path fill="none" stroke="black" d="M571.86,-90.23C577.8,-81.09 584.6,-70.63 590.9,-60.93"/>
<polygon fill="black" stroke="black" points="594,-62.58 596.52,-52.29 588.13,-58.76 594,-62.58"/>
</g>
<!-- syn6 -->
<g id="node8" class="node">
<title>syn6</title>
<ellipse fill="none" stroke="black" cx="725.38" cy="-26.87" rx="47.25" ry="26.74"/>
<text text-anchor="middle" x="725.38" y="-30.67" font-family="Times,serif" font-size="14.00">syn6</text>
<text text-anchor="middle" x="725.38" y="-15.67" font-family="Times,serif" font-size="14.00">(yosys)</text>
</g>
<!-- import&#45;&gt;syn6 -->
<g id="edge7" class="edge">
<title>import&#45;&gt;syn6</title>
<path fill="none" stroke="black" d="M594.38,-95.48C620.51,-81.99 654.94,-64.22 681.94,-50.29"/>
<polygon fill="black" stroke="black" points="683.88,-53.23 691.16,-45.53 680.67,-47.01 683.88,-53.23"/>
</g>
<!-- syn7 -->
<g id="node9" class="node">
<title>syn7</title>
<ellipse fill="none" stroke="black" cx="838.38" cy="-26.87" rx="47.25" ry="26.74"/>
<text text-anchor="middle" x="838.38" y="-30.67" font-family="Times,serif" font-size="14.00">syn7</text>
<text text-anchor="middle" x="838.38" y="-15.67" font-family="Times,serif" font-size="14.00">(yosys)</text>
</g>
<!-- import&#45;&gt;syn7 -->
<g id="edge8" class="edge">
<title>import&#45;&gt;syn7</title>
<path fill="none" stroke="black" d="M610.01,-103.23C656.26,-92.15 723.99,-74.47 781.38,-53.74 785.4,-52.29 789.54,-50.67 793.65,-48.97"/>
<polygon fill="black" stroke="black" points="795.34,-52.05 803.16,-44.9 792.59,-45.62 795.34,-52.05"/>
</g>
<!-- syn8 -->
<g id="node10" class="node">
<title>syn8</title>
<ellipse fill="none" stroke="black" cx="951.38" cy="-26.87" rx="47.25" ry="26.74"/>
<text text-anchor="middle" x="951.38" y="-30.67" font-family="Times,serif" font-size="14.00">syn8</text>
<text text-anchor="middle" x="951.38" y="-15.67" font-family="Times,serif" font-size="14.00">(yosys)</text>
</g>
<!-- import&#45;&gt;syn8 -->
<g id="edge9" class="edge">
<title>import&#45;&gt;syn8</title>
<path fill="none" stroke="black" d="M615.85,-109.12C684.51,-100.71 799.31,-83.49 894.38,-53.74 898.63,-52.41 902.99,-50.84 907.31,-49.14"/>
<polygon fill="black" stroke="black" points="908.74,-52.33 916.63,-45.26 906.06,-45.87 908.74,-52.33"/>
</g>
<!-- syn9 -->
<g id="node11" class="node">
<title>syn9</title>
<ellipse fill="none" stroke="black" cx="1064.38" cy="-26.87" rx="47.25" ry="26.74"/>
<text text-anchor="middle" x="1064.38" y="-30.67" font-family="Times,serif" font-size="14.00">syn9</text>
<text text-anchor="middle" x="1064.38" y="-15.67" font-family="Times,serif" font-size="14.00">(yosys)</text>
</g>
<!-- import&#45;&gt;syn9 -->
<g id="edge10" class="edge">
<title>import&#45;&gt;syn9</title>
<path fill="none" stroke="black" d="M617.97,-112.77C706.31,-107.48 871.92,-92.84 1007.38,-53.74 1011.72,-52.49 1016.16,-50.95 1020.55,-49.27"/>
<polygon fill="black" stroke="black" points="1022.09,-52.42 1030.02,-45.39 1019.44,-45.94 1022.09,-52.42"/>
</g>
</g>
</svg>
