<?xml version="1.0" encoding="UTF-8" standalone="no"?>
<svg
   xmlns:dc="http://purl.org/dc/elements/1.1/"
   xmlns:cc="http://creativecommons.org/ns#"
   xmlns:rdf="http://www.w3.org/1999/02/22-rdf-syntax-ns#"
   xmlns:svg="http://www.w3.org/2000/svg"
   xmlns="http://www.w3.org/2000/svg"
   xmlns:sodipodi="http://sodipodi.sourceforge.net/DTD/sodipodi-0.dtd"
   xmlns:inkscape="http://www.inkscape.org/namespaces/inkscape"
   version="1.1"
   viewBox="0 0 860 400"
   stroke-miterlimit="10"
   id="svg177"
   sodipodi:docname="sc_arch.svg"
   width="860"
   height="400"
   style="fill:none;stroke:none;stroke-linecap:square;stroke-miterlimit:10"
   inkscape:version="0.92.5 (2060ec1f9f, 2020-04-08)">
  <metadata
     id="metadata183">
    <rdf:RDF>
      <cc:Work
         rdf:about="">
        <dc:format>image/svg+xml</dc:format>
        <dc:type
           rdf:resource="http://purl.org/dc/dcmitype/StillImage" />
        <dc:title></dc:title>
      </cc:Work>
    </rdf:RDF>
  </metadata>
  <defs
     id="defs181" />
  <sodipodi:namedview
     pagecolor="#ffffff"
     bordercolor="#666666"
     borderopacity="1"
     objecttolerance="10"
     gridtolerance="10"
     guidetolerance="10"
     inkscape:pageopacity="0"
     inkscape:pageshadow="2"
     inkscape:window-width="1848"
     inkscape:window-height="1016"
     id="namedview179"
     showgrid="false"
     inkscape:zoom="0.32777778"
     inkscape:cx="480"
     inkscape:cy="360"
     inkscape:window-x="72"
     inkscape:window-y="27"
     inkscape:window-maximized="1"
     inkscape:current-layer="g175" />
  <clipPath
     id="p.0">
    <path
       d="M 0,0 H 960 V 720 H 0 Z"
       id="path2"
       inkscape:connector-curvature="0"
       style="clip-rule:nonzero" />
  </clipPath>
  <g
     clip-path="url(#p.0)"
     id="g175"
     transform="translate(12.20339,-64.677966)">
    <path
       d="M 0,0 H 960 V 720 H 0 Z"
       id="path5"
       inkscape:connector-curvature="0"
       style="fill:#000000;fill-opacity:0;fill-rule:evenodd" />
    <path
       d="M 366.50394,101.54068 H 806.8819 V 437.19421 H 366.50394 Z"
       id="path7"
       inkscape:connector-curvature="0"
       style="fill:#d9d9d9;fill-rule:evenodd" />
    <path
       d="M 366.50394,101.54068 H 806.8819 V 437.19421 H 366.50394 Z"
       id="path9"
       inkscape:connector-curvature="0"
       style="fill-rule:evenodd;stroke:#073763;stroke-width:3;stroke-linecap:butt;stroke-linejoin:round" />
    <path
       d="M 36.041996,101.54068 H 341.71128 V 437.19421 H 36.041996 Z"
       id="path11"
       inkscape:connector-curvature="0"
       style="fill:#d9d9d9;fill-rule:evenodd" />
    <path
       d="M 36.041996,101.54068 H 341.71128 V 437.19421 H 36.041996 Z"
       id="path13"
       inkscape:connector-curvature="0"
       style="fill-rule:evenodd;stroke:#073763;stroke-width:3;stroke-linecap:butt;stroke-linejoin:round" />
    <path
       d="M 51.007874,154.45407 H 160.3307 v 57.82677 H 51.007874 Z"
       id="path15"
       inkscape:connector-curvature="0"
       style="fill:#cfe2f3;fill-rule:evenodd" />
    <path
       d="m 92.34947,166.02182 v 9.01562 q 0,1.875 -1.171875,3.07813 -1.171875,1.1875 -3.1875,1.32812 l -0.453125,0.0312 q -2.1875,0 -3.484375,-1.17187 -1.28125,-1.1875 -1.296875,-3.25 v -9.03125 h 1.71875 v 8.98437 q 0,1.4375 0.796875,2.23438 0.796875,0.79687 2.265625,0.79687 1.484375,0 2.265625,-0.78125 0.796875,-0.79687 0.796875,-2.23437 v -9 z m 8.23804,10.65625 q 0,-0.6875 -0.51563,-1.0625 -0.515623,-0.375 -1.796873,-0.64063 -1.28125,-0.28125 -2.03125,-0.65625 -0.75,-0.39062 -1.109375,-0.92187 -0.359375,-0.53125 -0.359375,-1.26563 0,-1.20312 1.015625,-2.03125 1.03125,-0.84375 2.625,-0.84375 1.671878,0 2.718748,0.85938 1.04688,0.85937 1.04688,2.21875 h -1.6875 q 0,-0.70313 -0.593753,-1.20313 -0.59375,-0.5 -1.484375,-0.5 -0.921875,0 -1.4375,0.40625 -0.515625,0.39063 -0.515625,1.04688 0,0.60937 0.484375,0.92187 0.484375,0.3125 1.734375,0.59375 1.265625,0.28125 2.046873,0.67188 0.78125,0.39062 1.15625,0.9375 0.39063,0.54687 0.39063,1.34375 0,1.32812 -1.0625,2.125 -1.04688,0.79687 -2.734378,0.79687 -1.1875,0 -2.109375,-0.42187 -0.90625,-0.42188 -1.421875,-1.17188 -0.515625,-0.75 -0.515625,-1.625 h 1.6875 q 0.04687,0.84375 0.671875,1.34375 0.640625,0.5 1.6875,0.5 0.953125,0 1.531248,-0.39062 0.57813,-0.39063 0.57813,-1.03125 z m 7.96338,2.79687 q -2,0 -3.26563,-1.3125 -1.25,-1.32812 -1.25,-3.53125 v -0.3125 q 0,-1.46875 0.5625,-2.60937 0.5625,-1.15625 1.5625,-1.79688 1.01563,-0.65625 2.1875,-0.65625 1.92188,0 2.98438,1.26563 1.0625,1.26562 1.0625,3.625 v 0.6875 h -6.67188 q 0.0312,1.46875 0.84375,2.375 0.82813,0.89062 2.07813,0.89062 0.89062,0 1.51562,-0.35937 0.625,-0.375 1.07813,-0.96875 l 1.03125,0.79687 q -1.23438,1.90625 -3.71875,1.90625 z m -0.20313,-8.84375 q -1.01562,0 -1.71875,0.75 -0.6875,0.73438 -0.84375,2.07813 h 4.9375 v -0.125 q -0.0781,-1.28125 -0.70312,-1.98438 -0.60938,-0.71875 -1.67188,-0.71875 z m 10.77443,0.3125 q -0.39062,-0.0625 -0.84375,-0.0625 -1.65625,0 -2.25,1.40625 v 7 h -1.67187 v -9.85937 h 1.64062 l 0.0156,1.14062 q 0.82812,-1.3125 2.35937,-1.3125 0.48438,0 0.75,0.125 z m 6.90663,8.34375 h -1.6875 v -11.23437 l -3.40625,1.25 v -1.53125 l 4.82813,-1.8125 h 0.26562 z"
       id="path17"
       inkscape:connector-curvature="0"
       style="fill:#434343;fill-rule:nonzero" />
    <path
       d="m 73.22325,196.09995 v 5.1875 H 71.488875 V 188.02182 H 76.3795 q 2.171875,0 3.40625,1.10938 1.234375,1.10937 1.234375,2.95312 0,1.92188 -1.21875,2.96875 -1.203125,1.04688 -3.453125,1.04688 z m 0,-1.4375 h 3.15625 q 1.390625,0 2.140625,-0.65625 0.75,-0.65625 0.75,-1.90625 0,-1.1875 -0.75,-1.89063 -0.75,-0.71875 -2.046875,-0.75 h -3.25 z m 14.535095,-1.71875 q -0.390625,-0.0625 -0.84375,-0.0625 -1.65625,0 -2.25,1.40625 v 7 H 82.99272 v -9.85938 h 1.640625 l 0.01563,1.14063 q 0.828125,-1.3125 2.359375,-1.3125 0.484375,0 0.75,0.125 z m 0.911835,3.32812 q 0,-1.45312 0.5625,-2.60937 0.578125,-1.15625 1.59375,-1.78125 1.015625,-0.625 2.3125,-0.625 2.015625,0 3.25,1.39062 1.25,1.39063 1.25,3.70313 v 0.125 q 0,1.4375 -0.546875,2.57812 -0.546875,1.14063 -1.578125,1.78125 -1.015625,0.64063 -2.359375,0.64063 -2,0 -3.25,-1.39063 -1.234375,-1.40625 -1.234375,-3.70312 z m 1.6875,0.20313 q 0,1.64062 0.765625,2.64062 0.765625,0.98438 2.03125,0.98438 1.296875,0 2.046875,-1 0.75,-1.01563 0.75,-2.82813 0,-1.625 -0.765625,-2.625 -0.765625,-1.01562 -2.046875,-1.01562 -1.25,0 -2.015625,1 -0.765625,0.98437 -0.765625,2.84375 z m 8.999268,-0.20313 q 0,-2.29687 1.062502,-3.65625 1.0625,-1.35937 2.82812,-1.35937 1.79688,0 2.8125,1.26562 l 0.0781,-1.09375 h 1.54687 v 9.625 q 0,1.90625 -1.14062,3 -1.125,1.10938 -3.04688,1.10938 -1.0625,0 -2.09375,-0.45313 -1.01562,-0.45312 -1.546872,-1.25 l 0.875002,-1 q 1.07812,1.32813 2.65625,1.32813 1.21875,0 1.90625,-0.6875 0.6875,-0.6875 0.6875,-1.95313 v -0.84375 q -1,1.17188 -2.75,1.17188 -1.73438,0 -2.8125,-1.39063 -1.062502,-1.40625 -1.062502,-3.8125 z m 1.687502,0.20313 q 0,1.65625 0.6875,2.60937 0.6875,0.95313 1.92187,0.95313 1.59375,0 2.32813,-1.45313 v -4.5 q -0.76563,-1.40625 -2.3125,-1.40625 -1.23438,0 -1.9375,0.95313 -0.6875,0.95312 -0.6875,2.84375 z m 13.95118,-3.53125 q -0.39062,-0.0625 -0.84375,-0.0625 -1.65625,0 -2.25,1.40625 v 7 h -1.67187 v -9.85938 h 1.64062 l 0.0156,1.14063 q 0.82812,-1.3125 2.35937,-1.3125 0.48438,0 0.75,0.125 z m 7.26081,8.34375 q -0.14063,-0.29688 -0.23438,-1.03125 -1.17187,1.21875 -2.8125,1.21875 -1.45312,0 -2.39062,-0.82813 -0.92188,-0.82812 -0.92188,-2.09375 0,-1.53125 1.15625,-2.375 1.17188,-0.85937 3.29688,-0.85937 h 1.64062 v -0.78125 q 0,-0.89063 -0.53125,-1.40625 -0.51562,-0.53125 -1.54687,-0.53125 -0.90625,0 -1.51563,0.46875 -0.60937,0.45312 -0.60937,1.09375 h -1.70313 q 0,-0.73438 0.51563,-1.42188 0.53125,-0.6875 1.42187,-1.07812 0.90625,-0.40625 1.98438,-0.40625 1.70312,0 2.67187,0.85937 0.96875,0.84375 1,2.32813 v 4.53125 q 0,1.35937 0.34375,2.17187 v 0.14063 z m -2.79688,-1.28125 q 0.79688,0 1.5,-0.40625 0.71875,-0.42188 1.03125,-1.07813 v -2.01562 h -1.3125 q -3.10937,0 -3.10937,1.8125 0,0.79687 0.53125,1.25 0.53125,0.4375 1.35937,0.4375 z m 8.44486,-8.57813 0.0469,1.09375 q 1.07813,-1.26562 2.92188,-1.26562 2.0625,0 2.8125,1.57812 0.5,-0.71875 1.28125,-1.14062 0.79687,-0.4375 1.85937,-0.4375 3.25,0 3.29688,3.42187 v 6.60938 h -1.67188 v -6.5 q 0,-1.0625 -0.48437,-1.57813 -0.48438,-0.53125 -1.625,-0.53125 -0.9375,0 -1.5625,0.5625 -0.60938,0.5625 -0.71875,1.5 v 6.54688 h -1.6875 v -6.45313 q 0,-2.15625 -2.10938,-2.15625 -1.65625,0 -2.26562,1.40625 v 7.20313 h -1.6875 v -9.85938 z"
       id="path19"
       inkscape:connector-curvature="0"
       style="fill:#434343;fill-rule:nonzero" />
    <path
       d="m 178.79002,154.45407 h 115.24409 v 57.82677 H 178.79002 Z"
       id="path21"
       inkscape:connector-curvature="0"
       style="fill:#cfe2f3;fill-rule:evenodd" />
    <path
       d="m 195.15776,181.9437 q -0.39063,-0.0625 -0.84375,-0.0625 -1.65625,0 -2.25,1.40625 v 7 h -1.67188 v -9.85938 h 1.64063 l 0.0156,1.14063 q 0.82813,-1.3125 2.35938,-1.3125 0.48437,0 0.75,0.125 z m 7.62538,7.375 q -0.98437,1.15625 -2.89062,1.15625 -1.57813,0 -2.40625,-0.92188 -0.8125,-0.92187 -0.82813,-2.70312 v -6.42188 h 1.6875 v 6.375 q 0,2.23438 1.82813,2.23438 1.92187,0 2.5625,-1.4375 v -7.17188 h 1.6875 v 9.85938 h -1.60938 z m 5.80025,-8.89063 0.0469,1.23438 q 1.125,-1.40625 2.95313,-1.40625 3.125,0 3.15625,3.51562 v 6.51563 h -1.6875 v -6.51563 q -0.0156,-1.07812 -0.5,-1.57812 -0.46875,-0.51563 -1.48438,-0.51563 -0.8125,0 -1.4375,0.4375 -0.60937,0.4375 -0.96875,1.15625 v 7.01563 h -1.67187 v -9.85938 z m 8.63748,4.46875 q 0,-2.04687 0.54688,-3.9375 0.54687,-1.90625 1.64062,-3.45312 1.09375,-1.54688 2.26563,-2.1875 l 0.34375,1.10937 q -1.32813,1.03125 -2.1875,3.125 -0.84375,2.09375 -0.92188,4.6875 l -0.0156,0.76563 q 0,3.51562 1.29687,6.10937 0.76563,1.54688 1.82813,2.42188 l -0.34375,1.03125 q -1.20313,-0.67188 -2.3125,-2.26563 -2.14063,-3.09375 -2.14063,-7.40625 z m 8.26727,5.39063 h -1.6875 v -9.85938 h 1.6875 z m -1.82812,-12.46875 q 0,-0.40625 0.25,-0.6875 0.25,-0.29688 0.73437,-0.29688 0.5,0 0.75,0.29688 0.26563,0.28125 0.26563,0.6875 0,0.40625 -0.26563,0.6875 -0.25,0.26562 -0.75,0.26562 -0.48437,0 -0.73437,-0.26562 -0.25,-0.28125 -0.25,-0.6875 z m 6.10554,2.60937 0.0469,1.09375 q 1.07812,-1.26562 2.92187,-1.26562 2.0625,0 2.8125,1.57812 0.5,-0.71875 1.28125,-1.14062 0.79688,-0.4375 1.85938,-0.4375 3.25,0 3.29687,3.42187 v 6.60938 h -1.67187 v -6.5 q 0,-1.0625 -0.48438,-1.57813 -0.48437,-0.53125 -1.625,-0.53125 -0.9375,0 -1.5625,0.5625 -0.60937,0.5625 -0.71875,1.5 v 6.54688 h -1.6875 v -6.45313 q 0,-2.15625 -2.10937,-2.15625 -1.65625,0 -2.26563,1.40625 v 7.20313 h -1.6875 v -9.85938 z m 23.08593,5.04688 q 0,2.25 -1.03125,3.625 -1.01563,1.375 -2.78125,1.375 -1.79688,0 -2.82813,-1.14063 v 4.75 h -1.67187 v -13.65625 h 1.53125 l 0.0781,1.09375 q 1.03125,-1.26562 2.85938,-1.26562 1.78125,0 2.8125,1.34375 1.03125,1.32812 1.03125,3.71875 z m -1.67188,-0.20313 q 0,-1.65625 -0.71875,-2.625 -0.70312,-0.96875 -1.95312,-0.96875 -1.53125,0 -2.29688,1.35938 v 4.70312 q 0.76563,1.35938 2.32813,1.35938 1.20312,0 1.92187,-0.95313 0.71875,-0.96875 0.71875,-2.875 z m 3.37306,0 q 0,-1.45312 0.5625,-2.60937 0.57813,-1.15625 1.59375,-1.78125 1.01563,-0.625 2.3125,-0.625 2.01563,0 3.25,1.39062 1.25,1.39063 1.25,3.70313 v 0.125 q 0,1.4375 -0.54687,2.57812 -0.54688,1.14063 -1.57813,1.78125 -1.01562,0.64063 -2.35937,0.64063 -2,0 -3.25,-1.39063 -1.23438,-1.40625 -1.23438,-3.70312 z m 1.6875,0.20313 q 0,1.64062 0.76563,2.64062 0.76562,0.98438 2.03125,0.98438 1.29687,0 2.04687,-1 0.75,-1.01563 0.75,-2.82813 0,-1.625 -0.76562,-2.625 -0.76563,-1.01562 -2.04688,-1.01562 -1.25,0 -2.01562,1 -0.76563,0.98437 -0.76563,2.84375 z m 14.17115,-3.53125 q -0.39063,-0.0625 -0.84375,-0.0625 -1.65625,0 -2.25,1.40625 v 7 h -1.67188 v -9.85938 h 1.64063 l 0.0156,1.14063 q 0.82813,-1.3125 2.35938,-1.3125 0.48437,0 0.75,0.125 z m 4.28424,-3.90625 v 2.39062 h 1.84375 v 1.3125 h -1.84375 v 6.10938 q 0,0.59375 0.23437,0.89062 0.25,0.29688 0.84375,0.29688 0.29688,0 0.8125,-0.10938 v 1.35938 q -0.67187,0.1875 -1.29687,0.1875 -1.125,0 -1.70313,-0.6875 -0.57812,-0.6875 -0.57812,-1.9375 v -6.10938 h -1.79688 v -1.3125 h 1.79688 v -2.39062 z m 7.70361,6.95312 q 0,2.03125 -0.54688,3.90625 -0.53125,1.85938 -1.625,3.42188 -1.09375,1.57812 -2.29687,2.25 l -0.35938,-1.03125 q 1.40625,-1.07813 2.25,-3.32813 0.85938,-2.26562 0.875,-5.03125 v -0.29687 q 0,-1.90625 -0.40625,-3.54688 -0.39062,-1.65625 -1.10937,-2.95312 -0.71875,-1.29688 -1.60938,-2.03125 l 0.35938,-1.03125 q 1.20312,0.67187 2.28125,2.23437 1.09375,1.54688 1.64062,3.42188 0.54688,1.875 0.54688,4.01562 z"
       id="path23"
       inkscape:connector-curvature="0"
       style="fill:#434343;fill-rule:nonzero" />
    <path
       d="m 160.3307,183.36745 h 18.4567"
       id="path25"
       inkscape:connector-curvature="0"
       style="fill:#000000;fill-opacity:0;fill-rule:evenodd" />
    <path
       d="m 160.3307,183.36745 h 12.4567"
       id="path27"
       inkscape:connector-curvature="0"
       style="fill-rule:evenodd;stroke:#000000;stroke-width:1;stroke-linecap:butt;stroke-linejoin:round" />
    <path
       d="m 172.7874,185.01918 4.5381,-1.65173 -4.5381,-1.65172 z"
       id="path29"
       inkscape:connector-curvature="0"
       style="fill:#000000;fill-rule:evenodd;stroke:#000000;stroke-width:1;stroke-linecap:butt" />
    <path
       d="m 389.8426,200.08923 h 96.44095 v 57.82678 H 389.8426 Z"
       id="path31"
       inkscape:connector-curvature="0"
       style="fill:#f4cccc;fill-rule:evenodd" />
    <path
       d="m 407.26514,233.31325 q 0,-0.6875 -0.51563,-1.0625 -0.51562,-0.375 -1.79687,-0.64063 -1.28125,-0.28125 -2.03125,-0.65625 -0.75,-0.39062 -1.10938,-0.92187 -0.35937,-0.53125 -0.35937,-1.26563 0,-1.20312 1.01562,-2.03125 1.03125,-0.84375 2.625,-0.84375 1.67188,0 2.71875,0.85938 1.04688,0.85937 1.04688,2.21875 h -1.6875 q 0,-0.70313 -0.59375,-1.20313 -0.59375,-0.5 -1.48438,-0.5 -0.92187,0 -1.4375,0.40625 -0.51562,0.39063 -0.51562,1.04688 0,0.60937 0.48437,0.92187 0.48438,0.3125 1.73438,0.59375 1.26562,0.28125 2.04687,0.67188 0.78125,0.39062 1.15625,0.9375 0.39063,0.54687 0.39063,1.34375 0,1.32812 -1.0625,2.125 -1.04688,0.79687 -2.73438,0.79687 -1.1875,0 -2.10937,-0.42187 -0.90625,-0.42188 -1.42188,-1.17188 -0.51562,-0.75 -0.51562,-1.625 h 1.6875 q 0.0469,0.84375 0.67187,1.34375 0.64063,0.5 1.6875,0.5 0.95313,0 1.53125,-0.39062 0.57813,-0.39063 0.57813,-1.03125 z m 7.83838,1.42187 q 0.89062,0 1.5625,-0.54687 0.6875,-0.54688 0.75,-1.375 h 1.59375 q -0.0469,0.84375 -0.57813,1.60937 -0.53125,0.76563 -1.4375,1.23438 -0.89062,0.45312 -1.89062,0.45312 -2.01563,0 -3.20313,-1.34375 -1.1875,-1.34375 -1.1875,-3.6875 v -0.28125 q 0,-1.4375 0.51563,-2.54687 0.53125,-1.125 1.51562,-1.73438 1,-0.625 2.34375,-0.625 1.65625,0 2.75,1 1.10938,0.98438 1.17188,2.5625 h -1.59375 q -0.0625,-0.95312 -0.71875,-1.5625 -0.65625,-0.625 -1.60938,-0.625 -1.28125,0 -2,0.92188 -0.70312,0.92187 -0.70312,2.67187 v 0.32813 q 0,1.70312 0.70312,2.625 0.70313,0.92187 2.01563,0.92187 z m 9.31225,-3.76562 h -4.4375 v -1.375 h 4.4375 z m 7.38126,2.34375 q 0,-0.6875 -0.51562,-1.0625 -0.51563,-0.375 -1.79688,-0.64063 -1.28125,-0.28125 -2.03125,-0.65625 -0.75,-0.39062 -1.10937,-0.92187 -0.35938,-0.53125 -0.35938,-1.26563 0,-1.20312 1.01563,-2.03125 1.03125,-0.84375 2.625,-0.84375 1.67187,0 2.71875,0.85938 1.04687,0.85937 1.04687,2.21875 h -1.6875 q 0,-0.70313 -0.59375,-1.20313 -0.59375,-0.5 -1.48437,-0.5 -0.92188,0 -1.4375,0.40625 -0.51563,0.39063 -0.51563,1.04688 0,0.60937 0.48438,0.92187 0.48437,0.3125 1.73437,0.59375 1.26563,0.28125 2.04688,0.67188 0.78125,0.39062 1.15625,0.9375 0.39062,0.54687 0.39062,1.34375 0,1.32812 -1.0625,2.125 -1.04687,0.79687 -2.73437,0.79687 -1.1875,0 -2.10938,-0.42187 -0.90625,-0.42188 -1.42187,-1.17188 -0.51563,-0.75 -0.51563,-1.625 h 1.6875 q 0.0469,0.84375 0.67188,1.34375 0.64062,0.5 1.6875,0.5 0.95312,0 1.53125,-0.39062 0.57812,-0.39063 0.57812,-1.03125 z m 7.96338,2.79687 q -2,0 -3.26563,-1.3125 -1.25,-1.32812 -1.25,-3.53125 v -0.3125 q 0,-1.46875 0.5625,-2.60937 0.5625,-1.15625 1.5625,-1.79688 1.01563,-0.65625 2.1875,-0.65625 1.92188,0 2.98438,1.26563 1.0625,1.26562 1.0625,3.625 v 0.6875 h -6.67188 q 0.0312,1.46875 0.84375,2.375 0.82813,0.89062 2.07813,0.89062 0.89062,0 1.51562,-0.35937 0.625,-0.375 1.07813,-0.96875 l 1.03125,0.79687 q -1.23438,1.90625 -3.71875,1.90625 z m -0.20313,-8.84375 q -1.01562,0 -1.71875,0.75 -0.6875,0.73438 -0.84375,2.07813 h 4.9375 v -0.125 q -0.0781,-1.28125 -0.70312,-1.98438 -0.60938,-0.71875 -1.67188,-0.71875 z m 10.77442,0.3125 q -0.39063,-0.0625 -0.84375,-0.0625 -1.65625,0 -2.25,1.40625 v 7 h -1.67188 v -9.85937 h 1.64063 l 0.0156,1.14062 q 0.82813,-1.3125 2.35938,-1.3125 0.48437,0 0.75,0.125 z m 4.96133,6.0625 2.4375,-7.57812 h 1.71875 l -3.53125,9.85937 h -1.28125 l -3.57812,-9.85937 h 1.71875 z m 9.74625,2.46875 q -2,0 -3.26563,-1.3125 -1.25,-1.32812 -1.25,-3.53125 v -0.3125 q 0,-1.46875 0.5625,-2.60937 0.5625,-1.15625 1.5625,-1.79688 1.01563,-0.65625 2.1875,-0.65625 1.92188,0 2.98438,1.26563 1.0625,1.26562 1.0625,3.625 v 0.6875 h -6.67188 q 0.0312,1.46875 0.84375,2.375 0.82813,0.89062 2.07813,0.89062 0.89062,0 1.51562,-0.35937 0.625,-0.375 1.07813,-0.96875 l 1.03125,0.79687 q -1.23438,1.90625 -3.71875,1.90625 z m -0.20313,-8.84375 q -1.01562,0 -1.71875,0.75 -0.6875,0.73438 -0.84375,2.07813 h 4.9375 v -0.125 q -0.0781,-1.28125 -0.70312,-1.98438 -0.60938,-0.71875 -1.67188,-0.71875 z m 10.77445,0.3125 q -0.39063,-0.0625 -0.84375,-0.0625 -1.65625,0 -2.25,1.40625 v 7 h -1.67188 v -9.85937 h 1.64063 l 0.0156,1.14062 q 0.82813,-1.3125 2.35938,-1.3125 0.48437,0 0.75,0.125 z"
       id="path33"
       inkscape:connector-curvature="0"
       style="fill:#434343;fill-rule:nonzero" />
    <path
       d="M 51.007874,240.08792 H 160.3307 V 297.9147 H 51.007874 Z"
       id="path35"
       inkscape:connector-curvature="0"
       style="fill:#9fc5e8;fill-rule:evenodd" />
    <path
       d="m 92.34947,251.65569 v 9.01561 q 0,1.875 -1.171875,3.07812 -1.171875,1.1875 -3.1875,1.32813 l -0.453125,0.0312 q -2.1875,0 -3.484375,-1.17188 -1.28125,-1.1875 -1.296875,-3.25 v -9.03123 h 1.71875 V 260.64 q 0,1.4375 0.796875,2.23437 0.796875,0.79688 2.265625,0.79688 1.484375,0 2.265625,-0.78125 0.796875,-0.79688 0.796875,-2.23438 v -8.99998 z m 8.23804,10.65623 q 0,-0.6875 -0.51563,-1.0625 -0.515623,-0.375 -1.796873,-0.64062 -1.28125,-0.28125 -2.03125,-0.65625 -0.75,-0.39063 -1.109375,-0.92188 -0.359375,-0.53125 -0.359375,-1.26562 0,-1.20313 1.015625,-2.03123 1.03125,-0.84375 2.625,-0.84375 1.671878,0 2.718748,0.85937 1.04688,0.85936 1.04688,2.21873 h -1.6875 q 0,-0.70312 -0.593753,-1.20312 -0.59375,-0.5 -1.484375,-0.5 -0.921875,0 -1.4375,0.40625 -0.515625,0.39062 -0.515625,1.04687 0,0.60938 0.484375,0.92188 0.484375,0.3125 1.734375,0.59375 1.265625,0.28125 2.046873,0.67187 0.78125,0.39063 1.15625,0.9375 0.39063,0.54688 0.39063,1.34375 0,1.32813 -1.0625,2.125 -1.04688,0.79688 -2.734378,0.79688 -1.1875,0 -2.109375,-0.42188 -0.90625,-0.42187 -1.421875,-1.17187 -0.515625,-0.75 -0.515625,-1.625 h 1.6875 q 0.04687,0.84375 0.671875,1.34375 0.640625,0.5 1.6875,0.5 0.953125,0 1.531248,-0.39063 0.57813,-0.39062 0.57813,-1.03125 z m 7.96338,2.79688 q -2,0 -3.26563,-1.3125 -1.25,-1.32813 -1.25,-3.53125 v -0.3125 q 0,-1.46875 0.5625,-2.60938 0.5625,-1.15625 1.5625,-1.79685 1.01563,-0.65625 2.1875,-0.65625 1.92188,0 2.98438,1.2656 1.0625,1.26563 1.0625,3.625 v 0.6875 h -6.67188 q 0.0312,1.46875 0.84375,2.375 0.82813,0.89063 2.07813,0.89063 0.89062,0 1.51562,-0.35938 0.625,-0.375 1.07813,-0.96875 l 1.03125,0.79688 q -1.23438,1.90625 -3.71875,1.90625 z m -0.20313,-8.84375 q -1.01562,0 -1.71875,0.75 -0.6875,0.73437 -0.84375,2.07812 h 4.9375 v -0.125 q -0.0781,-1.28125 -0.70312,-1.98437 -0.60938,-0.71875 -1.67188,-0.71875 z m 10.77443,0.3125 q -0.39062,-0.0625 -0.84375,-0.0625 -1.65625,0 -2.25,1.40625 v 7 h -1.67187 v -9.85936 h 1.64062 l 0.0156,1.14061 q 0.82812,-1.31249 2.35937,-1.31249 0.48438,0 0.75,0.125 z m 10.06288,8.34375 h -8.6875 v -1.21875 l 4.57813,-5.09375 q 1.03125,-1.15625 1.40625,-1.875 0.39062,-0.73436 0.39062,-1.49998 0,-1.04688 -0.625,-1.70313 -0.625,-0.67187 -1.67187,-0.67187 -1.26563,0 -1.96875,0.71875 -0.6875,0.71875 -0.6875,1.98437 h -1.6875 q 0,-1.82812 1.17187,-2.95312 1.1875,-1.14063 3.17188,-1.14063 1.84375,0 2.92187,0.98438 1.07813,0.96875 1.07813,2.57812 0,1.95311 -2.5,4.65623 l -3.54688,3.85938 h 6.65625 z"
       id="path37"
       inkscape:connector-curvature="0"
       style="fill:#434343;fill-rule:nonzero" />
    <path
       d="m 73.22325,281.7338 v 5.1875 H 71.488875 V 273.65567 H 76.3795 q 2.171875,0 3.40625,1.10938 1.234375,1.10937 1.234375,2.95312 0,1.92188 -1.21875,2.96875 -1.203125,1.04688 -3.453125,1.04688 z m 0,-1.4375 h 3.15625 q 1.390625,0 2.140625,-0.65625 0.75,-0.65625 0.75,-1.90625 0,-1.1875 -0.75,-1.89063 -0.75,-0.71875 -2.046875,-0.75 h -3.25 z m 14.535095,-1.71875 q -0.390625,-0.0625 -0.84375,-0.0625 -1.65625,0 -2.25,1.40625 v 7 H 82.99272 v -9.85938 h 1.640625 l 0.01563,1.14063 q 0.828125,-1.3125 2.359375,-1.3125 0.484375,0 0.75,0.125 z m 0.911835,3.32812 q 0,-1.45312 0.5625,-2.60937 0.578125,-1.15625 1.59375,-1.78125 1.015625,-0.625 2.3125,-0.625 2.015625,0 3.25,1.39062 1.25,1.39063 1.25,3.70313 v 0.125 q 0,1.4375 -0.546875,2.57812 -0.546875,1.14063 -1.578125,1.78125 -1.015625,0.64063 -2.359375,0.64063 -2,0 -3.25,-1.39063 -1.234375,-1.40625 -1.234375,-3.70312 z m 1.6875,0.20313 q 0,1.64062 0.765625,2.64062 0.765625,0.98438 2.03125,0.98438 1.296875,0 2.046875,-1 0.75,-1.01563 0.75,-2.82813 0,-1.625 -0.765625,-2.625 -0.765625,-1.01562 -2.046875,-1.01562 -1.25,0 -2.015625,1 -0.765625,0.98437 -0.765625,2.84375 z m 8.999268,-0.20313 q 0,-2.29687 1.062502,-3.65625 1.0625,-1.35937 2.82812,-1.35937 1.79688,0 2.8125,1.26562 l 0.0781,-1.09375 h 1.54687 v 9.625 q 0,1.90625 -1.14062,3 -1.125,1.10938 -3.04688,1.10938 -1.0625,0 -2.09375,-0.45313 -1.01562,-0.45312 -1.546872,-1.25 l 0.875002,-1 q 1.07812,1.32813 2.65625,1.32813 1.21875,0 1.90625,-0.6875 0.6875,-0.6875 0.6875,-1.95313 v -0.84375 q -1,1.17188 -2.75,1.17188 -1.73438,0 -2.8125,-1.39063 -1.062502,-1.40625 -1.062502,-3.8125 z m 1.687502,0.20313 q 0,1.65625 0.6875,2.60937 0.6875,0.95313 1.92187,0.95313 1.59375,0 2.32813,-1.45313 v -4.5 q -0.76563,-1.40625 -2.3125,-1.40625 -1.23438,0 -1.9375,0.95313 -0.6875,0.95312 -0.6875,2.84375 z m 13.95118,-3.53125 q -0.39062,-0.0625 -0.84375,-0.0625 -1.65625,0 -2.25,1.40625 v 7 h -1.67187 v -9.85938 h 1.64062 l 0.0156,1.14063 q 0.82812,-1.3125 2.35937,-1.3125 0.48438,0 0.75,0.125 z m 7.26081,8.34375 q -0.14063,-0.29688 -0.23438,-1.03125 -1.17187,1.21875 -2.8125,1.21875 -1.45312,0 -2.39062,-0.82813 -0.92188,-0.82812 -0.92188,-2.09375 0,-1.53125 1.15625,-2.375 1.17188,-0.85937 3.29688,-0.85937 h 1.64062 v -0.78125 q 0,-0.89063 -0.53125,-1.40625 -0.51562,-0.53125 -1.54687,-0.53125 -0.90625,0 -1.51563,0.46875 -0.60937,0.45312 -0.60937,1.09375 h -1.70313 q 0,-0.73438 0.51563,-1.42188 0.53125,-0.6875 1.42187,-1.07812 0.90625,-0.40625 1.98438,-0.40625 1.70312,0 2.67187,0.85937 0.96875,0.84375 1,2.32813 v 4.53125 q 0,1.35937 0.34375,2.17187 v 0.14063 z m -2.79688,-1.28125 q 0.79688,0 1.5,-0.40625 0.71875,-0.42188 1.03125,-1.07813 v -2.01562 h -1.3125 q -3.10937,0 -3.10937,1.8125 0,0.79687 0.53125,1.25 0.53125,0.4375 1.35937,0.4375 z m 8.44486,-8.57813 0.0469,1.09375 q 1.07813,-1.26562 2.92188,-1.26562 2.0625,0 2.8125,1.57812 0.5,-0.71875 1.28125,-1.14062 0.79687,-0.4375 1.85937,-0.4375 3.25,0 3.29688,3.42187 v 6.60938 h -1.67188 v -6.5 q 0,-1.0625 -0.48437,-1.57813 -0.48438,-0.53125 -1.625,-0.53125 -0.9375,0 -1.5625,0.5625 -0.60938,0.5625 -0.71875,1.5 v 6.54688 h -1.6875 v -6.45313 q 0,-2.15625 -2.10938,-2.15625 -1.65625,0 -2.26562,1.40625 v 7.20313 h -1.6875 v -9.85938 z"
       id="path39"
       inkscape:connector-curvature="0"
       style="fill:#434343;fill-rule:nonzero" />
    <path
       d="M 178.79002,240.08792 H 294.03411 V 297.9147 H 178.79002 Z"
       id="path41"
       inkscape:connector-curvature="0"
       style="fill:#9fc5e8;fill-rule:evenodd" />
    <path
       d="m 195.15776,267.57755 q -0.39063,-0.0625 -0.84375,-0.0625 -1.65625,0 -2.25,1.40625 v 7 h -1.67188 v -9.85938 h 1.64063 l 0.0156,1.14063 q 0.82813,-1.3125 2.35938,-1.3125 0.48437,0 0.75,0.125 z m 7.62538,7.375 q -0.98437,1.15625 -2.89062,1.15625 -1.57813,0 -2.40625,-0.92188 -0.8125,-0.92187 -0.82813,-2.70312 v -6.42188 h 1.6875 v 6.375 q 0,2.23438 1.82813,2.23438 1.92187,0 2.5625,-1.4375 v -7.17188 h 1.6875 v 9.85938 h -1.60938 z m 5.80025,-8.89063 0.0469,1.23438 q 1.125,-1.40625 2.95313,-1.40625 3.125,0 3.15625,3.51562 v 6.51563 h -1.6875 v -6.51563 q -0.0156,-1.07812 -0.5,-1.57812 -0.46875,-0.51563 -1.48438,-0.51563 -0.8125,0 -1.4375,0.4375 -0.60937,0.4375 -0.96875,1.15625 v 7.01563 h -1.67187 v -9.85938 z m 8.63748,4.46875 q 0,-2.04687 0.54688,-3.9375 0.54687,-1.90625 1.64062,-3.45312 1.09375,-1.54688 2.26563,-2.1875 l 0.34375,1.10937 q -1.32813,1.03125 -2.1875,3.125 -0.84375,2.09375 -0.92188,4.6875 l -0.0156,0.76563 q 0,3.51562 1.29687,6.10937 0.76563,1.54688 1.82813,2.42188 l -0.34375,1.03125 q -1.20313,-0.67188 -2.3125,-2.26563 -2.14063,-3.09375 -2.14063,-7.40625 z m 8.26727,5.39063 h -1.6875 v -9.85938 h 1.6875 z m -1.82812,-12.46875 q 0,-0.40625 0.25,-0.6875 0.25,-0.29688 0.73437,-0.29688 0.5,0 0.75,0.29688 0.26563,0.28125 0.26563,0.6875 0,0.40625 -0.26563,0.6875 -0.25,0.26562 -0.75,0.26562 -0.48437,0 -0.73437,-0.26562 -0.25,-0.28125 -0.25,-0.6875 z m 6.10554,2.60937 0.0469,1.09375 q 1.07812,-1.26562 2.92187,-1.26562 2.0625,0 2.8125,1.57812 0.5,-0.71875 1.28125,-1.14062 0.79688,-0.4375 1.85938,-0.4375 3.25,0 3.29687,3.42187 v 6.60938 h -1.67187 v -6.5 q 0,-1.0625 -0.48438,-1.57813 -0.48437,-0.53125 -1.625,-0.53125 -0.9375,0 -1.5625,0.5625 -0.60937,0.5625 -0.71875,1.5 v 6.54688 h -1.6875 v -6.45313 q 0,-2.15625 -2.10937,-2.15625 -1.65625,0 -2.26563,1.40625 v 7.20313 h -1.6875 v -9.85938 z m 23.08593,5.04688 q 0,2.25 -1.03125,3.625 -1.01563,1.375 -2.78125,1.375 -1.79688,0 -2.82813,-1.14063 v 4.75 h -1.67187 v -13.65625 h 1.53125 l 0.0781,1.09375 q 1.03125,-1.26562 2.85938,-1.26562 1.78125,0 2.8125,1.34375 1.03125,1.32812 1.03125,3.71875 z m -1.67188,-0.20313 q 0,-1.65625 -0.71875,-2.625 -0.70312,-0.96875 -1.95312,-0.96875 -1.53125,0 -2.29688,1.35938 v 4.70312 q 0.76563,1.35938 2.32813,1.35938 1.20312,0 1.92187,-0.95313 0.71875,-0.96875 0.71875,-2.875 z m 3.37306,0 q 0,-1.45312 0.5625,-2.60937 0.57813,-1.15625 1.59375,-1.78125 1.01563,-0.625 2.3125,-0.625 2.01563,0 3.25,1.39062 1.25,1.39063 1.25,3.70313 v 0.125 q 0,1.4375 -0.54687,2.57812 -0.54688,1.14063 -1.57813,1.78125 -1.01562,0.64063 -2.35937,0.64063 -2,0 -3.25,-1.39063 -1.23438,-1.40625 -1.23438,-3.70312 z m 1.6875,0.20313 q 0,1.64062 0.76563,2.64062 0.76562,0.98438 2.03125,0.98438 1.29687,0 2.04687,-1 0.75,-1.01563 0.75,-2.82813 0,-1.625 -0.76562,-2.625 -0.76563,-1.01562 -2.04688,-1.01562 -1.25,0 -2.01562,1 -0.76563,0.98437 -0.76563,2.84375 z m 14.17115,-3.53125 q -0.39063,-0.0625 -0.84375,-0.0625 -1.65625,0 -2.25,1.40625 v 7 h -1.67188 v -9.85938 h 1.64063 l 0.0156,1.14063 q 0.82813,-1.3125 2.35938,-1.3125 0.48437,0 0.75,0.125 z m 4.28424,-3.90625 v 2.39062 h 1.84375 v 1.3125 h -1.84375 v 6.10938 q 0,0.59375 0.23437,0.89062 0.25,0.29688 0.84375,0.29688 0.29688,0 0.8125,-0.10938 v 1.35938 q -0.67187,0.1875 -1.29687,0.1875 -1.125,0 -1.70313,-0.6875 -0.57812,-0.6875 -0.57812,-1.9375 v -6.10938 h -1.79688 v -1.3125 h 1.79688 v -2.39062 z m 7.70361,6.95312 q 0,2.03125 -0.54688,3.90625 -0.53125,1.85938 -1.625,3.42188 -1.09375,1.57812 -2.29687,2.25 l -0.35938,-1.03125 q 1.40625,-1.07813 2.25,-3.32813 0.85938,-2.26562 0.875,-5.03125 v -0.29687 q 0,-1.90625 -0.40625,-3.54688 -0.39062,-1.65625 -1.10937,-2.95312 -0.71875,-1.29688 -1.60938,-2.03125 l 0.35938,-1.03125 q 1.20312,0.67187 2.28125,2.23437 1.09375,1.54688 1.64062,3.42188 0.54688,1.875 0.54688,4.01562 z"
       id="path43"
       inkscape:connector-curvature="0"
       style="fill:#434343;fill-rule:nonzero" />
    <path
       d="m 160.3307,269.0013 h 18.4567"
       id="path45"
       inkscape:connector-curvature="0"
       style="fill:#000000;fill-opacity:0;fill-rule:evenodd" />
    <path
       d="m 160.3307,269.0013 h 12.4567"
       id="path47"
       inkscape:connector-curvature="0"
       style="fill-rule:evenodd;stroke:#000000;stroke-width:1;stroke-linecap:butt;stroke-linejoin:round" />
    <path
       d="m 172.7874,270.65305 4.5381,-1.65173 -4.5381,-1.65174 z"
       id="path49"
       inkscape:connector-curvature="0"
       style="fill:#000000;fill-rule:evenodd;stroke:#000000;stroke-width:1;stroke-linecap:butt" />
    <path
       d="M 51.007874,336.50656 H 160.3307 v 57.82678 H 51.007874 Z"
       id="path51"
       inkscape:connector-curvature="0"
       style="fill:#6fa8dc;fill-rule:evenodd" />
    <path
       d="m 92.34947,348.0743 v 9.01562 q 0,1.875 -1.171875,3.07813 -1.171875,1.1875 -3.1875,1.32812 l -0.453125,0.0312 q -2.1875,0 -3.484375,-1.17187 -1.28125,-1.1875 -1.296875,-3.25 v -9.03125 h 1.71875 v 8.98437 q 0,1.4375 0.796875,2.23438 0.796875,0.79687 2.265625,0.79687 1.484375,0 2.265625,-0.78125 0.796875,-0.79687 0.796875,-2.23437 v -9 z m 8.23804,10.65625 q 0,-0.6875 -0.51563,-1.0625 -0.515623,-0.375 -1.796873,-0.64063 -1.28125,-0.28125 -2.03125,-0.65625 -0.75,-0.39062 -1.109375,-0.92187 -0.359375,-0.53125 -0.359375,-1.26563 0,-1.20312 1.015625,-2.03125 1.03125,-0.84375 2.625,-0.84375 1.671878,0 2.718748,0.85938 1.04688,0.85937 1.04688,2.21875 h -1.6875 q 0,-0.70313 -0.593753,-1.20313 -0.59375,-0.5 -1.484375,-0.5 -0.921875,0 -1.4375,0.40625 -0.515625,0.39063 -0.515625,1.04688 0,0.60937 0.484375,0.92187 0.484375,0.3125 1.734375,0.59375 1.265625,0.28125 2.046873,0.67188 0.78125,0.39062 1.15625,0.9375 0.39063,0.54687 0.39063,1.34375 0,1.32812 -1.0625,2.125 -1.04688,0.79687 -2.734378,0.79687 -1.1875,0 -2.109375,-0.42187 -0.90625,-0.42188 -1.421875,-1.17188 -0.515625,-0.75 -0.515625,-1.625 h 1.6875 q 0.04687,0.84375 0.671875,1.34375 0.640625,0.5 1.6875,0.5 0.953125,0 1.531248,-0.39062 0.57813,-0.39063 0.57813,-1.03125 z m 7.96338,2.79687 q -2,0 -3.26563,-1.3125 -1.25,-1.32812 -1.25,-3.53125 v -0.3125 q 0,-1.46875 0.5625,-2.60937 0.5625,-1.15625 1.5625,-1.79688 1.01563,-0.65625 2.1875,-0.65625 1.92188,0 2.98438,1.26563 1.0625,1.26562 1.0625,3.625 v 0.6875 h -6.67188 q 0.0312,1.46875 0.84375,2.375 0.82813,0.89062 2.07813,0.89062 0.89062,0 1.51562,-0.35937 0.625,-0.375 1.07813,-0.96875 l 1.03125,0.79687 q -1.23438,1.90625 -3.71875,1.90625 z m -0.20313,-8.84375 q -1.01562,0 -1.71875,0.75 -0.6875,0.73438 -0.84375,2.07813 h 4.9375 v -0.125 q -0.0781,-1.28125 -0.70312,-1.98438 -0.60938,-0.71875 -1.67188,-0.71875 z m 10.77443,0.3125 q -0.39062,-0.0625 -0.84375,-0.0625 -1.65625,0 -2.25,1.40625 v 7 h -1.67187 v -9.85937 h 1.64062 l 0.0156,1.14062 q 0.82812,-1.3125 2.35937,-1.3125 0.48438,0 0.75,0.125 z m 3.81288,0.89063 h 1.26563 q 1.20312,-0.0156 1.875,-0.625 0.6875,-0.60938 0.6875,-1.65625 0,-2.32813 -2.3125,-2.32813 -1.09375,0 -1.75,0.625 -0.65625,0.625 -0.65625,1.65625 h -1.6875 q 0,-1.57812 1.15625,-2.625 1.15625,-1.04687 2.9375,-1.04687 1.875,0 2.9375,1 1.0625,1 1.0625,2.76562 0,0.85938 -0.5625,1.67188 -0.5625,0.8125 -1.51563,1.20312 1.09375,0.35938 1.6875,1.15625 0.59375,0.79688 0.59375,1.95313 0,1.79687 -1.17187,2.84375 -1.15625,1.04687 -3.03125,1.04687 -1.85938,0 -3.03125,-1.01562 -1.17188,-1.01563 -1.17188,-2.67188 h 1.6875 q 0,1.04688 0.6875,1.6875 0.6875,0.625 1.82813,0.625 1.21875,0 1.85937,-0.64062 0.65625,-0.64063 0.65625,-1.82813 0,-1.15625 -0.71875,-1.78125 -0.70312,-0.625 -2.04687,-0.64062 h -1.26563 z"
       id="path53"
       inkscape:connector-curvature="0"
       style="fill:#434343;fill-rule:nonzero" />
    <path
       d="m 73.22325,378.15244 v 5.1875 H 71.488875 V 370.07432 H 76.3795 q 2.171875,0 3.40625,1.10937 1.234375,1.10938 1.234375,2.95313 0,1.92187 -1.21875,2.96875 -1.203125,1.04687 -3.453125,1.04687 z m 0,-1.4375 h 3.15625 q 1.390625,0 2.140625,-0.65625 0.75,-0.65625 0.75,-1.90625 0,-1.1875 -0.75,-1.89062 -0.75,-0.71875 -2.046875,-0.75 h -3.25 z m 14.535095,-1.71875 q -0.390625,-0.0625 -0.84375,-0.0625 -1.65625,0 -2.25,1.40625 v 7 H 82.99272 v -9.85937 h 1.640625 l 0.01563,1.14062 q 0.828125,-1.3125 2.359375,-1.3125 0.484375,0 0.75,0.125 z m 0.911835,3.32813 q 0,-1.45313 0.5625,-2.60938 0.578125,-1.15625 1.59375,-1.78125 1.015625,-0.625 2.3125,-0.625 2.015625,0 3.25,1.39063 1.25,1.39062 1.25,3.70312 v 0.125 q 0,1.4375 -0.546875,2.57813 -0.546875,1.14062 -1.578125,1.78125 -1.015625,0.64062 -2.359375,0.64062 -2,0 -3.25,-1.39062 -1.234375,-1.40625 -1.234375,-3.70313 z m 1.6875,0.20312 q 0,1.64063 0.765625,2.64063 0.765625,0.98437 2.03125,0.98437 1.296875,0 2.046875,-1 0.75,-1.01562 0.75,-2.82812 0,-1.625 -0.765625,-2.625 -0.765625,-1.01563 -2.046875,-1.01563 -1.25,0 -2.015625,1 -0.765625,0.98438 -0.765625,2.84375 z m 8.999268,-0.20312 q 0,-2.29688 1.062502,-3.65625 1.0625,-1.35938 2.82812,-1.35938 1.79688,0 2.8125,1.26563 l 0.0781,-1.09375 h 1.54687 v 9.625 q 0,1.90625 -1.14062,3 -1.125,1.10937 -3.04688,1.10937 -1.0625,0 -2.09375,-0.45312 -1.01562,-0.45313 -1.546872,-1.25 l 0.875002,-1 q 1.07812,1.32812 2.65625,1.32812 1.21875,0 1.90625,-0.6875 0.6875,-0.6875 0.6875,-1.95312 v -0.84375 q -1,1.17187 -2.75,1.17187 -1.73438,0 -2.8125,-1.39062 -1.062502,-1.40625 -1.062502,-3.8125 z m 1.687502,0.20312 q 0,1.65625 0.6875,2.60938 0.6875,0.95312 1.92187,0.95312 1.59375,0 2.32813,-1.45312 v -4.5 q -0.76563,-1.40625 -2.3125,-1.40625 -1.23438,0 -1.9375,0.95312 -0.6875,0.95313 -0.6875,2.84375 z m 13.95118,-3.53125 q -0.39062,-0.0625 -0.84375,-0.0625 -1.65625,0 -2.25,1.40625 v 7 h -1.67187 v -9.85937 h 1.64062 l 0.0156,1.14062 q 0.82812,-1.3125 2.35937,-1.3125 0.48438,0 0.75,0.125 z m 7.26081,8.34375 q -0.14063,-0.29687 -0.23438,-1.03125 -1.17187,1.21875 -2.8125,1.21875 -1.45312,0 -2.39062,-0.82812 -0.92188,-0.82813 -0.92188,-2.09375 0,-1.53125 1.15625,-2.375 1.17188,-0.85938 3.29688,-0.85938 h 1.64062 v -0.78125 q 0,-0.89062 -0.53125,-1.40625 -0.51562,-0.53125 -1.54687,-0.53125 -0.90625,0 -1.51563,0.46875 -0.60937,0.45313 -0.60937,1.09375 h -1.70313 q 0,-0.73437 0.51563,-1.42187 0.53125,-0.6875 1.42187,-1.07813 0.90625,-0.40625 1.98438,-0.40625 1.70312,0 2.67187,0.85938 0.96875,0.84375 1,2.32812 v 4.53125 q 0,1.35938 0.34375,2.17188 v 0.14062 z m -2.79688,-1.28125 q 0.79688,0 1.5,-0.40625 0.71875,-0.42187 1.03125,-1.07812 v -2.01563 h -1.3125 q -3.10937,0 -3.10937,1.8125 0,0.79688 0.53125,1.25 0.53125,0.4375 1.35937,0.4375 z m 8.44486,-8.57812 0.0469,1.09375 q 1.07813,-1.26563 2.92188,-1.26563 2.0625,0 2.8125,1.57813 0.5,-0.71875 1.28125,-1.14063 0.79687,-0.4375 1.85937,-0.4375 3.25,0 3.29688,3.42188 v 6.60937 h -1.67188 v -6.5 q 0,-1.0625 -0.48437,-1.57812 -0.48438,-0.53125 -1.625,-0.53125 -0.9375,0 -1.5625,0.5625 -0.60938,0.5625 -0.71875,1.5 v 6.54687 h -1.6875 v -6.45312 q 0,-2.15625 -2.10938,-2.15625 -1.65625,0 -2.26562,1.40625 v 7.20312 h -1.6875 v -9.85937 z"
       id="path55"
       inkscape:connector-curvature="0"
       style="fill:#434343;fill-rule:nonzero" />
    <path
       d="m 178.79002,336.50656 h 115.24409 v 57.82678 H 178.79002 Z"
       id="path57"
       inkscape:connector-curvature="0"
       style="fill:#6fa8dc;fill-rule:evenodd" />
    <path
       d="m 204.95515,363.9962 q -0.39063,-0.0625 -0.84375,-0.0625 -1.65625,0 -2.25,1.40625 v 7 h -1.67188 v -9.85938 h 1.64063 l 0.0156,1.14063 q 0.82813,-1.3125 2.35938,-1.3125 0.48437,0 0.75,0.125 z m 7.62538,7.375 q -0.98437,1.15625 -2.89062,1.15625 -1.57813,0 -2.40625,-0.92188 -0.8125,-0.92187 -0.82813,-2.70312 v -6.42188 h 1.6875 v 6.375 q 0,2.23438 1.82813,2.23438 1.92187,0 2.5625,-1.4375 v -7.17188 h 1.6875 v 9.85938 h -1.60938 z m 5.80025,-8.89063 0.0469,1.23438 q 1.125,-1.40625 2.95313,-1.40625 3.125,0 3.15625,3.51562 v 6.51563 h -1.6875 v -6.51563 q -0.0156,-1.07812 -0.5,-1.57812 -0.46875,-0.51563 -1.48438,-0.51563 -0.8125,0 -1.4375,0.4375 -0.60937,0.4375 -0.96875,1.15625 v 7.01563 h -1.67187 v -9.85938 z m 8.63748,4.46875 q 0,-2.04687 0.54688,-3.9375 0.54687,-1.90625 1.64062,-3.45312 1.09375,-1.54688 2.26563,-2.1875 l 0.34375,1.10937 q -1.32813,1.03125 -2.1875,3.125 -0.84375,2.09375 -0.92188,4.6875 l -0.0156,0.76563 q 0,3.51562 1.29687,6.10937 0.76563,1.54688 1.82813,2.42188 l -0.34375,1.03125 q -1.20313,-0.67188 -2.3125,-2.26563 -2.14063,-3.09375 -2.14063,-7.40625 z m 12.5954,-7.17187 q -1.14063,-0.1875 -1.82813,-0.1875 -1.8125,0 -1.8125,1.92187 v 0.96875 h 2.09375 v 1.3125 h -2.09375 v 8.54688 h -1.6875 v -8.54688 h -1.5625 v -1.3125 h 1.5625 v -1.07812 q 0,-1.5625 0.875,-2.40625 0.875,-0.84375 2.48438,-0.84375 0.92187,0 3.65625,0.5625 v 13.625 h -1.6875 z m 3.98497,7.54687 q 0,-1.45312 0.5625,-2.60937 0.57812,-1.15625 1.59375,-1.78125 1.01562,-0.625 2.3125,-0.625 2.01562,0 3.25,1.39062 1.25,1.39063 1.25,3.70313 v 0.125 q 0,1.4375 -0.54688,2.57812 -0.54687,1.14063 -1.57812,1.78125 -1.01563,0.64063 -2.35938,0.64063 -2,0 -3.25,-1.39063 -1.23437,-1.40625 -1.23437,-3.70312 z m 1.6875,0.20313 q 0,1.64062 0.76562,2.64062 0.76563,0.98438 2.03125,0.98438 1.29688,0 2.04688,-1 0.75,-1.01563 0.75,-2.82813 0,-1.625 -0.76563,-2.625 -0.76562,-1.01562 -2.04687,-1.01562 -1.25,0 -2.01563,1 -0.76562,0.98437 -0.76562,2.84375 z m 18.12427,2.48437 1.89062,-7.53125 h 1.6875 l -2.85937,9.85938 h -1.375 l -2.39063,-7.46875 -2.32812,7.46875 h -1.375 l -2.85938,-9.85938 h 1.67188 l 1.95312,7.375 2.28125,-7.375 h 1.35938 z m 9.19137,-2.96875 q 0,2.03125 -0.54687,3.90625 -0.53125,1.85938 -1.625,3.42188 -1.09375,1.57812 -2.29688,2.25 l -0.35937,-1.03125 q 1.40625,-1.07813 2.25,-3.32813 0.85937,-2.26562 0.875,-5.03125 v -0.29687 q 0,-1.90625 -0.40625,-3.54688 -0.39063,-1.65625 -1.10938,-2.95312 -0.71875,-1.29688 -1.60937,-2.03125 l 0.35937,-1.03125 q 1.20313,0.67187 2.28125,2.23437 1.09375,1.54688 1.64063,3.42188 0.54687,1.875 0.54687,4.01562 z"
       id="path59"
       inkscape:connector-curvature="0"
       style="fill:#434343;fill-rule:nonzero" />
    <path
       d="m 160.3307,365.41995 h 18.4567"
       id="path61"
       inkscape:connector-curvature="0"
       style="fill:#000000;fill-opacity:0;fill-rule:evenodd" />
    <path
       d="m 160.3307,365.41995 h 12.4567"
       id="path63"
       inkscape:connector-curvature="0"
       style="fill-rule:evenodd;stroke:#000000;stroke-width:1;stroke-linecap:butt;stroke-linejoin:round" />
    <path
       d="m 172.7874,367.0717 4.5381,-1.65173 -4.5381,-1.65174 z"
       id="path65"
       inkscape:connector-curvature="0"
       style="fill:#000000;fill-rule:evenodd;stroke:#000000;stroke-width:1;stroke-linecap:butt" />
    <path
       d="m 294.03412,365.41995 h 24.99997 v 53.91333 h -82.60626 v -24.99994"
       id="path67"
       inkscape:connector-curvature="0"
       style="fill:#000000;fill-opacity:0;fill-rule:evenodd" />
    <path
       d="m 300.03412,365.41995 h 18.99997 v 53.91333 h -82.60626 v -18.99994"
       id="path69"
       inkscape:connector-curvature="0"
       style="fill-rule:evenodd;stroke:#000000;stroke-width:1;stroke-linecap:butt;stroke-linejoin:round" />
    <path
       d="m 300.03412,363.76822 -4.53809,1.65173 4.53809,1.65174 z"
       id="path71"
       inkscape:connector-curvature="0"
       style="fill:#000000;fill-rule:evenodd;stroke:#000000;stroke-width:1;stroke-linecap:butt" />
    <path
       d="m 238.07956,400.33334 -1.65173,-4.53812 -1.65174,4.53812 z"
       id="path73"
       inkscape:connector-curvature="0"
       style="fill:#000000;fill-rule:evenodd;stroke:#000000;stroke-width:1;stroke-linecap:butt" />
    <path
       d="m 678.49866,122.39241 h 105.82678 v 50.64568 H 678.49866 Z"
       id="path75"
       inkscape:connector-curvature="0"
       style="fill:#cfe2f3;fill-rule:evenodd" />
    <path
       d="m 694.6853,146.29149 q -0.39063,-0.0625 -0.84375,-0.0625 -1.65625,0 -2.25,1.40625 v 7 h -1.67188 v -9.85938 h 1.64063 l 0.0156,1.14063 q 0.82813,-1.3125 2.35938,-1.3125 0.48437,0 0.75,0.125 z m 7.62537,7.375 q -0.98438,1.15625 -2.89063,1.15625 -1.57812,0 -2.40625,-0.92188 -0.8125,-0.92187 -0.82812,-2.70312 v -6.42188 h 1.6875 v 6.375 q 0,2.23438 1.82812,2.23438 1.92188,0 2.5625,-1.4375 v -7.17188 h 1.6875 v 9.85938 h -1.60937 z m 5.80029,-8.89063 0.0469,1.23438 q 1.125,-1.40625 2.95313,-1.40625 3.125,0 3.15625,3.51562 v 6.51563 h -1.6875 v -6.51563 q -0.0156,-1.07812 -0.5,-1.57812 -0.46875,-0.51563 -1.48438,-0.51563 -0.8125,0 -1.4375,0.4375 -0.60937,0.4375 -0.96875,1.15625 v 7.01563 h -1.67187 v -9.85938 z m 8.63745,4.46875 q 0,-2.04687 0.54688,-3.9375 0.54687,-1.90625 1.64062,-3.45312 1.09375,-1.54688 2.26563,-2.1875 l 0.34375,1.10937 q -1.32813,1.03125 -2.1875,3.125 -0.84375,2.09375 -0.92188,4.6875 l -0.0156,0.76563 q 0,3.51562 1.29687,6.10937 0.76563,1.54688 1.82813,2.42188 l -0.34375,1.03125 q -1.20313,-0.67188 -2.3125,-2.26563 -2.14063,-3.09375 -2.14063,-7.40625 z m 8.7204,-6.85937 v 2.39062 h 1.84375 v 1.3125 h -1.84375 v 6.10938 q 0,0.59375 0.23437,0.89062 0.25,0.29688 0.84375,0.29688 0.29688,0 0.8125,-0.10938 v 1.35938 q -0.67187,0.1875 -1.29687,0.1875 -1.125,0 -1.70313,-0.6875 -0.57812,-0.6875 -0.57812,-1.9375 v -6.10938 h -1.79688 v -1.3125 h 1.79688 v -2.39062 z m 9.89111,12.25 q -0.14062,-0.29688 -0.23437,-1.03125 -1.17188,1.21875 -2.8125,1.21875 -1.45313,0 -2.39063,-0.82813 -0.92187,-0.82812 -0.92187,-2.09375 0,-1.53125 1.15625,-2.375 1.17187,-0.85937 3.29687,-0.85937 h 1.64063 v -0.78125 q 0,-0.89063 -0.53125,-1.40625 -0.51563,-0.53125 -1.54688,-0.53125 -0.90625,0 -1.51562,0.46875 -0.60938,0.45312 -0.60938,1.09375 h -1.70312 q 0,-0.73438 0.51562,-1.42188 0.53125,-0.6875 1.42188,-1.07812 0.90625,-0.40625 1.98437,-0.40625 1.70313,0 2.67188,0.85937 0.96875,0.84375 1,2.32813 v 4.53125 q 0,1.35937 0.34375,2.17187 v 0.14063 z m -2.79687,-1.28125 q 0.79687,0 1.5,-0.40625 0.71875,-0.42188 1.03125,-1.07813 v -2.01562 h -1.3125 q -3.10938,0 -3.10938,1.8125 0,0.79687 0.53125,1.25 0.53125,0.4375 1.35938,0.4375 z m 12.60113,-1.32813 q 0,-0.6875 -0.51562,-1.0625 -0.51563,-0.375 -1.79688,-0.64062 -1.28125,-0.28125 -2.03125,-0.65625 -0.75,-0.39063 -1.10937,-0.92188 -0.35938,-0.53125 -0.35938,-1.26562 0,-1.20313 1.01563,-2.03125 1.03125,-0.84375 2.625,-0.84375 1.67187,0 2.71875,0.85937 1.04687,0.85938 1.04687,2.21875 h -1.6875 q 0,-0.70312 -0.59375,-1.20312 -0.59375,-0.5 -1.48437,-0.5 -0.92188,0 -1.4375,0.40625 -0.51563,0.39062 -0.51563,1.04687 0,0.60938 0.48438,0.92188 0.48437,0.3125 1.73437,0.59375 1.26563,0.28125 2.04688,0.67187 0.78125,0.39063 1.15625,0.9375 0.39062,0.54688 0.39062,1.34375 0,1.32813 -1.0625,2.125 -1.04687,0.79688 -2.73437,0.79688 -1.1875,0 -2.10938,-0.42188 -0.90625,-0.42187 -1.42187,-1.17187 -0.51563,-0.75 -0.51563,-1.625 h 1.6875 q 0.0469,0.84375 0.67188,1.34375 0.64062,0.5 1.6875,0.5 0.95312,0 1.53125,-0.39063 0.57812,-0.39062 0.57812,-1.03125 z m 6.63526,-1.95312 -1.0625,1.09375 v 3.46875 h -1.6875 v -14 h 1.6875 v 8.46875 l 0.90625,-1.07813 3.0625,-3.25 h 2.04687 l -3.82812,4.125 4.28125,5.73438 h -1.98438 z m 12.065,4.5625 h -1.6875 v -11.23438 l -3.40625,1.25 v -1.53125 l 4.82812,-1.8125 h 0.26563 z m 9.0072,-5.29688 q 0,2.03125 -0.54688,3.90625 -0.53125,1.85938 -1.625,3.42188 -1.09375,1.57812 -2.29687,2.25 l -0.35938,-1.03125 q 1.40625,-1.07813 2.25,-3.32813 0.85938,-2.26562 0.875,-5.03125 v -0.29687 q 0,-1.90625 -0.40625,-3.54688 -0.39062,-1.65625 -1.10937,-2.95312 -0.71875,-1.29688 -1.60938,-2.03125 l 0.35938,-1.03125 q 1.20312,0.67187 2.28125,2.23437 1.09375,1.54688 1.64062,3.42188 0.54688,1.875 0.54688,4.01562 z"
       id="path77"
       inkscape:connector-curvature="0"
       style="fill:#434343;fill-rule:nonzero" />
    <path
       d="m 678.49866,178.4077 h 105.82678 v 50.64568 H 678.49866 Z"
       id="path79"
       inkscape:connector-curvature="0"
       style="fill:#cfe2f3;fill-rule:evenodd" />
    <path
       d="m 694.6853,202.3068 q -0.39063,-0.0625 -0.84375,-0.0625 -1.65625,0 -2.25,1.40625 v 7 h -1.67188 v -9.85938 h 1.64063 l 0.0156,1.14063 q 0.82813,-1.3125 2.35938,-1.3125 0.48437,0 0.75,0.125 z m 7.62537,7.375 q -0.98438,1.15625 -2.89063,1.15625 -1.57812,0 -2.40625,-0.92188 -0.8125,-0.92187 -0.82812,-2.70312 v -6.42188 h 1.6875 v 6.375 q 0,2.23438 1.82812,2.23438 1.92188,0 2.5625,-1.4375 v -7.17188 h 1.6875 v 9.85938 h -1.60937 z m 5.80029,-8.89063 0.0469,1.23438 q 1.125,-1.40625 2.95313,-1.40625 3.125,0 3.15625,3.51562 v 6.51563 h -1.6875 v -6.51563 q -0.0156,-1.07812 -0.5,-1.57812 -0.46875,-0.51563 -1.48438,-0.51563 -0.8125,0 -1.4375,0.4375 -0.60937,0.4375 -0.96875,1.15625 v 7.01563 h -1.67187 v -9.85938 z m 8.63745,4.46875 q 0,-2.04687 0.54688,-3.9375 0.54687,-1.90625 1.64062,-3.45312 1.09375,-1.54688 2.26563,-2.1875 l 0.34375,1.10937 q -1.32813,1.03125 -2.1875,3.125 -0.84375,2.09375 -0.92188,4.6875 l -0.0156,0.76563 q 0,3.51562 1.29687,6.10937 0.76563,1.54688 1.82813,2.42188 l -0.34375,1.03125 q -1.20313,-0.67188 -2.3125,-2.26563 -2.14063,-3.09375 -2.14063,-7.40625 z m 8.7204,-6.85937 v 2.39062 h 1.84375 v 1.3125 h -1.84375 v 6.10938 q 0,0.59375 0.23437,0.89062 0.25,0.29688 0.84375,0.29688 0.29688,0 0.8125,-0.10938 v 1.35938 q -0.67187,0.1875 -1.29687,0.1875 -1.125,0 -1.70313,-0.6875 -0.57812,-0.6875 -0.57812,-1.9375 v -6.10938 h -1.79688 v -1.3125 h 1.79688 v -2.39062 z m 9.89111,12.25 q -0.14062,-0.29688 -0.23437,-1.03125 -1.17188,1.21875 -2.8125,1.21875 -1.45313,0 -2.39063,-0.82813 -0.92187,-0.82812 -0.92187,-2.09375 0,-1.53125 1.15625,-2.375 1.17187,-0.85937 3.29687,-0.85937 h 1.64063 v -0.78125 q 0,-0.89063 -0.53125,-1.40625 -0.51563,-0.53125 -1.54688,-0.53125 -0.90625,0 -1.51562,0.46875 -0.60938,0.45312 -0.60938,1.09375 h -1.70312 q 0,-0.73438 0.51562,-1.42188 0.53125,-0.6875 1.42188,-1.07812 0.90625,-0.40625 1.98437,-0.40625 1.70313,0 2.67188,0.85937 0.96875,0.84375 1,2.32813 v 4.53125 q 0,1.35937 0.34375,2.17187 v 0.14063 z m -2.79687,-1.28125 q 0.79687,0 1.5,-0.40625 0.71875,-0.42188 1.03125,-1.07813 v -2.01562 h -1.3125 q -3.10938,0 -3.10938,1.8125 0,0.79687 0.53125,1.25 0.53125,0.4375 1.35938,0.4375 z m 12.60113,-1.32813 q 0,-0.6875 -0.51562,-1.0625 -0.51563,-0.375 -1.79688,-0.64062 -1.28125,-0.28125 -2.03125,-0.65625 -0.75,-0.39063 -1.10937,-0.92188 -0.35938,-0.53125 -0.35938,-1.26562 0,-1.20313 1.01563,-2.03125 1.03125,-0.84375 2.625,-0.84375 1.67187,0 2.71875,0.85937 1.04687,0.85938 1.04687,2.21875 h -1.6875 q 0,-0.70312 -0.59375,-1.20312 -0.59375,-0.5 -1.48437,-0.5 -0.92188,0 -1.4375,0.40625 -0.51563,0.39062 -0.51563,1.04687 0,0.60938 0.48438,0.92188 0.48437,0.3125 1.73437,0.59375 1.26563,0.28125 2.04688,0.67187 0.78125,0.39063 1.15625,0.9375 0.39062,0.54688 0.39062,1.34375 0,1.32813 -1.0625,2.125 -1.04687,0.79688 -2.73437,0.79688 -1.1875,0 -2.10938,-0.42188 -0.90625,-0.42187 -1.42187,-1.17187 -0.51563,-0.75 -0.51563,-1.625 h 1.6875 q 0.0469,0.84375 0.67188,1.34375 0.64062,0.5 1.6875,0.5 0.95312,0 1.53125,-0.39063 0.57812,-0.39062 0.57812,-1.03125 z m 6.63526,-1.95312 -1.0625,1.09375 v 3.46875 h -1.6875 v -14 h 1.6875 v 8.46875 l 0.90625,-1.07813 3.0625,-3.25 h 2.04687 l -3.82812,4.125 4.28125,5.73438 h -1.98438 z m 15.22125,4.5625 h -8.6875 v -1.21875 l 4.57812,-5.09375 q 1.03125,-1.15625 1.40625,-1.875 0.39063,-0.73438 0.39063,-1.5 0,-1.04688 -0.625,-1.70313 -0.625,-0.67187 -1.67188,-0.67187 -1.26562,0 -1.96875,0.71875 -0.6875,0.71875 -0.6875,1.98437 h -1.6875 q 0,-1.82812 1.17188,-2.95312 1.1875,-1.14063 3.17187,-1.14063 1.84375,0 2.92188,0.98438 1.07812,0.96875 1.07812,2.57812 0,1.95313 -2.5,4.65625 l -3.54687,3.85938 h 6.65625 z m 5.85095,-5.29688 q 0,2.03125 -0.54688,3.90625 -0.53125,1.85938 -1.625,3.42188 -1.09375,1.57812 -2.29687,2.25 l -0.35938,-1.03125 q 1.40625,-1.07813 2.25,-3.32813 0.85938,-2.26562 0.875,-5.03125 v -0.29687 q 0,-1.90625 -0.40625,-3.54688 -0.39062,-1.65625 -1.10937,-2.95312 -0.71875,-1.29688 -1.60938,-2.03125 l 0.35938,-1.03125 q 1.20312,0.67187 2.28125,2.23437 1.09375,1.54688 1.64062,3.42188 0.54688,1.875 0.54688,4.01562 z"
       id="path81"
       inkscape:connector-curvature="0"
       style="fill:#434343;fill-rule:nonzero" />
    <path
       d="m 535.1706,146.80951 h 109.32282 v 57.82677 H 535.1706 Z"
       id="path83"
       inkscape:connector-curvature="0"
       style="fill:#cfe2f3;fill-rule:evenodd" />
    <path
       d="m 558.3751,174.29913 q -0.39063,-0.0625 -0.84375,-0.0625 -1.65625,0 -2.25,1.40625 v 7 h -1.67188 v -9.85938 h 1.64063 l 0.0156,1.14063 q 0.82813,-1.3125 2.35938,-1.3125 0.48437,0 0.75,0.125 z m 7.62537,7.375 q -0.98438,1.15625 -2.89063,1.15625 -1.57812,0 -2.40625,-0.92188 -0.8125,-0.92187 -0.82812,-2.70312 v -6.42188 h 1.6875 v 6.375 q 0,2.23438 1.82812,2.23438 1.92188,0 2.5625,-1.4375 v -7.17188 h 1.6875 v 9.85938 h -1.60937 z m 5.80023,-8.89063 0.0469,1.23438 q 1.125,-1.40625 2.95313,-1.40625 3.125,0 3.15625,3.51562 v 6.51563 h -1.6875 v -6.51563 q -0.0156,-1.07812 -0.5,-1.57812 -0.46875,-0.51563 -1.48438,-0.51563 -0.8125,0 -1.4375,0.4375 -0.60937,0.4375 -0.96875,1.15625 v 7.01563 h -1.67187 v -9.85938 z m 8.63751,4.46875 q 0,-2.04687 0.54688,-3.9375 0.54687,-1.90625 1.64062,-3.45312 1.09375,-1.54688 2.26563,-2.1875 l 0.34375,1.10937 q -1.32813,1.03125 -2.1875,3.125 -0.84375,2.09375 -0.92188,4.6875 l -0.0156,0.76563 q 0,3.51562 1.29687,6.10937 0.76563,1.54688 1.82813,2.42188 l -0.34375,1.03125 q -1.20313,-0.67188 -2.3125,-2.26563 -2.14063,-3.09375 -2.14063,-7.40625 z m 12.5954,-7.17187 q -1.14063,-0.1875 -1.82813,-0.1875 -1.8125,0 -1.8125,1.92187 v 0.96875 h 2.09375 v 1.3125 h -2.09375 v 8.54688 h -1.6875 V 174.096 h -1.5625 v -1.3125 h 1.5625 v -1.07812 q 0,-1.5625 0.875,-2.40625 0.875,-0.84375 2.48438,-0.84375 0.92187,0 3.65625,0.5625 v 13.625 h -1.6875 z m 3.98492,7.54687 q 0,-1.45312 0.5625,-2.60937 0.57813,-1.15625 1.59375,-1.78125 1.01563,-0.625 2.3125,-0.625 2.01563,0 3.25,1.39062 1.25,1.39063 1.25,3.70313 v 0.125 q 0,1.4375 -0.54687,2.57812 -0.54688,1.14063 -1.57813,1.78125 -1.01562,0.64063 -2.35937,0.64063 -2,0 -3.25,-1.39063 -1.23438,-1.40625 -1.23438,-3.70312 z m 1.6875,0.20313 q 0,1.64062 0.76563,2.64062 0.76562,0.98438 2.03125,0.98438 1.29687,0 2.04687,-1 0.75,-1.01563 0.75,-2.82813 0,-1.625 -0.76562,-2.625 -0.76563,-1.01562 -2.04688,-1.01562 -1.25,0 -2.01562,1 -0.76563,0.98437 -0.76563,2.84375 z m 18.12427,2.48437 1.89063,-7.53125 h 1.6875 l -2.85938,9.85938 h -1.375 l -2.39062,-7.46875 -2.32813,7.46875 h -1.375 l -2.85937,-9.85938 h 1.67187 l 1.95313,7.375 2.28125,-7.375 h 1.35937 z m 9.19141,-2.96875 q 0,2.03125 -0.54688,3.90625 -0.53125,1.85938 -1.625,3.42188 -1.09375,1.57812 -2.29687,2.25 l -0.35938,-1.03125 q 1.40625,-1.07813 2.25,-3.32813 0.85938,-2.26562 0.875,-5.03125 v -0.29687 q 0,-1.90625 -0.40625,-3.54688 -0.39062,-1.65625 -1.10937,-2.95312 -0.71875,-1.29688 -1.60938,-2.03125 l 0.35938,-1.03125 q 1.20312,0.67187 2.28125,2.23437 1.09375,1.54688 1.64062,3.42188 0.54688,1.875 0.54688,4.01562 z"
       id="path85"
       inkscape:connector-curvature="0"
       style="fill:#434343;fill-rule:nonzero" />
    <path
       d="m 535.1706,258.8401 h 109.32282 v 57.82678 H 535.1706 Z"
       id="path87"
       inkscape:connector-curvature="0"
       style="fill:#9fc5e8;fill-rule:evenodd" />
    <path
       d="m 558.3751,286.3297 q -0.39063,-0.0625 -0.84375,-0.0625 -1.65625,0 -2.25,1.40625 v 7 h -1.67188 v -9.85938 h 1.64063 l 0.0156,1.14063 q 0.82813,-1.3125 2.35938,-1.3125 0.48437,0 0.75,0.125 z m 7.62537,7.375 q -0.98438,1.15625 -2.89063,1.15625 -1.57812,0 -2.40625,-0.92188 -0.8125,-0.92187 -0.82812,-2.70312 v -6.42188 h 1.6875 v 6.375 q 0,2.23438 1.82812,2.23438 1.92188,0 2.5625,-1.4375 v -7.17188 h 1.6875 v 9.85938 h -1.60937 z m 5.80023,-8.89063 0.0469,1.23438 q 1.125,-1.40625 2.95313,-1.40625 3.125,0 3.15625,3.51562 v 6.51563 h -1.6875 v -6.51563 q -0.0156,-1.07812 -0.5,-1.57812 -0.46875,-0.51563 -1.48438,-0.51563 -0.8125,0 -1.4375,0.4375 -0.60937,0.4375 -0.96875,1.15625 v 7.01563 h -1.67187 v -9.85938 z m 8.63751,4.46875 q 0,-2.04687 0.54688,-3.9375 0.54687,-1.90625 1.64062,-3.45312 1.09375,-1.54688 2.26563,-2.1875 l 0.34375,1.10937 q -1.32813,1.03125 -2.1875,3.125 -0.84375,2.09375 -0.92188,4.6875 l -0.0156,0.76563 q 0,3.51562 1.29687,6.10937 0.76563,1.54688 1.82813,2.42188 l -0.34375,1.03125 q -1.20313,-0.67188 -2.3125,-2.26563 -2.14063,-3.09375 -2.14063,-7.40625 z m 12.5954,-7.17187 q -1.14063,-0.1875 -1.82813,-0.1875 -1.8125,0 -1.8125,1.92187 v 0.96875 h 2.09375 v 1.3125 h -2.09375 v 8.54688 h -1.6875 v -8.54688 h -1.5625 v -1.3125 h 1.5625 v -1.07812 q 0,-1.5625 0.875,-2.40625 0.875,-0.84375 2.48438,-0.84375 0.92187,0 3.65625,0.5625 v 13.625 h -1.6875 z m 3.98492,7.54687 q 0,-1.45312 0.5625,-2.60937 0.57813,-1.15625 1.59375,-1.78125 1.01563,-0.625 2.3125,-0.625 2.01563,0 3.25,1.39062 1.25,1.39063 1.25,3.70313 v 0.125 q 0,1.4375 -0.54687,2.57812 -0.54688,1.14063 -1.57813,1.78125 -1.01562,0.64063 -2.35937,0.64063 -2,0 -3.25,-1.39063 -1.23438,-1.40625 -1.23438,-3.70312 z m 1.6875,0.20313 q 0,1.64062 0.76563,2.64062 0.76562,0.98438 2.03125,0.98438 1.29687,0 2.04687,-1 0.75,-1.01563 0.75,-2.82813 0,-1.625 -0.76562,-2.625 -0.76563,-1.01562 -2.04688,-1.01562 -1.25,0 -2.01562,1 -0.76563,0.98437 -0.76563,2.84375 z m 18.12427,2.48437 1.89063,-7.53125 h 1.6875 l -2.85938,9.85938 h -1.375 l -2.39062,-7.46875 -2.32813,7.46875 h -1.375 l -2.85937,-9.85938 h 1.67187 l 1.95313,7.375 2.28125,-7.375 h 1.35937 z m 9.19141,-2.96875 q 0,2.03125 -0.54688,3.90625 -0.53125,1.85938 -1.625,3.42188 -1.09375,1.57812 -2.29687,2.25 l -0.35938,-1.03125 q 1.40625,-1.07813 2.25,-3.32813 0.85938,-2.26562 0.875,-5.03125 v -0.29687 q 0,-1.90625 -0.40625,-3.54688 -0.39062,-1.65625 -1.10937,-2.95312 -0.71875,-1.29688 -1.60938,-2.03125 l 0.35938,-1.03125 q 1.20312,0.67187 2.28125,2.23437 1.09375,1.54688 1.64062,3.42188 0.54688,1.875 0.54688,4.01562 z"
       id="path89"
       inkscape:connector-curvature="0"
       style="fill:#434343;fill-rule:nonzero" />
    <path
       d="m 43.860893,104.65879 h 74.173227 v 38.77166 H 43.860893 Z"
       id="path91"
       inkscape:connector-curvature="0"
       style="fill:#000000;fill-opacity:0;fill-rule:evenodd" />
    <path
       d="m 55.68902,127.78442 h 5.390625 v 1.23438 H 54.18902 v -11.37501 h 1.5 z m 15.351562,-4.09375 q 0,1.67187 -0.5625,2.92187 -0.5625,1.25 -1.59375,1.90626 -1.03125,0.65625 -2.40625,0.65625 -1.34375,0 -2.390625,-0.65625 -1.03125,-0.67188 -1.609375,-1.89063 -0.578125,-1.21875 -0.59375,-2.82813 v -0.82812 q 0,-1.64063 0.5625,-2.89063 0.578125,-1.26562 1.625,-1.92187 1.046875,-0.67188 2.390625,-0.67188 1.359375,0 2.40625,0.65625 1.046875,0.65625 1.609375,1.92188 0.5625,1.25 0.5625,2.90625 z m -1.5,-0.73438 q 0,-2.01562 -0.8125,-3.09375 -0.8125,-1.09375 -2.265625,-1.09375 -1.421875,0 -2.25,1.09375 -0.8125,1.07813 -0.828125,3 v 0.82813 q 0,1.96875 0.8125,3.09375 0.828125,1.10937 2.28125,1.10937 1.453125,0 2.25,-1.04687 0.796875,-1.0625 0.8125,-3.04688 z m 12.109375,2.45313 q -0.203125,1.79687 -1.328125,2.78126 -1.125,0.98437 -2.984375,0.98437 -2.015625,0 -3.234375,-1.43751 -1.203125,-1.45312 -1.203125,-3.875 v -1.09375 q 0,-1.59375 0.5625,-2.79687 0.5625,-1.20313 1.59375,-1.84375 1.046875,-0.64063 2.421875,-0.64063 1.8125,0 2.90625,1.01563 1.09375,1 1.265625,2.79687 h -1.5 q -0.203125,-1.35937 -0.859375,-1.96875 -0.640625,-0.60937 -1.8125,-0.60937 -1.4375,0 -2.265625,1.0625 -0.8125,1.0625 -0.8125,3.01562 v 1.10938 q 0,1.84375 0.765625,2.9375 0.78125,1.09375 2.171875,1.09375 1.25,0 1.921875,-0.5625 0.671875,-0.5625 0.890625,-1.96875 z m 8.335938,0.64062 H 85.22027 l -1.078125,2.96876 H 82.59527 l 4.34375,-11.37501 h 1.3125 l 4.359375,11.37501 H 91.06402 Z m -4.3125,-1.23437 h 3.859375 l -1.9375,-5.32813 z m 9.96875,2.96875 h 5.390625 v 1.23438 h -6.890625 v -11.37501 h 1.5 z"
       id="path93"
       inkscape:connector-curvature="0"
       style="fill:#434343;fill-rule:nonzero" />
    <path
       d="m 373.99475,104.65879 h 83.77954 v 38.77166 h -83.77954 z"
       id="path95"
       inkscape:connector-curvature="0"
       style="fill:#000000;fill-opacity:0;fill-rule:evenodd" />
    <path
       d="m 391.9305,124.40942 h -2.67188 v 4.60938 H 387.743 v -11.37501 h 3.76562 q 1.92188,0 2.95313,0.875 1.04687,0.875 1.04687,2.54688 0,1.0625 -0.57812,1.85937 -0.57813,0.78125 -1.59375,1.17188 l 2.67187,4.82813 v 0.0937 h -1.60937 z m -2.67188,-1.21875 h 2.29688 q 1.125,0 1.78125,-0.57813 0.65625,-0.57812 0.65625,-1.54687 0,-1.0625 -0.625,-1.625 -0.625,-0.5625 -1.8125,-0.5625 h -2.29688 z m 14.77344,0.5625 h -4.92187 v 4.03125 h 5.71875 v 1.23438 h -7.21875 v -11.37501 h 7.14062 v 1.23438 h -5.64062 v 3.65625 h 4.92187 z m 4.60938,-6.10938 3.71875,9.28125 3.71875,-9.28125 h 1.9375 v 11.37501 h -1.5 v -4.4375 l 0.14062,-4.78125 -3.73437,9.21875 h -1.14063 l -3.73437,-9.1875 0.15625,4.75 v 4.4375 h -1.5 v -11.37501 z m 20.78125,6.04688 q 0,1.67187 -0.5625,2.92187 -0.5625,1.25 -1.59375,1.90626 -1.03125,0.65625 -2.40625,0.65625 -1.34375,0 -2.39063,-0.65625 -1.03125,-0.67188 -1.60937,-1.89063 -0.57813,-1.21875 -0.59375,-2.82813 v -0.82812 q 0,-1.64063 0.5625,-2.89063 0.57812,-1.26562 1.625,-1.92187 1.04687,-0.67188 2.39062,-0.67188 1.35938,0 2.40625,0.65625 1.04688,0.65625 1.60938,1.92188 0.5625,1.25 0.5625,2.90625 z m -1.5,-0.73438 q 0,-2.01562 -0.8125,-3.09375 -0.8125,-1.09375 -2.26563,-1.09375 -1.42187,0 -2.25,1.09375 -0.8125,1.07813 -0.82812,3 v 0.82813 q 0,1.96875 0.8125,3.09375 0.82812,1.10937 2.28125,1.10937 1.45312,0 2.25,-1.04687 0.79687,-1.0625 0.8125,-3.04688 z m 11.39843,-4.07812 h -3.65625 v 10.14063 h -1.5 v -10.14063 h -3.64062 v -1.23438 h 8.79687 z m 8.10938,4.875 h -4.92188 v 4.03125 h 5.71875 v 1.23438 h -7.21875 v -11.37501 h 7.14063 v 1.23438 h -5.64063 v 3.65625 h 4.92188 z"
       id="path97"
       inkscape:connector-curvature="0"
       style="fill:#434343;fill-rule:nonzero" />
    <path
       d="m 678.49866,234.423 h 105.82678 v 50.64566 H 678.49866 Z"
       id="path99"
       inkscape:connector-curvature="0"
       style="fill:#9fc5e8;fill-rule:evenodd" />
    <path
       d="m 694.6853,258.32208 q -0.39063,-0.0625 -0.84375,-0.0625 -1.65625,0 -2.25,1.40625 v 7 h -1.67188 v -9.85937 h 1.64063 l 0.0156,1.14062 q 0.82813,-1.3125 2.35938,-1.3125 0.48437,0 0.75,0.125 z m 7.62537,7.375 q -0.98438,1.15625 -2.89063,1.15625 -1.57812,0 -2.40625,-0.92187 -0.8125,-0.92188 -0.82812,-2.70313 v -6.42187 h 1.6875 v 6.375 q 0,2.23437 1.82812,2.23437 1.92188,0 2.5625,-1.4375 v -7.17187 h 1.6875 v 9.85937 h -1.60937 z m 5.80029,-8.89062 0.0469,1.23437 q 1.125,-1.40625 2.95313,-1.40625 3.125,0 3.15625,3.51563 v 6.51562 h -1.6875 v -6.51562 q -0.0156,-1.07813 -0.5,-1.57813 -0.46875,-0.51562 -1.48438,-0.51562 -0.8125,0 -1.4375,0.4375 -0.60937,0.4375 -0.96875,1.15625 v 7.01562 h -1.67187 v -9.85937 z m 8.63745,4.46875 q 0,-2.04688 0.54688,-3.9375 0.54687,-1.90625 1.64062,-3.45313 1.09375,-1.54687 2.26563,-2.1875 l 0.34375,1.10938 q -1.32813,1.03125 -2.1875,3.125 -0.84375,2.09375 -0.92188,4.6875 l -0.0156,0.76562 q 0,3.51563 1.29687,6.10938 0.76563,1.54687 1.82813,2.42187 l -0.34375,1.03125 q -1.20313,-0.67187 -2.3125,-2.26562 -2.14063,-3.09375 -2.14063,-7.40625 z m 8.7204,-6.85938 v 2.39063 h 1.84375 v 1.3125 h -1.84375 v 6.10937 q 0,0.59375 0.23437,0.89063 0.25,0.29687 0.84375,0.29687 0.29688,0 0.8125,-0.10937 v 1.35937 q -0.67187,0.1875 -1.29687,0.1875 -1.125,0 -1.70313,-0.6875 -0.57812,-0.6875 -0.57812,-1.9375 v -6.10937 h -1.79688 v -1.3125 h 1.79688 v -2.39063 z m 9.89111,12.25 q -0.14062,-0.29687 -0.23437,-1.03125 -1.17188,1.21875 -2.8125,1.21875 -1.45313,0 -2.39063,-0.82812 -0.92187,-0.82813 -0.92187,-2.09375 0,-1.53125 1.15625,-2.375 1.17187,-0.85938 3.29687,-0.85938 h 1.64063 v -0.78125 q 0,-0.89062 -0.53125,-1.40625 -0.51563,-0.53125 -1.54688,-0.53125 -0.90625,0 -1.51562,0.46875 -0.60938,0.45313 -0.60938,1.09375 h -1.70312 q 0,-0.73437 0.51562,-1.42187 0.53125,-0.6875 1.42188,-1.07813 0.90625,-0.40625 1.98437,-0.40625 1.70313,0 2.67188,0.85938 0.96875,0.84375 1,2.32812 v 4.53125 q 0,1.35938 0.34375,2.17188 v 0.14062 z m -2.79687,-1.28125 q 0.79687,0 1.5,-0.40625 0.71875,-0.42187 1.03125,-1.07812 v -2.01563 h -1.3125 q -3.10938,0 -3.10938,1.8125 0,0.79688 0.53125,1.25 0.53125,0.4375 1.35938,0.4375 z m 12.60113,-1.32812 q 0,-0.6875 -0.51562,-1.0625 -0.51563,-0.375 -1.79688,-0.64063 -1.28125,-0.28125 -2.03125,-0.65625 -0.75,-0.39062 -1.10937,-0.92187 -0.35938,-0.53125 -0.35938,-1.26563 0,-1.20312 1.01563,-2.03125 1.03125,-0.84375 2.625,-0.84375 1.67187,0 2.71875,0.85938 1.04687,0.85937 1.04687,2.21875 h -1.6875 q 0,-0.70313 -0.59375,-1.20313 -0.59375,-0.5 -1.48437,-0.5 -0.92188,0 -1.4375,0.40625 -0.51563,0.39063 -0.51563,1.04688 0,0.60937 0.48438,0.92187 0.48437,0.3125 1.73437,0.59375 1.26563,0.28125 2.04688,0.67188 0.78125,0.39062 1.15625,0.9375 0.39062,0.54687 0.39062,1.34375 0,1.32812 -1.0625,2.125 -1.04687,0.79687 -2.73437,0.79687 -1.1875,0 -2.10938,-0.42187 -0.90625,-0.42188 -1.42187,-1.17188 -0.51563,-0.75 -0.51563,-1.625 h 1.6875 q 0.0469,0.84375 0.67188,1.34375 0.64062,0.5 1.6875,0.5 0.95312,0 1.53125,-0.39062 0.57812,-0.39063 0.57812,-1.03125 z m 6.63526,-1.95313 -1.0625,1.09375 v 3.46875 h -1.6875 v -14 h 1.6875 v 8.46875 l 0.90625,-1.07812 3.0625,-3.25 h 2.04687 l -3.82812,4.125 4.28125,5.73437 h -1.98438 z m 12.065,4.5625 h -1.6875 v -11.23437 l -3.40625,1.25 v -1.53125 l 4.82812,-1.8125 h 0.26563 z m 9.0072,-5.29687 q 0,2.03125 -0.54688,3.90625 -0.53125,1.85937 -1.625,3.42187 -1.09375,1.57813 -2.29687,2.25 l -0.35938,-1.03125 q 1.40625,-1.07812 2.25,-3.32812 0.85938,-2.26563 0.875,-5.03125 v -0.29688 q 0,-1.90625 -0.40625,-3.54687 -0.39062,-1.65625 -1.10937,-2.95313 -0.71875,-1.29687 -1.60938,-2.03125 l 0.35938,-1.03125 q 1.20312,0.67188 2.28125,2.23438 1.09375,1.54687 1.64062,3.42187 0.54688,1.875 0.54688,4.01563 z"
       id="path101"
       inkscape:connector-curvature="0"
       style="fill:#434343;fill-rule:nonzero" />
    <path
       d="m 678.49866,290.4383 h 105.82678 v 50.64566 H 678.49866 Z"
       id="path103"
       inkscape:connector-curvature="0"
       style="fill:#9fc5e8;fill-rule:evenodd" />
    <path
       d="m 694.6853,314.33737 q -0.39063,-0.0625 -0.84375,-0.0625 -1.65625,0 -2.25,1.40625 v 7 h -1.67188 v -9.85937 h 1.64063 l 0.0156,1.14062 q 0.82813,-1.3125 2.35938,-1.3125 0.48437,0 0.75,0.125 z m 7.62537,7.375 q -0.98438,1.15625 -2.89063,1.15625 -1.57812,0 -2.40625,-0.92187 -0.8125,-0.92188 -0.82812,-2.70313 v -6.42187 h 1.6875 v 6.375 q 0,2.23437 1.82812,2.23437 1.92188,0 2.5625,-1.4375 v -7.17187 h 1.6875 v 9.85937 h -1.60937 z m 5.80029,-8.89062 0.0469,1.23437 q 1.125,-1.40625 2.95313,-1.40625 3.125,0 3.15625,3.51563 v 6.51562 h -1.6875 v -6.51562 q -0.0156,-1.07813 -0.5,-1.57813 -0.46875,-0.51562 -1.48438,-0.51562 -0.8125,0 -1.4375,0.4375 -0.60937,0.4375 -0.96875,1.15625 v 7.01562 h -1.67187 v -9.85937 z m 8.63745,4.46875 q 0,-2.04688 0.54688,-3.9375 0.54687,-1.90625 1.64062,-3.45313 1.09375,-1.54687 2.26563,-2.1875 l 0.34375,1.10938 q -1.32813,1.03125 -2.1875,3.125 -0.84375,2.09375 -0.92188,4.6875 l -0.0156,0.76562 q 0,3.51563 1.29687,6.10938 0.76563,1.54687 1.82813,2.42187 l -0.34375,1.03125 q -1.20313,-0.67187 -2.3125,-2.26562 -2.14063,-3.09375 -2.14063,-7.40625 z m 8.7204,-6.85938 v 2.39063 h 1.84375 v 1.3125 h -1.84375 v 6.10937 q 0,0.59375 0.23437,0.89063 0.25,0.29687 0.84375,0.29687 0.29688,0 0.8125,-0.10937 v 1.35937 q -0.67187,0.1875 -1.29687,0.1875 -1.125,0 -1.70313,-0.6875 -0.57812,-0.6875 -0.57812,-1.9375 v -6.10937 h -1.79688 v -1.3125 h 1.79688 v -2.39063 z m 9.89111,12.25 q -0.14062,-0.29687 -0.23437,-1.03125 -1.17188,1.21875 -2.8125,1.21875 -1.45313,0 -2.39063,-0.82812 -0.92187,-0.82813 -0.92187,-2.09375 0,-1.53125 1.15625,-2.375 1.17187,-0.85938 3.29687,-0.85938 h 1.64063 v -0.78125 q 0,-0.89062 -0.53125,-1.40625 -0.51563,-0.53125 -1.54688,-0.53125 -0.90625,0 -1.51562,0.46875 -0.60938,0.45313 -0.60938,1.09375 h -1.70312 q 0,-0.73437 0.51562,-1.42187 0.53125,-0.6875 1.42188,-1.07813 0.90625,-0.40625 1.98437,-0.40625 1.70313,0 2.67188,0.85938 0.96875,0.84375 1,2.32812 v 4.53125 q 0,1.35938 0.34375,2.17188 v 0.14062 z m -2.79687,-1.28125 q 0.79687,0 1.5,-0.40625 0.71875,-0.42187 1.03125,-1.07812 v -2.01563 h -1.3125 q -3.10938,0 -3.10938,1.8125 0,0.79688 0.53125,1.25 0.53125,0.4375 1.35938,0.4375 z m 12.60113,-1.32812 q 0,-0.6875 -0.51562,-1.0625 -0.51563,-0.375 -1.79688,-0.64063 -1.28125,-0.28125 -2.03125,-0.65625 -0.75,-0.39062 -1.10937,-0.92187 -0.35938,-0.53125 -0.35938,-1.26563 0,-1.20312 1.01563,-2.03125 1.03125,-0.84375 2.625,-0.84375 1.67187,0 2.71875,0.85938 1.04687,0.85937 1.04687,2.21875 h -1.6875 q 0,-0.70313 -0.59375,-1.20313 -0.59375,-0.5 -1.48437,-0.5 -0.92188,0 -1.4375,0.40625 -0.51563,0.39063 -0.51563,1.04688 0,0.60937 0.48438,0.92187 0.48437,0.3125 1.73437,0.59375 1.26563,0.28125 2.04688,0.67188 0.78125,0.39062 1.15625,0.9375 0.39062,0.54687 0.39062,1.34375 0,1.32812 -1.0625,2.125 -1.04687,0.79687 -2.73437,0.79687 -1.1875,0 -2.10938,-0.42187 -0.90625,-0.42188 -1.42187,-1.17188 -0.51563,-0.75 -0.51563,-1.625 h 1.6875 q 0.0469,0.84375 0.67188,1.34375 0.64062,0.5 1.6875,0.5 0.95312,0 1.53125,-0.39062 0.57812,-0.39063 0.57812,-1.03125 z m 6.63526,-1.95313 -1.0625,1.09375 v 3.46875 h -1.6875 v -14 h 1.6875 v 8.46875 l 0.90625,-1.07812 3.0625,-3.25 h 2.04687 l -3.82812,4.125 4.28125,5.73437 h -1.98438 z m 15.22125,4.5625 h -8.6875 v -1.21875 l 4.57812,-5.09375 q 1.03125,-1.15625 1.40625,-1.875 0.39063,-0.73437 0.39063,-1.5 0,-1.04687 -0.625,-1.70312 -0.625,-0.67188 -1.67188,-0.67188 -1.26562,0 -1.96875,0.71875 -0.6875,0.71875 -0.6875,1.98438 h -1.6875 q 0,-1.82813 1.17188,-2.95313 1.1875,-1.14062 3.17187,-1.14062 1.84375,0 2.92188,0.98437 1.07812,0.96875 1.07812,2.57813 0,1.95312 -2.5,4.65625 l -3.54687,3.85937 h 6.65625 z m 5.85095,-5.29687 q 0,2.03125 -0.54688,3.90625 -0.53125,1.85937 -1.625,3.42187 -1.09375,1.57813 -2.29687,2.25 l -0.35938,-1.03125 q 1.40625,-1.07812 2.25,-3.32812 0.85938,-2.26563 0.875,-5.03125 v -0.29688 q 0,-1.90625 -0.40625,-3.54687 -0.39062,-1.65625 -1.10937,-2.95313 -0.71875,-1.29687 -1.60938,-2.03125 l 0.35938,-1.03125 q 1.20312,0.67188 2.28125,2.23438 1.09375,1.54687 1.64062,3.42187 0.54688,1.875 0.54688,4.01563 z"
       id="path105"
       inkscape:connector-curvature="0"
       style="fill:#434343;fill-rule:nonzero" />
    <path
       d="m 385.5853,355.00262 h 398.74014 v 67.55905 H 385.5853 Z"
       id="path107"
       inkscape:connector-curvature="0"
       style="fill:#fff2cc;fill-rule:evenodd" />
    <path
       d="m 524.4738,394.51465 q 0.89062,0 1.5625,-0.54687 0.6875,-0.54688 0.75,-1.375 h 1.59375 q -0.0469,0.84375 -0.57813,1.60937 -0.53125,0.76563 -1.4375,1.23438 -0.89062,0.45312 -1.89062,0.45312 -2.01563,0 -3.20313,-1.34375 -1.1875,-1.34375 -1.1875,-3.6875 v -0.28125 q 0,-1.4375 0.51563,-2.54687 0.53125,-1.125 1.51562,-1.73438 1,-0.625 2.34375,-0.625 1.65625,0 2.75,1 1.10938,0.98438 1.17188,2.5625 h -1.59375 q -0.0625,-0.95312 -0.71875,-1.5625 -0.65625,-0.625 -1.60938,-0.625 -1.28125,0 -2,0.92188 -0.70312,0.92187 -0.70312,2.67187 v 0.32813 q 0,1.70312 0.70312,2.625 0.70313,0.92187 2.01563,0.92187 z m 7.64038,1.1875 h -1.6875 v -14 h 1.6875 z m 2.24622,-5.01562 q 0,-1.45313 0.5625,-2.60938 0.57812,-1.15625 1.59375,-1.78125 1.01562,-0.625 2.3125,-0.625 2.01562,0 3.25,1.39063 1.25,1.39062 1.25,3.70312 v 0.125 q 0,1.4375 -0.54688,2.57813 -0.54687,1.14062 -1.57812,1.78125 -1.01563,0.64062 -2.35938,0.64062 -2,0 -3.25,-1.39062 -1.23437,-1.40625 -1.23437,-3.70313 z m 1.6875,0.20312 q 0,1.64063 0.76562,2.64063 0.76563,0.98437 2.03125,0.98437 1.29688,0 2.04688,-1 0.75,-1.01562 0.75,-2.82812 0,-1.625 -0.76563,-2.625 -0.76562,-1.01563 -2.04687,-1.01563 -1.25,0 -2.01563,1 -0.76562,0.98438 -0.76562,2.84375 z m 15.48364,3.84375 q -0.98438,1.15625 -2.89063,1.15625 -1.57812,0 -2.40625,-0.92187 -0.8125,-0.92188 -0.82812,-2.70313 v -6.42187 h 1.6875 v 6.375 q 0,2.23437 1.82812,2.23437 1.92188,0 2.5625,-1.4375 v -7.17187 h 1.6875 v 9.85937 h -1.60937 z m 3.78461,-4.04687 q 0,-2.26563 1.07812,-3.64063 1.07813,-1.375 2.8125,-1.375 1.73438,0 2.75,1.17188 v -5.14063 h 1.6875 v 14 h -1.54687 l -0.0937,-1.0625 q -1,1.25 -2.8125,1.25 -1.70313,0 -2.79688,-1.40625 -1.07812,-1.40625 -1.07812,-3.65625 z m 1.6875,0.20312 q 0,1.67188 0.6875,2.625 0.70312,0.9375 1.92187,0.9375 1.60938,0 2.34375,-1.4375 v -4.53125 q -0.76562,-1.39062 -2.32812,-1.39062 -1.23438,0 -1.9375,0.95312 -0.6875,0.95313 -0.6875,2.84375 z m 19.6087,2.20313 q 0,-0.6875 -0.51562,-1.0625 -0.51563,-0.375 -1.79688,-0.64063 -1.28125,-0.28125 -2.03125,-0.65625 -0.75,-0.39062 -1.10937,-0.92187 -0.35938,-0.53125 -0.35938,-1.26563 0,-1.20312 1.01563,-2.03125 1.03125,-0.84375 2.625,-0.84375 1.67187,0 2.71875,0.85938 1.04687,0.85937 1.04687,2.21875 h -1.6875 q 0,-0.70313 -0.59375,-1.20313 -0.59375,-0.5 -1.48437,-0.5 -0.92188,0 -1.4375,0.40625 -0.51563,0.39063 -0.51563,1.04688 0,0.60937 0.48438,0.92187 0.48437,0.3125 1.73437,0.59375 1.26563,0.28125 2.04688,0.67188 0.78125,0.39062 1.15625,0.9375 0.39062,0.54687 0.39062,1.34375 0,1.32812 -1.0625,2.125 -1.04687,0.79687 -2.73437,0.79687 -1.1875,0 -2.10938,-0.42187 -0.90625,-0.42188 -1.42187,-1.17188 -0.51563,-0.75 -0.51563,-1.625 h 1.6875 q 0.0469,0.84375 0.67188,1.34375 0.64062,0.5 1.6875,0.5 0.95312,0 1.53125,-0.39062 0.57812,-0.39063 0.57812,-1.03125 z m 7.83838,1.42187 q 0.89062,0 1.5625,-0.54687 0.6875,-0.54688 0.75,-1.375 h 1.59375 q -0.0469,0.84375 -0.57813,1.60937 -0.53125,0.76563 -1.4375,1.23438 -0.89062,0.45312 -1.89062,0.45312 -2.01563,0 -3.20313,-1.34375 -1.1875,-1.34375 -1.1875,-3.6875 v -0.28125 q 0,-1.4375 0.51563,-2.54687 0.53125,-1.125 1.51562,-1.73438 1,-0.625 2.34375,-0.625 1.65625,0 2.75,1 1.10938,0.98438 1.17188,2.5625 h -1.59375 q -0.0625,-0.95312 -0.71875,-1.5625 -0.65625,-0.625 -1.60938,-0.625 -1.28125,0 -2,0.92188 -0.70312,0.92187 -0.70312,2.67187 v 0.32813 q 0,1.70312 0.70312,2.625 0.70313,0.92187 2.01563,0.92187 z m 7.48413,-7.46875 q 1.125,-1.375 2.92188,-1.375 3.125,0 3.15625,3.51563 v 6.51562 h -1.6875 v -6.51562 q -0.0156,-1.07813 -0.5,-1.57813 -0.46875,-0.51562 -1.48438,-0.51562 -0.8125,0 -1.4375,0.4375 -0.60937,0.4375 -0.96875,1.15625 v 7.01562 h -1.67187 v -14 h 1.67187 z m 12.68176,8.84375 q -2,0 -3.26562,-1.3125 -1.25,-1.32812 -1.25,-3.53125 v -0.3125 q 0,-1.46875 0.5625,-2.60937 0.5625,-1.15625 1.5625,-1.79688 1.01562,-0.65625 2.1875,-0.65625 1.92187,0 2.98437,1.26563 1.0625,1.26562 1.0625,3.625 v 0.6875 h -6.67187 q 0.0312,1.46875 0.84375,2.375 0.82812,0.89062 2.07812,0.89062 0.89063,0 1.51563,-0.35937 0.625,-0.375 1.07812,-0.96875 l 1.03125,0.79687 q -1.23437,1.90625 -3.71875,1.90625 z m -0.20312,-8.84375 q -1.01563,0 -1.71875,0.75 -0.6875,0.73438 -0.84375,2.07813 h 4.9375 v -0.125 q -0.0781,-1.28125 -0.70313,-1.98438 -0.60937,-0.71875 -1.67187,-0.71875 z m 5.58697,3.64063 q 0,-2.26563 1.07813,-3.64063 1.07812,-1.375 2.8125,-1.375 1.73437,0 2.75,1.17188 v -5.14063 h 1.6875 v 14 h -1.54688 l -0.0937,-1.0625 q -1,1.25 -2.8125,1.25 -1.70312,0 -2.79687,-1.40625 -1.07813,-1.40625 -1.07813,-3.65625 z m 1.6875,0.20312 q 0,1.67188 0.6875,2.625 0.70313,0.9375 1.92188,0.9375 1.60937,0 2.34375,-1.4375 v -4.53125 q -0.76563,-1.39062 -2.32813,-1.39062 -1.23437,0 -1.9375,0.95312 -0.6875,0.95313 -0.6875,2.84375 z m 15.33393,3.84375 q -0.98438,1.15625 -2.89063,1.15625 -1.57812,0 -2.40625,-0.92187 -0.8125,-0.92188 -0.82812,-2.70313 v -6.42187 h 1.6875 v 6.375 q 0,2.23437 1.82812,2.23437 1.92188,0 2.5625,-1.4375 v -7.17187 h 1.6875 v 9.85937 h -1.60937 z m 6.03466,0.96875 h -1.6875 v -14 h 1.6875 z m 6.77741,0.1875 q -2,0 -3.26563,-1.3125 -1.25,-1.32812 -1.25,-3.53125 v -0.3125 q 0,-1.46875 0.5625,-2.60937 0.5625,-1.15625 1.5625,-1.79688 1.01563,-0.65625 2.1875,-0.65625 1.92188,0 2.98438,1.26563 1.0625,1.26562 1.0625,3.625 v 0.6875 h -6.67188 q 0.0312,1.46875 0.84375,2.375 0.82813,0.89062 2.07813,0.89062 0.89062,0 1.51562,-0.35937 0.625,-0.375 1.07813,-0.96875 l 1.03125,0.79687 q -1.23438,1.90625 -3.71875,1.90625 z m -0.20313,-8.84375 q -1.01562,0 -1.71875,0.75 -0.6875,0.73438 -0.84375,2.07813 h 4.9375 v -0.125 q -0.0781,-1.28125 -0.70312,-1.98438 -0.60938,-0.71875 -1.67188,-0.71875 z m 10.77442,0.3125 q -0.39063,-0.0625 -0.84375,-0.0625 -1.65625,0 -2.25,1.40625 v 7 h -1.67188 v -9.85937 h 1.64063 l 0.0156,1.14062 q 0.82813,-1.3125 2.35938,-1.3125 0.48437,0 0.75,0.125 z"
       id="path109"
       inkscape:connector-curvature="0"
       style="fill:#434343;fill-rule:nonzero" />
    <path
       d="m 644.4934,287.75348 h 17.00281 v -28 h 17.013"
       id="path111"
       inkscape:connector-curvature="0"
       style="fill:#000000;fill-opacity:0;fill-rule:evenodd" />
    <path
       d="m 650.4934,287.75348 h 11.00281 v -28 h 11.013"
       id="path113"
       inkscape:connector-curvature="0"
       style="fill-rule:evenodd;stroke:#000000;stroke-width:1;stroke-linecap:butt;stroke-linejoin:round" />
    <path
       d="m 650.4934,286.10175 -4.53809,1.65173 4.53809,1.65174 z"
       id="path115"
       inkscape:connector-curvature="0"
       style="fill:#000000;fill-rule:evenodd;stroke:#000000;stroke-width:1;stroke-linecap:butt" />
    <path
       d="m 672.5092,261.4052 4.53809,-1.65173 -4.53809,-1.65174 z"
       id="path117"
       inkscape:connector-curvature="0"
       style="fill:#000000;fill-rule:evenodd;stroke:#000000;stroke-width:1;stroke-linecap:butt" />
    <path
       d="m 644.4934,287.75348 h 17.00281 v 28 h 17.013"
       id="path119"
       inkscape:connector-curvature="0"
       style="fill:#000000;fill-opacity:0;fill-rule:evenodd" />
    <path
       d="m 644.4934,287.75348 h 17.00281 v 28 h 11.013"
       id="path121"
       inkscape:connector-curvature="0"
       style="fill-rule:evenodd;stroke:#000000;stroke-width:1;stroke-linecap:butt;stroke-linejoin:round" />
    <path
       d="m 672.5092,317.4052 4.53809,-1.65173 -4.53809,-1.65174 z"
       id="path123"
       inkscape:connector-curvature="0"
       style="fill:#000000;fill-rule:evenodd;stroke:#000000;stroke-width:1;stroke-linecap:butt" />
    <path
       d="m 540.8793,666.958 v -1.74805 h 0.063 v -1.74804"
       id="path125"
       inkscape:connector-curvature="0"
       style="fill:#000000;fill-opacity:0;fill-rule:evenodd" />
    <path
       d="m 540.8793,666.958 v -1.74805 h 0.063 v -1.74804"
       id="path127"
       inkscape:connector-curvature="0"
       style="fill-rule:evenodd;stroke:#000000;stroke-width:1;stroke-linecap:butt;stroke-linejoin:round" />
    <path
       d="m 644.4934,173.89784 h 17.00281 v -28 h 17.013"
       id="path129"
       inkscape:connector-curvature="0"
       style="fill:#000000;fill-opacity:0;fill-rule:evenodd" />
    <path
       d="m 650.4934,173.89784 h 11.00281 v -28.00002 h 11.013"
       id="path131"
       inkscape:connector-curvature="0"
       style="fill-rule:evenodd;stroke:#000000;stroke-width:1;stroke-linecap:butt;stroke-linejoin:round" />
    <path
       d="m 650.4934,172.24611 -4.53809,1.65173 4.53809,1.65174 z"
       id="path133"
       inkscape:connector-curvature="0"
       style="fill:#000000;fill-rule:evenodd;stroke:#000000;stroke-width:1;stroke-linecap:butt" />
    <path
       d="m 672.5092,147.54956 4.53809,-1.65173 -4.53809,-1.65174 z"
       id="path135"
       inkscape:connector-curvature="0"
       style="fill:#000000;fill-rule:evenodd;stroke:#000000;stroke-width:1;stroke-linecap:butt" />
    <path
       d="m 644.4934,173.89784 h 17.00281 v 28 h 17.013"
       id="path137"
       inkscape:connector-curvature="0"
       style="fill:#000000;fill-opacity:0;fill-rule:evenodd" />
    <path
       d="m 644.4934,173.89784 h 17.00281 v 28 h 11.013"
       id="path139"
       inkscape:connector-curvature="0"
       style="fill-rule:evenodd;stroke:#000000;stroke-width:1;stroke-linecap:butt;stroke-linejoin:round" />
    <path
       d="m 672.5092,203.54958 4.53809,-1.65173 -4.53809,-1.65174 z"
       id="path141"
       inkscape:connector-curvature="0"
       style="fill:#000000;fill-rule:evenodd;stroke:#000000;stroke-width:1;stroke-linecap:butt" />
    <path
       d="m 486.28354,229.00262 h 24.44339 v -53.29134 h 24.43848"
       id="path143"
       inkscape:connector-curvature="0"
       style="fill:#000000;fill-opacity:0;fill-rule:evenodd" />
    <path
       d="m 492.2835,229.00262 h 18.44339 v -53.29134 h 18.43851"
       id="path145"
       inkscape:connector-curvature="0"
       style="fill-rule:evenodd;stroke:#000000;stroke-width:1;stroke-linecap:butt;stroke-linejoin:round" />
    <path
       d="m 492.2835,227.35089 -4.53809,1.65173 4.53809,1.65174 z"
       id="path147"
       inkscape:connector-curvature="0"
       style="fill:#000000;fill-rule:evenodd;stroke:#000000;stroke-width:1;stroke-linecap:butt" />
    <path
       d="m 529.1654,177.36302 4.53809,-1.65173 -4.53809,-1.65174 z"
       id="path149"
       inkscape:connector-curvature="0"
       style="fill:#000000;fill-rule:evenodd;stroke:#000000;stroke-width:1;stroke-linecap:butt" />
    <path
       d="m 486.28354,229.00262 h 24.44339 v 58.74014 h 24.43848"
       id="path151"
       inkscape:connector-curvature="0"
       style="fill:#000000;fill-opacity:0;fill-rule:evenodd" />
    <path
       d="m 492.2835,229.00262 h 18.44339 v 58.74014 h 18.43851"
       id="path153"
       inkscape:connector-curvature="0"
       style="fill-rule:evenodd;stroke:#000000;stroke-width:1;stroke-linecap:butt;stroke-linejoin:round" />
    <path
       d="m 492.2835,227.35089 -4.53809,1.65173 4.53809,1.65174 z"
       id="path155"
       inkscape:connector-curvature="0"
       style="fill:#000000;fill-rule:evenodd;stroke:#000000;stroke-width:1;stroke-linecap:butt" />
    <path
       d="m 529.1654,289.3945 4.53809,-1.65173 -4.53809,-1.65171 z"
       id="path157"
       inkscape:connector-curvature="0"
       style="fill:#000000;fill-rule:evenodd;stroke:#000000;stroke-width:1;stroke-linecap:butt" />
    <path
       d="m 294.03412,183.36745 h 47.90454 v 45.6378 h 47.90649"
       id="path159"
       inkscape:connector-curvature="0"
       style="fill:#000000;fill-opacity:0;fill-rule:evenodd" />
    <path
       d="m 300.03412,183.36745 h 41.90454 v 45.6378 h 41.90649"
       id="path161"
       inkscape:connector-curvature="0"
       style="fill-rule:evenodd;stroke:#000000;stroke-width:1;stroke-linecap:butt;stroke-linejoin:round" />
    <path
       d="m 300.03412,181.71573 -4.53809,1.65172 4.53809,1.65173 z"
       id="path163"
       inkscape:connector-curvature="0"
       style="fill:#000000;fill-rule:evenodd;stroke:#000000;stroke-width:1;stroke-linecap:butt" />
    <path
       d="m 383.84515,230.65698 4.53809,-1.65173 -4.53809,-1.65174 z"
       id="path165"
       inkscape:connector-curvature="0"
       style="fill:#000000;fill-rule:evenodd;stroke:#000000;stroke-width:1;stroke-linecap:butt" />
    <path
       d="m 294.03412,269.0013 h 47.90454 v -40 h 47.90649"
       id="path167"
       inkscape:connector-curvature="0"
       style="fill:#000000;fill-opacity:0;fill-rule:evenodd" />
    <path
       d="m 300.03412,269.0013 h 41.90454 v -40 h 41.90649"
       id="path169"
       inkscape:connector-curvature="0"
       style="fill-rule:evenodd;stroke:#000000;stroke-width:1;stroke-linecap:butt;stroke-linejoin:round" />
    <path
       d="m 300.03412,267.34958 -4.53809,1.65173 4.53809,1.65174 z"
       id="path171"
       inkscape:connector-curvature="0"
       style="fill:#000000;fill-rule:evenodd;stroke:#000000;stroke-width:1;stroke-linecap:butt" />
    <path
       d="m 383.84515,230.65305 4.53809,-1.65173 -4.53809,-1.65174 z"
       id="path173"
       inkscape:connector-curvature="0"
       style="fill:#000000;fill-rule:evenodd;stroke:#000000;stroke-width:1;stroke-linecap:butt" />
  </g>
</svg>
