<?xml version="1.0" encoding="UTF-8" standalone="no"?>
<svg
   xmlns:dc="http://purl.org/dc/elements/1.1/"
   xmlns:cc="http://creativecommons.org/ns#"
   xmlns:rdf="http://www.w3.org/1999/02/22-rdf-syntax-ns#"
   xmlns:svg="http://www.w3.org/2000/svg"
   xmlns="http://www.w3.org/2000/svg"
   xmlns:sodipodi="http://sodipodi.sourceforge.net/DTD/sodipodi-0.dtd"
   xmlns:inkscape="http://www.inkscape.org/namespaces/inkscape"
   version="1.1"
   viewBox="0 0 960 520"
   stroke-miterlimit="10"
   id="svg77"
   sodipodi:docname="sc_stack.svg"
   width="960"
   height="520"
   style="fill:none;stroke:none;stroke-linecap:square;stroke-miterlimit:10"
   inkscape:version="0.92.5 (2060ec1f9f, 2020-04-08)">
  <metadata
     id="metadata83">
    <rdf:RDF>
      <cc:Work
         rdf:about="">
        <dc:format>image/svg+xml</dc:format>
        <dc:type
           rdf:resource="http://purl.org/dc/dcmitype/StillImage" />
        <dc:title></dc:title>
      </cc:Work>
    </rdf:RDF>
  </metadata>
  <defs
     id="defs81" />
  <sodipodi:namedview
     pagecolor="#ffffff"
     bordercolor="#666666"
     borderopacity="1"
     objecttolerance="10"
     gridtolerance="10"
     guidetolerance="10"
     inkscape:pageopacity="0"
     inkscape:pageshadow="2"
     inkscape:window-width="1848"
     inkscape:window-height="1016"
     id="namedview79"
     showgrid="false"
     inkscape:zoom="0.92709556"
     inkscape:cx="480"
     inkscape:cy="360"
     inkscape:window-x="72"
     inkscape:window-y="27"
     inkscape:window-maximized="1"
     inkscape:current-layer="svg77" />
  <clipPath
     id="p.0">
    <path
       d="M 0,0 H 960 V 720 H 0 Z"
       id="path2"
       inkscape:connector-curvature="0"
       style="clip-rule:nonzero" />
  </clipPath>
  <g
     clip-path="url(#p.0)"
     id="g75"
     transform="translate(46,-58)">
    <path
       d="M 0,0 H 960 V 720 H 0 Z"
       id="path5"
       inkscape:connector-curvature="0"
       style="fill:#000000;fill-opacity:0;fill-rule:evenodd" />
    <path
       d="M 34.587925,484.22308 H 433.42258 v 89.88977 H 34.587925 Z"
       id="path7"
       inkscape:connector-curvature="0"
       style="fill:#ea9999;fill-rule:evenodd" />
    <path
       d="M 34.587925,484.22308 H 433.42258 v 89.88977 H 34.587925 Z"
       id="path9"
       inkscape:connector-curvature="0"
       style="fill-rule:evenodd;stroke:#666666;stroke-width:2;stroke-linecap:butt;stroke-linejoin:round" />
    <path
       d="m 215.66989,536.08795 v -13.35938 h 9.90625 v 2.26563 h -7.21875 v 2.95312 h 6.71875 v 2.25 h -6.71875 v 3.64063 h 7.46875 v 2.25 z m 12.42795,-13.35938 h 4.9375 q 1.65625,0 2.53125,0.26563 1.1875,0.34375 2.01562,1.23437 0.84375,0.875 1.28125,2.15625 0.4375,1.28125 0.4375,3.15625 0,1.64063 -0.40625,2.84375 -0.5,1.45313 -1.4375,2.35938 -0.70312,0.67187 -1.89062,1.0625 -0.89063,0.28125 -2.39063,0.28125 h -5.07812 z m 2.70312,2.26563 v 8.84375 h 2.01563 q 1.125,0 1.625,-0.125 0.65625,-0.17188 1.07812,-0.5625 0.4375,-0.39063 0.70313,-1.28125 0.28125,-0.90625 0.28125,-2.45313 0,-1.54687 -0.28125,-2.375 -0.26563,-0.82812 -0.76563,-1.28125 -0.48437,-0.46875 -1.23437,-0.64062 -0.5625,-0.125 -2.21875,-0.125 z m 22.83232,11.09375 h -2.9375 l -1.17187,-3.03125 h -5.32813 l -1.10937,3.03125 h -2.85938 l 5.20313,-13.35938 h 2.84375 z m -4.96875,-5.28125 -1.84375,-4.95313 -1.79687,4.95313 z"
       id="path11"
       inkscape:connector-curvature="0"
       style="fill:#434343;fill-rule:nonzero" />
    <path
       d="M 34.587925,379.11542 H 847.40678 v 89.88974 H 34.587925 Z"
       id="path13"
       inkscape:connector-curvature="0"
       style="fill:#b6d7a8;fill-rule:evenodd" />
    <path
       d="M 34.587925,379.11542 H 847.40678 v 89.88974 H 34.587925 Z"
       id="path15"
       inkscape:connector-curvature="0"
       style="fill-rule:evenodd;stroke:#666666;stroke-width:2;stroke-linecap:butt;stroke-linejoin:round" />
    <path
       d="m 428.711,411.63654 2.625,-0.25 q 0.23438,1.3125 0.95313,1.9375 0.73437,0.60938 1.96875,0.60938 1.29687,0 1.95312,-0.54688 0.67188,-0.54687 0.67188,-1.28125 0,-0.48437 -0.28125,-0.8125 -0.28125,-0.32812 -0.96875,-0.57812 -0.48438,-0.15625 -2.17188,-0.57813 -2.15625,-0.54687 -3.03125,-1.32812 -1.23437,-1.09375 -1.23437,-2.6875 0,-1.01563 0.57812,-1.90625 0.57813,-0.89063 1.65625,-1.34375 1.09375,-0.46875 2.64063,-0.46875 2.51562,0 3.78125,1.10937 1.28125,1.09375 1.34375,2.9375 l -2.70313,0.10938 q -0.17187,-1.03125 -0.75,-1.46875 -0.5625,-0.45313 -1.70312,-0.45313 -1.17188,0 -1.84375,0.46875 -0.42188,0.3125 -0.42188,0.84375 0,0.46875 0.40625,0.79688 0.5,0.4375 2.46875,0.90625 1.96875,0.45312 2.90625,0.95312 0.95313,0.5 1.48438,1.35938 0.53125,0.85937 0.53125,2.125 0,1.15625 -0.64063,2.15625 -0.64062,1 -1.8125,1.48437 -1.15625,0.48438 -2.89062,0.48438 -2.53125,0 -3.89063,-1.17188 -1.35937,-1.17187 -1.625,-3.40625 z m 21.67795,-0.5625 2.60937,0.82813 q -0.59375,2.1875 -2,3.25 -1.39062,1.0625 -3.54687,1.0625 -2.65625,0 -4.375,-1.8125 -1.70313,-1.82813 -1.70313,-4.98438 0,-3.32812 1.71875,-5.17187 1.71875,-1.84375 4.51563,-1.84375 2.45312,0 3.98437,1.4375 0.92188,0.85937 1.375,2.46875 l -2.67187,0.64062 q -0.23438,-1.04687 -0.98438,-1.64062 -0.75,-0.60938 -1.82812,-0.60938 -1.48438,0 -2.42188,1.07813 -0.92187,1.0625 -0.92187,3.4375 0,2.53125 0.90625,3.60937 0.92187,1.07813 2.375,1.07813 1.07812,0 1.84375,-0.67188 0.78125,-0.6875 1.125,-2.15625 z"
       id="path17"
       inkscape:connector-curvature="0"
       style="fill:#434343;fill-rule:nonzero" />
    <path
       d="m 408.48337,437.63654 2.625,-0.25 q 0.23437,1.3125 0.95312,1.9375 0.73438,0.60938 1.96875,0.60938 1.29688,0 1.95313,-0.54688 0.67187,-0.54687 0.67187,-1.28125 0,-0.48437 -0.28125,-0.8125 -0.28125,-0.32812 -0.96875,-0.57812 -0.48437,-0.15625 -2.17187,-0.57813 -2.15625,-0.54687 -3.03125,-1.32812 -1.23438,-1.09375 -1.23438,-2.6875 0,-1.01563 0.57813,-1.90625 0.57812,-0.89063 1.65625,-1.34375 1.09375,-0.46875 2.64062,-0.46875 2.51563,0 3.78125,1.10937 1.28125,1.09375 1.34375,2.9375 l -2.70312,0.10938 q -0.17188,-1.03125 -0.75,-1.46875 -0.5625,-0.45313 -1.70313,-0.45313 -1.17187,0 -1.84375,0.46875 -0.42187,0.3125 -0.42187,0.84375 0,0.46875 0.40625,0.79688 0.5,0.4375 2.46875,0.90625 1.96875,0.45312 2.90625,0.95312 0.95312,0.5 1.48437,1.35938 0.53125,0.85937 0.53125,2.125 0,1.15625 -0.64062,2.15625 -0.64063,1 -1.8125,1.48437 -1.15625,0.48438 -2.89063,0.48438 -2.53125,0 -3.89062,-1.17188 -1.35938,-1.17187 -1.625,-3.40625 z m 21.55292,-2.46875 -2.53125,0.45313 q -0.125,-0.75 -0.57813,-1.125 -0.45312,-0.39063 -1.17187,-0.39063 -0.95313,0 -1.53125,0.65625 -0.5625,0.65625 -0.5625,2.20313 0,1.73437 0.57812,2.4375 0.57813,0.70312 1.54688,0.70312 0.73437,0 1.20312,-0.40625 0.46875,-0.42187 0.65625,-1.42187 l 2.51563,0.42187 q -0.39063,1.73438 -1.51563,2.625 -1.10937,0.875 -2.96875,0.875 -2.125,0 -3.39062,-1.32812 -1.25,-1.34375 -1.25,-3.71875 0,-2.39063 1.26562,-3.71875 1.26563,-1.34375 3.42188,-1.34375 1.76562,0 2.79687,0.76562 1.04688,0.75 1.51563,2.3125 z m 4.4851,-6.54687 v 4.92187 q 1.23438,-1.45312 2.95313,-1.45312 0.89062,0 1.59375,0.32812 0.71875,0.32813 1.07812,0.84375 0.35938,0.5 0.48438,1.125 0.14062,0.60938 0.14062,1.92188 v 5.67187 h -2.5625 v -5.10937 q 0,-1.51563 -0.15625,-1.92188 -0.14062,-0.42187 -0.51562,-0.65625 -0.35938,-0.25 -0.90625,-0.25 -0.64063,0 -1.14063,0.3125 -0.5,0.3125 -0.73437,0.9375 -0.23438,0.625 -0.23438,1.84375 v 4.84375 h -2.5625 v -13.35937 z m 14.44288,10.28125 2.54687,0.42187 q -0.48437,1.40625 -1.54687,2.14063 -1.0625,0.73437 -2.65625,0.73437 -2.51563,0 -3.73438,-1.65625 -0.95312,-1.3125 -0.95312,-3.32812 0,-2.40625 1.25,-3.76563 1.26562,-1.35937 3.1875,-1.35937 2.15625,0 3.40625,1.42187 1.25,1.42188 1.1875,4.375 h -6.40625 q 0.0312,1.14063 0.60937,1.78125 0.59375,0.625 1.48438,0.625 0.59375,0 1,-0.32812 0.42187,-0.32813 0.625,-1.0625 z m 0.15625,-2.59375 q -0.0312,-1.10938 -0.57813,-1.6875 -0.54687,-0.57813 -1.32812,-0.57813 -0.84375,0 -1.39063,0.60938 -0.54687,0.60937 -0.53125,1.65625 z m 4.42257,-4 h 2.35938 v 1.3125 q 1.26562,-1.53125 3.01562,-1.53125 0.9375,0 1.60938,0.39062 0.6875,0.375 1.125,1.14063 0.64062,-0.76563 1.375,-1.14063 0.75,-0.39062 1.57812,-0.39062 1.0625,0 1.79688,0.4375 0.75,0.42187 1.10937,1.26562 0.26563,0.625 0.26563,2 v 6.1875 h -2.5625 v -5.53125 q 0,-1.4375 -0.26563,-1.85937 -0.34375,-0.54688 -1.09375,-0.54688 -0.53125,0 -1.01562,0.32813 -0.46875,0.32812 -0.67188,0.96875 -0.20312,0.625 -0.20312,2 v 4.64062 h -2.5625 v -5.29687 q 0,-1.42188 -0.14063,-1.82813 -0.14062,-0.40625 -0.42187,-0.60937 -0.28125,-0.20313 -0.78125,-0.20313 -0.59375,0 -1.0625,0.32813 -0.46875,0.3125 -0.6875,0.92187 -0.20313,0.59375 -0.20313,1.98438 v 4.70312 h -2.5625 z m 18.69779,2.95312 -2.32813,-0.42187 q 0.40625,-1.40625 1.35938,-2.07813 0.95312,-0.67187 2.84375,-0.67187 1.70312,0 2.54687,0.40625 0.84375,0.40625 1.17188,1.03125 0.34375,0.625 0.34375,2.28125 l -0.0156,3 q 0,1.26562 0.10938,1.875 0.125,0.60937 0.46875,1.29687 h -2.53125 q -0.10938,-0.25 -0.25,-0.75 -0.0625,-0.23437 -0.0937,-0.3125 -0.65625,0.64063 -1.40625,0.96875 -0.73438,0.3125 -1.59375,0.3125 -1.48438,0 -2.34375,-0.8125 -0.85938,-0.8125 -0.85938,-2.04687 0,-0.82813 0.39063,-1.46875 0.39062,-0.64063 1.09375,-0.96875 0.70312,-0.34375 2.03125,-0.60938 1.79687,-0.32812 2.48437,-0.625 v -0.25 q 0,-0.75 -0.35937,-1.0625 -0.35938,-0.3125 -1.375,-0.3125 -0.6875,0 -1.07813,0.28125 -0.375,0.26563 -0.60937,0.9375 z m 3.42187,2.07813 q -0.48437,0.15625 -1.5625,0.39062 -1.0625,0.21875 -1.39062,0.4375 -0.5,0.35938 -0.5,0.90625 0,0.53125 0.40625,0.9375 0.40625,0.39063 1.01562,0.39063 0.70313,0 1.32813,-0.46875 0.46875,-0.34375 0.60937,-0.84375 0.0937,-0.32813 0.0937,-1.25 z"
       id="path19"
       inkscape:connector-curvature="0"
       style="fill:#434343;fill-rule:nonzero" />
    <path
       d="M 34.587925,273.92914 H 847.40678 v 89.88977 H 34.587925 Z"
       id="path21"
       inkscape:connector-curvature="0"
       style="fill:#b6d7a8;fill-rule:evenodd" />
    <path
       d="M 34.587925,273.92914 H 847.40678 v 89.88977 H 34.587925 Z"
       id="path23"
       inkscape:connector-curvature="0"
       style="fill-rule:evenodd;stroke:#666666;stroke-width:2;stroke-linecap:butt;stroke-linejoin:round" />
    <path
       d="m 428.711,306.45026 2.625,-0.25 q 0.23438,1.3125 0.95313,1.9375 0.73437,0.60938 1.96875,0.60938 1.29687,0 1.95312,-0.54688 0.67188,-0.54687 0.67188,-1.28125 0,-0.48437 -0.28125,-0.8125 -0.28125,-0.32812 -0.96875,-0.57812 -0.48438,-0.15625 -2.17188,-0.57813 -2.15625,-0.54687 -3.03125,-1.32812 -1.23437,-1.09375 -1.23437,-2.6875 0,-1.01563 0.57812,-1.90625 0.57813,-0.89063 1.65625,-1.34375 1.09375,-0.46875 2.64063,-0.46875 2.51562,0 3.78125,1.10937 1.28125,1.09375 1.34375,2.9375 l -2.70313,0.10938 q -0.17187,-1.03125 -0.75,-1.46875 -0.5625,-0.45313 -1.70312,-0.45313 -1.17188,0 -1.84375,0.46875 -0.42188,0.3125 -0.42188,0.84375 0,0.46875 0.40625,0.79688 0.5,0.4375 2.46875,0.90625 1.96875,0.45312 2.90625,0.95312 0.95313,0.5 1.48438,1.35938 0.53125,0.85937 0.53125,2.125 0,1.15625 -0.64063,2.15625 -0.64062,1 -1.8125,1.48437 -1.15625,0.48438 -2.89062,0.48438 -2.53125,0 -3.89063,-1.17188 -1.35937,-1.17187 -1.625,-3.40625 z m 21.67795,-0.5625 2.60937,0.82813 q -0.59375,2.1875 -2,3.25 -1.39062,1.0625 -3.54687,1.0625 -2.65625,0 -4.375,-1.8125 -1.70313,-1.82813 -1.70313,-4.98438 0,-3.32812 1.71875,-5.17187 1.71875,-1.84375 4.51563,-1.84375 2.45312,0 3.98437,1.4375 0.92188,0.85937 1.375,2.46875 l -2.67187,0.64062 q -0.23438,-1.04687 -0.98438,-1.64062 -0.75,-0.60938 -1.82812,-0.60938 -1.48438,0 -2.42188,1.07813 -0.92187,1.0625 -0.92187,3.4375 0,2.53125 0.90625,3.60937 0.92187,1.07813 2.375,1.07813 1.07812,0 1.84375,-0.67188 0.78125,-0.6875 1.125,-2.15625 z"
       id="path25"
       inkscape:connector-curvature="0"
       style="fill:#434343;fill-rule:nonzero" />
    <path
       d="m 395.54324,336.794 v -13.35938 h 4.32813 q 2.45312,0 3.20312,0.20313 1.14063,0.29687 1.92188,1.3125 0.78125,1 0.78125,2.59375 0,1.23437 -0.45313,2.07812 -0.45312,0.82813 -1.14062,1.3125 -0.6875,0.46875 -1.39063,0.625 -0.96875,0.20313 -2.79687,0.20313 h -1.76563 v 5.03125 z m 2.6875,-11.09375 v 3.78125 h 1.48438 q 1.59375,0 2.125,-0.20313 0.54687,-0.20312 0.84375,-0.65625 0.3125,-0.45312 0.3125,-1.03125 0,-0.73437 -0.4375,-1.20312 -0.42188,-0.48438 -1.07813,-0.59375 -0.48437,-0.0937 -1.9375,-0.0937 z m 8.52167,1.42187 h 2.71875 l 2.32812,6.85938 2.25,-6.85938 h 2.65625 l -3.42187,9.3125 -0.60938,1.6875 q -0.32812,0.84375 -0.64062,1.28125 -0.3125,0.45313 -0.70313,0.71875 -0.39062,0.28125 -0.96875,0.4375 -0.57812,0.15625 -1.3125,0.15625 -0.73437,0 -1.45312,-0.15625 l -0.21875,-2 q 0.59375,0.125 1.07812,0.125 0.89063,0 1.3125,-0.53125 0.4375,-0.51562 0.67188,-1.32812 z m 16.03198,0 v 2.03125 h -1.75 v 3.90625 q 0,1.1875 0.0469,1.39063 0.0469,0.1875 0.21875,0.3125 0.1875,0.125 0.4375,0.125 0.35938,0 1.03125,-0.25 l 0.21875,2 q -0.89062,0.375 -2.01562,0.375 -0.70313,0 -1.26563,-0.23438 -0.54687,-0.23437 -0.8125,-0.59375 -0.25,-0.375 -0.34375,-1 -0.0937,-0.45312 -0.0937,-1.8125 v -4.21875 h -1.17187 v -2.03125 h 1.17187 v -1.92187 l 2.57813,-1.5 v 3.42187 z m 4.32205,-3.6875 v 4.92188 q 1.23438,-1.45313 2.95313,-1.45313 0.89062,0 1.59375,0.32813 0.71875,0.32812 1.07812,0.84375 0.35938,0.5 0.48438,1.125 0.14062,0.60937 0.14062,1.92187 v 5.67188 h -2.5625 v -5.10938 q 0,-1.51562 -0.15625,-1.92187 -0.14062,-0.42188 -0.51562,-0.65625 -0.35938,-0.25 -0.90625,-0.25 -0.64063,0 -1.14063,0.3125 -0.5,0.3125 -0.73437,0.9375 -0.23438,0.625 -0.23438,1.84375 v 4.84375 h -2.5625 v -13.35938 z m 8.25534,8.39063 q 0,-1.28125 0.625,-2.46875 0.625,-1.20313 1.78125,-1.82813 1.15625,-0.625 2.57813,-0.625 2.1875,0 3.59375,1.42188 1.40625,1.42187 1.40625,3.60937 0,2.1875 -1.42188,3.64063 -1.42187,1.4375 -3.5625,1.4375 -1.32812,0 -2.54687,-0.59375 -1.20313,-0.60938 -1.82813,-1.76563 -0.625,-1.17187 -0.625,-2.82812 z m 2.625,0.125 q 0,1.45312 0.67188,2.21875 0.6875,0.75 1.6875,0.75 1,0 1.67187,-0.75 0.6875,-0.76563 0.6875,-2.23438 0,-1.42187 -0.6875,-2.1875 -0.67187,-0.76562 -1.67187,-0.76562 -1,0 -1.6875,0.76562 -0.67188,0.76563 -0.67188,2.20313 z m 18.16162,4.84375 h -2.5625 v -4.9375 q 0,-1.5625 -0.17187,-2.01563 -0.15625,-0.46875 -0.53125,-0.71875 -0.35938,-0.26562 -0.875,-0.26562 -0.67188,0 -1.20313,0.375 -0.53125,0.35937 -0.73437,0.96875 -0.1875,0.59375 -0.1875,2.21875 v 4.375 h -2.54688 v -9.67188 h 2.375 v 1.42188 q 1.26563,-1.64063 3.1875,-1.64063 0.84375,0 1.54688,0.3125 0.70312,0.29688 1.0625,0.78125 0.35937,0.46875 0.5,1.07813 0.14062,0.59375 0.14062,1.70312 z m 19.15223,0 h -2.9375 l -1.17188,-3.03125 h -5.32812 l -1.10938,3.03125 h -2.85937 l 5.20312,-13.35938 h 2.84375 z m -4.96875,-5.28125 -1.84375,-4.95313 -1.79688,4.95313 z m 6.3948,5.28125 v -13.35938 h 4.32813 q 2.45312,0 3.20312,0.20313 1.14063,0.29687 1.92188,1.3125 0.78125,1 0.78125,2.59375 0,1.23437 -0.45313,2.07812 -0.45312,0.82813 -1.14062,1.3125 -0.6875,0.46875 -1.39063,0.625 -0.96875,0.20313 -2.79687,0.20313 h -1.76563 v 5.03125 z m 2.6875,-11.09375 v 3.78125 h 1.48438 q 1.59375,0 2.125,-0.20313 0.54687,-0.20312 0.84375,-0.65625 0.3125,-0.45312 0.3125,-1.03125 0,-0.73437 -0.4375,-1.20312 -0.42188,-0.48438 -1.07813,-0.59375 -0.48437,-0.0937 -1.9375,-0.0937 z m 9.67795,11.09375 v -13.35938 h 2.6875 V 336.794 Z"
       id="path27"
       inkscape:connector-curvature="0"
       style="fill:#434343;fill-rule:nonzero" />
    <path
       d="M 34.587925,168.74278 H 152.91864 v 89.88976 H 34.587925 Z"
       id="path29"
       inkscape:connector-curvature="0"
       style="fill:#ffe599;fill-rule:evenodd" />
    <path
       d="M 34.587925,168.74278 H 152.91864 v 89.88976 H 34.587925 Z"
       id="path31"
       inkscape:connector-curvature="0"
       style="fill-rule:evenodd;stroke:#666666;stroke-width:2;stroke-linecap:butt;stroke-linejoin:round" />
    <path
       d="m 81.466896,201.26392 2.625,-0.25 q 0.234375,1.3125 0.953125,1.9375 0.734375,0.60938 1.96875,0.60938 1.296875,0 1.953125,-0.54688 0.671875,-0.54687 0.671875,-1.28125 0,-0.48437 -0.28125,-0.8125 -0.28125,-0.32812 -0.96875,-0.57812 -0.484375,-0.15625 -2.171875,-0.57813 -2.15625,-0.54687 -3.03125,-1.32812 -1.234375,-1.09375 -1.234375,-2.6875 0,-1.01563 0.578125,-1.90625 0.578125,-0.89063 1.65625,-1.34375 1.09375,-0.46875 2.640625,-0.46875 2.515625,0 3.78125,1.10937 1.28125,1.09375 1.34375,2.9375 l -2.703125,0.10938 q -0.171875,-1.03125 -0.75,-1.46875 -0.5625,-0.45313 -1.703125,-0.45313 -1.171875,0 -1.84375,0.46875 -0.421875,0.3125 -0.421875,0.84375 0,0.46875 0.40625,0.79688 0.5,0.4375 2.46875,0.90625 1.96875,0.45312 2.90625,0.95312 0.953125,0.5 1.484375,1.35938 0.53125,0.85937 0.53125,2.125 0,1.15625 -0.640625,2.15625 -0.640625,1 -1.8125,1.48437 -1.15625,0.48438 -2.890625,0.48438 -2.53125,0 -3.890625,-1.17188 -1.359375,-1.17187 -1.625,-3.40625 z m 21.677944,-0.5625 2.60938,0.82813 q -0.59375,2.1875 -2,3.25 -1.39063,1.0625 -3.54688,1.0625 -2.656246,0 -4.374996,-1.8125 -1.703125,-1.82813 -1.703125,-4.98438 0,-3.32812 1.71875,-5.17187 1.71875,-1.84375 4.515621,-1.84375 2.45313,0 3.98438,1.4375 0.92187,0.85937 1.375,2.46875 l -2.67188,0.64062 q -0.23437,-1.04687 -0.98437,-1.64062 -0.75,-0.60938 -1.82813,-0.60938 -1.484371,0 -2.421871,1.07813 -0.921875,1.0625 -0.921875,3.4375 0,2.53125 0.90625,3.60937 0.921875,1.07813 2.374996,1.07813 1.07813,0 1.84375,-0.67188 0.78125,-0.6875 1.125,-2.15625 z"
       id="path33"
       inkscape:connector-curvature="0"
       style="fill:#434343;fill-rule:nonzero" />
    <path
       d="M 58.301178,231.60767 V 218.2483 h 4.328125 q 2.453125,0 3.203125,0.20312 1.140625,0.29688 1.921875,1.3125 0.78125,1 0.78125,2.59375 0,1.23438 -0.453125,2.07813 -0.453125,0.82812 -1.140625,1.3125 -0.6875,0.46875 -1.390625,0.625 -0.96875,0.20312 -2.796875,0.20312 h -1.765625 v 5.03125 z m 2.6875,-11.09375 v 3.78125 h 1.484375 q 1.59375,0 2.125,-0.20312 0.546875,-0.20313 0.84375,-0.65625 0.3125,-0.45313 0.3125,-1.03125 0,-0.73438 -0.4375,-1.20313 -0.421875,-0.48437 -1.078125,-0.59375 -0.484375,-0.0937 -1.9375,-0.0937 z m 12.193573,11.09375 h -2.5625 v -9.67187 h 2.375 v 1.375 q 0.609375,-0.98438 1.09375,-1.28125 0.484375,-0.3125 1.109375,-0.3125 0.875,0 1.6875,0.48437 l -0.796875,2.23438 q -0.640625,-0.42188 -1.203125,-0.42188 -0.53125,0 -0.90625,0.29688 -0.375,0.29687 -0.59375,1.07812 -0.203125,0.76563 -0.203125,3.23438 z m 4.213394,-4.96875 q 0,-1.28125 0.625,-2.46875 0.625,-1.20312 1.78125,-1.82812 1.15625,-0.625 2.578125,-0.625 2.1875,0 3.59375,1.42187 1.40625,1.42188 1.40625,3.60938 0,2.1875 -1.421875,3.64062 -1.421875,1.4375 -3.5625,1.4375 -1.328125,0 -2.546875,-0.59375 -1.203125,-0.60937 -1.828125,-1.76562 -0.625,-1.17188 -0.625,-2.82813 z m 2.625,0.125 q 0,1.45313 0.671875,2.21875 0.6875,0.75 1.6875,0.75 1,0 1.671875,-0.75 0.6875,-0.76562 0.6875,-2.23437 0,-1.42188 -0.6875,-2.1875 -0.671875,-0.76563 -1.671875,-0.76563 -1,0 -1.6875,0.76563 -0.671875,0.76562 -0.671875,2.20312 z m 9.302231,-6.14062 v -2.375 h 2.5625 v 2.375 z m 2.5625,1.3125 v 9.375 q 0,1.84375 -0.25,2.59375 -0.234375,0.76562 -0.921875,1.1875 -0.6875,0.4375 -1.75,0.4375 -0.390625,0 -0.828125,-0.0625 -0.4375,-0.0625 -0.953125,-0.20313 l 0.453125,-2.1875 q 0.171875,0.0312 0.34375,0.0469 0.15625,0.0312 0.296875,0.0312 0.390625,0 0.640625,-0.17188 0.25,-0.15625 0.328125,-0.40625 0.07813,-0.23437 0.07813,-1.42187 v -9.21875 z m 8.277064,6.59375 2.54687,0.42187 q -0.48437,1.40625 -1.54687,2.14063 -1.0625,0.73437 -2.656261,0.73437 -2.515625,0 -3.734375,-1.65625 -0.953125,-1.3125 -0.953125,-3.32812 0,-2.40625 1.25,-3.76563 1.265625,-1.35937 3.1875,-1.35937 2.156261,0 3.406261,1.42187 1.25,1.42188 1.1875,4.375 h -6.406261 q 0.03125,1.14063 0.609375,1.78125 0.59375,0.625 1.484375,0.625 0.593758,0 1.000008,-0.32812 0.421875,-0.32813 0.625003,-1.0625 z m 0.15625,-2.59375 q -0.0312,-1.10938 -0.578128,-1.6875 -0.546875,-0.57813 -1.328133,-0.57813 -0.84375,0 -1.390625,0.60938 -0.546875,0.60937 -0.53125,1.65625 z m 13.06321,-1.14063 -2.53125,0.45313 q -0.125,-0.75 -0.57812,-1.125 -0.45313,-0.39063 -1.17188,-0.39063 -0.95312,0 -1.53125,0.65625 -0.5625,0.65625 -0.5625,2.20313 0,1.73437 0.57813,2.4375 0.57812,0.70312 1.54687,0.70312 0.73438,0 1.20313,-0.40625 0.46875,-0.42187 0.65625,-1.42187 l 2.51562,0.42187 q -0.39062,1.73438 -1.51562,2.625 -1.10938,0.875 -2.96875,0.875 -2.125,0 -3.39063,-1.32812 -1.25,-1.34375 -1.25,-3.71875 0,-2.39063 1.26563,-3.71875 1.26562,-1.34375 3.42187,-1.34375 1.76563,0 2.79688,0.76562 1.04687,0.75 1.51562,2.3125 z m 6.37572,-2.85937 v 2.03125 h -1.75 v 3.90625 q 0,1.1875 0.0469,1.39062 0.0469,0.1875 0.21875,0.3125 0.1875,0.125 0.4375,0.125 0.35937,0 1.03125,-0.25 l 0.21875,2 q -0.89063,0.375 -2.01563,0.375 -0.70312,0 -1.26562,-0.23437 -0.54688,-0.23438 -0.8125,-0.59375 -0.25,-0.375 -0.34375,-1 -0.0937,-0.45313 -0.0937,-1.8125 v -4.21875 h -1.17188 v -2.03125 h 1.17188 v -1.92188 l 2.57812,-1.5 v 3.42188 z m 0.86893,6.90625 2.5625,-0.39063 q 0.17187,0.75 0.67187,1.14063 0.5,0.39062 1.40625,0.39062 0.98438,0 1.48438,-0.375 0.34375,-0.25 0.34375,-0.67187 0,-0.29688 -0.1875,-0.48438 -0.1875,-0.1875 -0.85938,-0.34375 -3.09375,-0.6875 -3.92187,-1.25 -1.14063,-0.78125 -1.14063,-2.17187 0,-1.26563 0.98438,-2.10938 1,-0.85937 3.07812,-0.85937 1.98438,0 2.95312,0.65625 0.96875,0.64062 1.32813,1.90625 l -2.40625,0.4375 q -0.15625,-0.5625 -0.59375,-0.85938 -0.42187,-0.29687 -1.23437,-0.29687 -1,0 -1.4375,0.28125 -0.29688,0.20312 -0.29688,0.51562 0,0.26563 0.25,0.46875 0.34375,0.25 2.39063,0.71875 2.04687,0.45313 2.85937,1.14063 0.79687,0.67187 0.79687,1.89062 0,1.34375 -1.10937,2.29688 -1.10937,0.95312 -3.28125,0.95312 -1.98437,0 -3.14062,-0.79687 -1.14063,-0.8125 -1.5,-2.1875 z"
       id="path35"
       inkscape:connector-curvature="0"
       style="fill:#434343;fill-rule:nonzero" />
    <path
       d="M 846.9659,258.63254 H 561.01296 V 154.41939 H 35.02886 V 63.7979 h 811.937 z"
       id="path37"
       inkscape:connector-curvature="0"
       style="fill:#9fc5e8;fill-rule:evenodd" />
    <path
       d="M 846.9659,258.63254 H 561.01296 V 154.41939 H 35.02886 V 63.7979 h 811.937 z"
       id="path39"
       inkscape:connector-curvature="0"
       style="fill-rule:evenodd;stroke:#666666;stroke-width:2;stroke-linecap:butt;stroke-linejoin:round" />
    <path
       d="m 283.51706,92.808395 h 314.9606 v 42.015745 h -314.9606 z"
       id="path41"
       inkscape:connector-curvature="0"
       style="fill:#000000;fill-opacity:0;fill-rule:evenodd" />
    <path
       d="m 358.89813,106.36902 h 2.6875 v 7.23438 q 0,1.71875 0.10937,2.23437 0.17188,0.82813 0.8125,1.32813 0.65625,0.48437 1.78125,0.48437 1.15625,0 1.73438,-0.46875 0.59375,-0.46875 0.70312,-1.14062 0.125,-0.6875 0.125,-2.28125 v -7.39063 h 2.6875 v 7.01563 q 0,2.40625 -0.21875,3.40625 -0.21875,0.98437 -0.8125,1.67187 -0.57812,0.6875 -1.5625,1.09375 -0.98437,0.40625 -2.5625,0.40625 -1.92187,0 -2.90625,-0.4375 -0.98437,-0.45312 -1.5625,-1.15625 -0.57812,-0.70312 -0.75,-1.48437 -0.26562,-1.14063 -0.26562,-3.39063 z m 12.80109,9.01563 2.625,-0.25 q 0.23437,1.3125 0.95312,1.9375 0.73438,0.60937 1.96875,0.60937 1.29688,0 1.95313,-0.54687 0.67187,-0.54688 0.67187,-1.28125 0,-0.48438 -0.28125,-0.8125 -0.28125,-0.32813 -0.96875,-0.57813 -0.48437,-0.15625 -2.17187,-0.57812 -2.15625,-0.54688 -3.03125,-1.32813 -1.23438,-1.09375 -1.23438,-2.6875 0,-1.01562 0.57813,-1.90625 0.57812,-0.89062 1.65625,-1.34375 1.09375,-0.46875 2.64062,-0.46875 2.51563,0 3.78125,1.10938 1.28125,1.09375 1.34375,2.9375 l -2.70312,0.10937 q -0.17188,-1.03125 -0.75,-1.46875 -0.5625,-0.45312 -1.70313,-0.45312 -1.17187,0 -1.84375,0.46875 -0.42187,0.3125 -0.42187,0.84375 0,0.46875 0.40625,0.79687 0.5,0.4375 2.46875,0.90625 1.96875,0.45313 2.90625,0.95313 0.95312,0.5 1.48437,1.35937 0.53125,0.85938 0.53125,2.125 0,1.15625 -0.64062,2.15625 -0.64063,1 -1.8125,1.48438 -1.15625,0.48437 -2.89063,0.48437 -2.53125,0 -3.89062,-1.17187 -1.35938,-1.17188 -1.625,-3.40625 z m 13.13107,4.34375 v -13.35938 h 9.90625 v 2.26563 h -7.21875 v 2.95312 h 6.71875 v 2.25 h -6.71875 v 3.64063 h 7.46875 v 2.25 z m 12.44357,0 v -13.35938 h 5.6875 q 2.14063,0 3.10938,0.35938 0.96875,0.35937 1.54687,1.28125 0.57813,0.92187 0.57813,2.10937 0,1.5 -0.89063,2.48438 -0.875,0.96875 -2.625,1.23437 0.875,0.5 1.4375,1.125 0.57813,0.60938 1.53125,2.15625 l 1.64063,2.60938 h -3.23438 l -1.9375,-2.90625 q -1.04687,-1.5625 -1.4375,-1.96875 -0.375,-0.40625 -0.8125,-0.54688 -0.42187,-0.15625 -1.34375,-0.15625 h -0.54687 v 5.57813 z m 2.70313,-7.70313 h 2 q 1.9375,0 2.42187,-0.15625 0.48438,-0.17187 0.75,-0.57812 0.28125,-0.40625 0.28125,-1 0,-0.67188 -0.35937,-1.07813 -0.35938,-0.42187 -1.01563,-0.53125 -0.32812,-0.0469 -1.96875,-0.0469 h -2.10937 z m 15.95312,7.70313 v -13.35938 h 4.32813 q 2.45312,0 3.20312,0.20313 1.14063,0.29687 1.92188,1.3125 0.78125,1 0.78125,2.59375 0,1.23437 -0.45313,2.07812 -0.45312,0.82813 -1.14062,1.3125 -0.6875,0.46875 -1.39063,0.625 -0.96875,0.20313 -2.79687,0.20313 h -1.76563 v 5.03125 z m 2.6875,-11.09375 v 3.78125 h 1.48438 q 1.59375,0 2.125,-0.20313 0.54687,-0.20312 0.84375,-0.65625 0.3125,-0.45312 0.3125,-1.03125 0,-0.73437 -0.4375,-1.20312 -0.42188,-0.48438 -1.07813,-0.59375 -0.48437,-0.0937 -1.9375,-0.0937 z m 9.75608,11.09375 v -13.35938 h 5.6875 q 2.14062,0 3.10937,0.35938 0.96875,0.35937 1.54688,1.28125 0.57812,0.92187 0.57812,2.10937 0,1.5 -0.89062,2.48438 -0.875,0.96875 -2.625,1.23437 0.875,0.5 1.4375,1.125 0.57812,0.60938 1.53125,2.15625 l 1.64062,2.60938 h -3.23437 l -1.9375,-2.90625 q -1.04688,-1.5625 -1.4375,-1.96875 -0.375,-0.40625 -0.8125,-0.54688 -0.42188,-0.15625 -1.34375,-0.15625 h -0.54688 v 5.57813 z m 2.70312,-7.70313 h 2 q 1.9375,0 2.42188,-0.15625 0.48437,-0.17187 0.75,-0.57812 0.28125,-0.40625 0.28125,-1 0,-0.67188 -0.35938,-1.07813 -0.35937,-0.42187 -1.01562,-0.53125 -0.32813,-0.0469 -1.96875,-0.0469 h -2.10938 z m 10.22293,1.10938 q 0,-2.04688 0.60938,-3.42188 0.45312,-1.03125 1.23437,-1.82812 0.79688,-0.8125 1.73438,-1.20313 1.25,-0.53125 2.875,-0.53125 2.95312,0 4.71875,1.82813 1.78125,1.82812 1.78125,5.09375 0,3.23437 -1.76563,5.0625 -1.75,1.82812 -4.6875,1.82812 -2.98437,0 -4.75,-1.8125 -1.75,-1.82812 -1.75,-5.01562 z m 2.78125,-0.0937 q 0,2.26562 1.04688,3.4375 1.04687,1.17187 2.65625,1.17187 1.60937,0 2.64062,-1.15625 1.04688,-1.17187 1.04688,-3.48437 0,-2.29688 -1.01563,-3.42188 -1,-1.14062 -2.67187,-1.14062 -1.67188,0 -2.6875,1.15625 -1.01563,1.14062 -1.01563,3.4375 z m 18.4802,1.78125 v -2.25 h 5.8125 v 5.3125 q -0.84375,0.82812 -2.45313,1.45312 -1.60937,0.625 -3.25,0.625 -2.09375,0 -3.65625,-0.875 -1.5625,-0.89062 -2.34375,-2.51562 -0.78125,-1.64063 -0.78125,-3.5625 0,-2.09375 0.875,-3.70313 0.875,-1.625 2.5625,-2.5 1.28125,-0.65625 3.20313,-0.65625 2.48437,0 3.875,1.04688 1.40625,1.03125 1.79687,2.875 l -2.67187,0.5 q -0.28125,-0.98438 -1.0625,-1.54688 -0.78125,-0.57812 -1.9375,-0.57812 -1.78125,0 -2.82813,1.125 -1.03125,1.125 -1.03125,3.32812 0,2.375 1.04688,3.5625 1.0625,1.1875 2.78125,1.1875 0.84375,0 1.6875,-0.32812 0.85937,-0.32813 1.46875,-0.8125 v -1.6875 z m 8.30828,4.90625 v -13.35938 h 5.6875 q 2.14063,0 3.10938,0.35938 0.96875,0.35937 1.54687,1.28125 0.57813,0.92187 0.57813,2.10937 0,1.5 -0.89063,2.48438 -0.875,0.96875 -2.625,1.23437 0.875,0.5 1.4375,1.125 0.57813,0.60938 1.53125,2.15625 l 1.64063,2.60938 h -3.23438 l -1.9375,-2.90625 q -1.04687,-1.5625 -1.4375,-1.96875 -0.375,-0.40625 -0.8125,-0.54688 -0.42187,-0.15625 -1.34375,-0.15625 h -0.54687 v 5.57813 z m 2.70313,-7.70313 h 2 q 1.9375,0 2.42187,-0.15625 0.48438,-0.17187 0.75,-0.57812 0.28125,-0.40625 0.28125,-1 0,-0.67188 -0.35937,-1.07813 -0.35938,-0.42187 -1.01563,-0.53125 -0.32812,-0.0469 -1.96875,-0.0469 h -2.10937 z m 22.81671,7.70313 h -2.9375 l -1.17187,-3.03125 h -5.32813 l -1.10937,3.03125 h -2.85938 l 5.20313,-13.35938 h 2.84375 z m -4.96875,-5.28125 -1.84375,-4.95313 -1.79687,4.95313 z m 6.36356,5.28125 v -13.35938 h 4.03125 l 2.42187,9.10938 2.39063,-9.10938 h 4.04687 v 13.35938 h -2.5 v -10.51563 l -2.65625,10.51563 h -2.59375 l -2.64062,-10.51563 v 10.51563 z m 14.88458,-4.34375 2.625,-0.25 q 0.23437,1.3125 0.95312,1.9375 0.73438,0.60937 1.96875,0.60937 1.29688,0 1.95313,-0.54687 0.67187,-0.54688 0.67187,-1.28125 0,-0.48438 -0.28125,-0.8125 -0.28125,-0.32813 -0.96875,-0.57813 -0.48437,-0.15625 -2.17187,-0.57812 -2.15625,-0.54688 -3.03125,-1.32813 -1.23438,-1.09375 -1.23438,-2.6875 0,-1.01562 0.57813,-1.90625 0.57812,-0.89062 1.65625,-1.34375 1.09375,-0.46875 2.64062,-0.46875 2.51563,0 3.78125,1.10938 1.28125,1.09375 1.34375,2.9375 l -2.70312,0.10937 q -0.17188,-1.03125 -0.75,-1.46875 -0.5625,-0.45312 -1.70313,-0.45312 -1.17187,0 -1.84375,0.46875 -0.42187,0.3125 -0.42187,0.84375 0,0.46875 0.40625,0.79687 0.5,0.4375 2.46875,0.90625 1.96875,0.45313 2.90625,0.95313 0.95312,0.5 1.48437,1.35937 0.53125,0.85938 0.53125,2.125 0,1.15625 -0.64062,2.15625 -0.64063,1 -1.8125,1.48438 -1.15625,0.48437 -2.89063,0.48437 -2.53125,0 -3.89062,-1.17187 -1.35938,-1.17188 -1.625,-3.40625 z"
       id="path43"
       inkscape:connector-curvature="0"
       style="fill:#434343;fill-rule:nonzero" />
    <path
       d="m 448.56168,484.22308 h 398.83463 v 89.88977 H 448.56168 Z"
       id="path45"
       inkscape:connector-curvature="0"
       style="fill:#ea9999;fill-rule:evenodd" />
    <path
       d="m 448.56168,484.22308 h 398.83463 v 89.88977 H 448.56168 Z"
       id="path47"
       inkscape:connector-curvature="0"
       style="fill-rule:evenodd;stroke:#666666;stroke-width:2;stroke-linecap:butt;stroke-linejoin:round" />
    <path
       d="m 584.57184,536.08795 v -13.35938 h 9.15625 v 2.26563 h -6.45313 v 3.15625 h 5.5625 v 2.26562 h -5.5625 v 5.67188 z m 10.77093,-4.96875 q 0,-1.28125 0.625,-2.46875 0.625,-1.20313 1.78125,-1.82813 1.15625,-0.625 2.57813,-0.625 2.1875,0 3.59375,1.42188 1.40625,1.42187 1.40625,3.60937 0,2.1875 -1.42188,3.64063 -1.42187,1.4375 -3.5625,1.4375 -1.32812,0 -2.54687,-0.59375 -1.20313,-0.60938 -1.82813,-1.76563 -0.625,-1.17187 -0.625,-2.82812 z m 2.625,0.125 q 0,1.45312 0.67188,2.21875 0.6875,0.75 1.6875,0.75 1,0 1.67187,-0.75 0.6875,-0.76563 0.6875,-2.23438 0,-1.42187 -0.6875,-2.1875 -0.67187,-0.76562 -1.67187,-0.76562 -1,0 -1.6875,0.76562 -0.67188,0.76563 -0.67188,2.20313 z m 15.72413,4.84375 v -1.45313 q -0.53125,0.78125 -1.39063,1.23438 -0.85937,0.4375 -1.8125,0.4375 -0.96875,0 -1.75,-0.42188 -0.76562,-0.4375 -1.125,-1.20312 -0.34375,-0.78125 -0.34375,-2.14063 v -6.125 h 2.5625 v 4.4375 q 0,2.04688 0.14063,2.51563 0.14062,0.45312 0.51562,0.71875 0.375,0.26562 0.95313,0.26562 0.65625,0 1.17187,-0.35937 0.51563,-0.35938 0.70313,-0.89063 0.20312,-0.53125 0.20312,-2.60937 v -4.07813 h 2.54688 v 9.67188 z m 13.83349,0 h -2.5625 v -4.9375 q 0,-1.5625 -0.17187,-2.01563 -0.15625,-0.46875 -0.53125,-0.71875 -0.35938,-0.26562 -0.875,-0.26562 -0.67188,0 -1.20313,0.375 -0.53125,0.35937 -0.73437,0.96875 -0.1875,0.59375 -0.1875,2.21875 v 4.375 h -2.54688 v -9.67188 h 2.375 v 1.42188 q 1.26563,-1.64063 3.1875,-1.64063 0.84375,0 1.54688,0.3125 0.70312,0.29688 1.0625,0.78125 0.35937,0.46875 0.5,1.07813 0.14062,0.59375 0.14062,1.70312 z m 11.47412,0 h -2.39062 v -1.42188 q -0.59375,0.82813 -1.40625,1.23438 -0.79688,0.40625 -1.60938,0.40625 -1.67187,0 -2.85937,-1.34375 -1.1875,-1.34375 -1.1875,-3.75 0,-2.45313 1.15625,-3.73438 1.15625,-1.28125 2.92187,-1.28125 1.625,0 2.8125,1.34375 v -4.8125 h 2.5625 z m -6.84375,-5.04688 q 0,1.54688 0.4375,2.23438 0.60938,1.01562 1.71875,1.01562 0.89063,0 1.5,-0.75 0.625,-0.76562 0.625,-2.25 0,-1.67187 -0.60937,-2.40625 -0.59375,-0.73437 -1.53125,-0.73437 -0.90625,0 -1.53125,0.73437 -0.60938,0.71875 -0.60938,2.15625 z m 11.81781,5.04688 h -2.5625 v -9.67188 h 2.375 v 1.375 q 0.60938,-0.98437 1.09375,-1.28125 0.48438,-0.3125 1.10938,-0.3125 0.875,0 1.6875,0.48438 l -0.79688,2.23437 q -0.64062,-0.42187 -1.20312,-0.42187 -0.53125,0 -0.90625,0.29687 -0.375,0.29688 -0.59375,1.07813 -0.20313,0.76562 -0.20313,3.23437 z m 3.58844,-9.67188 h 2.71875 l 2.32813,6.85938 2.25,-6.85938 h 2.65625 l -3.42188,9.3125 -0.60937,1.6875 q -0.32813,0.84375 -0.64063,1.28125 -0.3125,0.45313 -0.70312,0.71875 -0.39063,0.28125 -0.96875,0.4375 -0.57813,0.15625 -1.3125,0.15625 -0.73438,0 -1.45313,-0.15625 l -0.21875,-2 q 0.59375,0.125 1.07813,0.125 0.89062,0 1.3125,-0.53125 0.4375,-0.51562 0.67187,-1.32812 z m 16.7934,9.67188 v -13.35938 h 4.32812 q 2.45313,0 3.20313,0.20313 1.14062,0.29687 1.92187,1.3125 0.78125,1 0.78125,2.59375 0,1.23437 -0.45312,2.07812 -0.45313,0.82813 -1.14063,1.3125 -0.6875,0.46875 -1.39062,0.625 -0.96875,0.20313 -2.79688,0.20313 h -1.76562 v 5.03125 z m 2.6875,-11.09375 v 3.78125 h 1.48437 q 1.59375,0 2.125,-0.20313 0.54688,-0.20312 0.84375,-0.65625 0.3125,-0.45312 0.3125,-1.03125 0,-0.73437 -0.4375,-1.20312 -0.42187,-0.48438 -1.07812,-0.59375 -0.48438,-0.0937 -1.9375,-0.0937 z m 9.74042,-2.26563 h 4.9375 q 1.65625,0 2.53125,0.26563 1.1875,0.34375 2.01562,1.23437 0.84375,0.875 1.28125,2.15625 0.4375,1.28125 0.4375,3.15625 0,1.64063 -0.40625,2.84375 -0.5,1.45313 -1.4375,2.35938 -0.70312,0.67187 -1.89062,1.0625 -0.89063,0.28125 -2.39063,0.28125 h -5.07812 z m 2.70312,2.26563 v 8.84375 h 2.01563 q 1.125,0 1.625,-0.125 0.65625,-0.17188 1.07812,-0.5625 0.4375,-0.39063 0.70313,-1.28125 0.28125,-0.90625 0.28125,-2.45313 0,-1.54687 -0.28125,-2.375 -0.26563,-0.82812 -0.76563,-1.28125 -0.48437,-0.46875 -1.23437,-0.64062 -0.5625,-0.125 -2.21875,-0.125 z m 10.81671,11.09375 v -13.35938 h 2.70313 v 5.9375 l 5.4375,-5.9375 h 3.625 l -5.01563,5.20313 5.29688,8.15625 h -3.48438 l -3.67187,-6.26563 -2.1875,2.23438 v 4.03125 z m 12.51984,-2.76563 2.5625,-0.39062 q 0.17187,0.75 0.67187,1.14062 0.5,0.39063 1.40625,0.39063 0.98438,0 1.48438,-0.375 0.34375,-0.25 0.34375,-0.67188 0,-0.29687 -0.1875,-0.48437 -0.1875,-0.1875 -0.85938,-0.34375 -3.09375,-0.6875 -3.92187,-1.25 -1.14063,-0.78125 -1.14063,-2.17188 0,-1.26562 0.98438,-2.10937 1,-0.85938 3.07812,-0.85938 1.98438,0 2.95313,0.65625 0.96875,0.64063 1.32812,1.90625 l -2.40625,0.4375 q -0.15625,-0.5625 -0.59375,-0.85937 -0.42187,-0.29688 -1.23437,-0.29688 -1,0 -1.4375,0.28125 -0.29688,0.20313 -0.29688,0.51563 0,0.26562 0.25,0.46875 0.34375,0.25 2.39063,0.71875 2.04687,0.45312 2.85937,1.14062 0.79688,0.67188 0.79688,1.89063 0,1.34375 -1.10938,2.29687 -1.10937,0.95313 -3.28125,0.95313 -1.98437,0 -3.14062,-0.79688 -1.14063,-0.8125 -1.5,-2.1875 z"
       id="path49"
       inkscape:connector-curvature="0"
       style="fill:#434343;fill-rule:nonzero" />
    <path
       d="m 166.0035,168.74278 h 118.3307 v 89.88976 H 166.0035 Z"
       id="path51"
       inkscape:connector-curvature="0"
       style="fill:#ffe599;fill-rule:evenodd" />
    <path
       d="m 166.0035,168.74278 h 118.3307 v 89.88976 H 166.0035 Z"
       id="path53"
       inkscape:connector-curvature="0"
       style="fill-rule:evenodd;stroke:#666666;stroke-width:2;stroke-linecap:butt;stroke-linejoin:round" />
    <path
       d="m 212.88248,201.26392 2.625,-0.25 q 0.23437,1.3125 0.95312,1.9375 0.73438,0.60938 1.96875,0.60938 1.29688,0 1.95313,-0.54688 0.67187,-0.54687 0.67187,-1.28125 0,-0.48437 -0.28125,-0.8125 -0.28125,-0.32812 -0.96875,-0.57812 -0.48437,-0.15625 -2.17187,-0.57813 -2.15625,-0.54687 -3.03125,-1.32812 -1.23438,-1.09375 -1.23438,-2.6875 0,-1.01563 0.57813,-1.90625 0.57812,-0.89063 1.65625,-1.34375 1.09375,-0.46875 2.64062,-0.46875 2.51563,0 3.78125,1.10937 1.28125,1.09375 1.34375,2.9375 l -2.70312,0.10938 q -0.17188,-1.03125 -0.75,-1.46875 -0.5625,-0.45313 -1.70313,-0.45313 -1.17187,0 -1.84375,0.46875 -0.42187,0.3125 -0.42187,0.84375 0,0.46875 0.40625,0.79688 0.5,0.4375 2.46875,0.90625 1.96875,0.45312 2.90625,0.95312 0.95312,0.5 1.48437,1.35938 0.53125,0.85937 0.53125,2.125 0,1.15625 -0.64062,2.15625 -0.64063,1 -1.8125,1.48437 -1.15625,0.48438 -2.89063,0.48438 -2.53125,0 -3.89062,-1.17188 -1.35938,-1.17187 -1.625,-3.40625 z m 21.67793,-0.5625 2.60938,0.82813 q -0.59375,2.1875 -2,3.25 -1.39063,1.0625 -3.54688,1.0625 -2.65623,0 -4.37498,-1.8125 -1.70313,-1.82813 -1.70313,-4.98438 0,-3.32812 1.71875,-5.17187 1.71875,-1.84375 4.51561,-1.84375 2.45313,0 3.98438,1.4375 0.92187,0.85937 1.375,2.46875 l -2.67188,0.64062 q -0.23437,-1.04687 -0.98437,-1.64062 -0.75,-0.60938 -1.82813,-0.60938 -1.48437,0 -2.42186,1.07813 -0.92187,1.0625 -0.92187,3.4375 0,2.53125 0.90625,3.60937 0.92186,1.07813 2.37498,1.07813 1.07813,0 1.84375,-0.67188 0.78125,-0.6875 1.125,-2.15625 z"
       id="path55"
       inkscape:connector-curvature="0"
       style="fill:#434343;fill-rule:nonzero" />
    <path
       d="M 200.11266,231.60767 V 218.2483 h 9.15625 v 2.26562 h -6.45313 v 3.15625 h 5.5625 v 2.26563 h -5.5625 v 5.67187 z m 11.36473,0 V 218.2483 h 2.5625 v 13.35937 z m 4.58955,-4.96875 q 0,-1.28125 0.625,-2.46875 0.625,-1.20312 1.78125,-1.82812 1.15625,-0.625 2.57813,-0.625 2.1875,0 3.59375,1.42187 1.40625,1.42188 1.40625,3.60938 0,2.1875 -1.42188,3.64062 -1.42187,1.4375 -3.5625,1.4375 -1.32812,0 -2.54687,-0.59375 -1.20313,-0.60937 -1.82813,-1.76562 -0.625,-1.17188 -0.625,-2.82813 z m 2.625,0.125 q 0,1.45313 0.67188,2.21875 0.6875,0.75 1.6875,0.75 1,0 1.67187,-0.75 0.6875,-0.76562 0.6875,-2.23437 0,-1.42188 -0.6875,-2.1875 -0.67187,-0.76563 -1.67187,-0.76563 -1,0 -1.6875,0.76563 -0.67188,0.76562 -0.67188,2.20312 z m 11.16161,4.84375 -3.0625,-9.67187 h 2.48438 l 1.81248,6.34375 1.67188,-6.34375 h 2.46875 l 1.60937,6.34375 1.85938,-6.34375 h 2.51562 l -3.10937,9.67187 h -2.45313 l -1.67187,-6.21875 -1.64063,6.21875 z m 11.80829,-2.76562 2.5625,-0.39063 q 0.17187,0.75 0.67187,1.14063 0.5,0.39062 1.40625,0.39062 0.98438,0 1.48438,-0.375 0.34375,-0.25 0.34375,-0.67187 0,-0.29688 -0.1875,-0.48438 -0.1875,-0.1875 -0.85938,-0.34375 -3.09375,-0.6875 -3.92187,-1.25 -1.14063,-0.78125 -1.14063,-2.17187 0,-1.26563 0.98438,-2.10938 1,-0.85937 3.07812,-0.85937 1.98438,0 2.95313,0.65625 0.96875,0.64062 1.32812,1.90625 l -2.40625,0.4375 q -0.15625,-0.5625 -0.59375,-0.85938 -0.42187,-0.29687 -1.23437,-0.29687 -1,0 -1.4375,0.28125 -0.29688,0.20312 -0.29688,0.51562 0,0.26563 0.25,0.46875 0.34375,0.25 2.39063,0.71875 2.04687,0.45313 2.85937,1.14063 0.79688,0.67187 0.79688,1.89062 0,1.34375 -1.10938,2.29688 -1.10937,0.95312 -3.28125,0.95312 -1.98437,0 -3.14062,-0.79687 -1.14063,-0.8125 -1.5,-2.1875 z"
       id="path57"
       inkscape:connector-curvature="0"
       style="fill:#434343;fill-rule:nonzero" />
    <path
       d="m 297.41907,168.74278 h 118.33072 v 89.88976 H 297.41907 Z"
       id="path59"
       inkscape:connector-curvature="0"
       style="fill:#ffe599;fill-rule:evenodd" />
    <path
       d="m 297.41907,168.74278 h 118.33072 v 89.88976 H 297.41907 Z"
       id="path61"
       inkscape:connector-curvature="0"
       style="fill-rule:evenodd;stroke:#666666;stroke-width:2;stroke-linecap:butt;stroke-linejoin:round" />
    <path
       d="m 344.29803,201.26392 2.625,-0.25 q 0.23437,1.3125 0.95312,1.9375 0.73438,0.60938 1.96875,0.60938 1.29688,0 1.95313,-0.54688 0.67187,-0.54687 0.67187,-1.28125 0,-0.48437 -0.28125,-0.8125 -0.28125,-0.32812 -0.96875,-0.57812 -0.48437,-0.15625 -2.17187,-0.57813 -2.15625,-0.54687 -3.03125,-1.32812 -1.23438,-1.09375 -1.23438,-2.6875 0,-1.01563 0.57813,-1.90625 0.57812,-0.89063 1.65625,-1.34375 1.09375,-0.46875 2.64062,-0.46875 2.51563,0 3.78125,1.10937 1.28125,1.09375 1.34375,2.9375 l -2.70312,0.10938 q -0.17188,-1.03125 -0.75,-1.46875 -0.5625,-0.45313 -1.70313,-0.45313 -1.17187,0 -1.84375,0.46875 -0.42187,0.3125 -0.42187,0.84375 0,0.46875 0.40625,0.79688 0.5,0.4375 2.46875,0.90625 1.96875,0.45312 2.90625,0.95312 0.95312,0.5 1.48437,1.35938 0.53125,0.85937 0.53125,2.125 0,1.15625 -0.64062,2.15625 -0.64063,1 -1.8125,1.48437 -1.15625,0.48438 -2.89063,0.48438 -2.53125,0 -3.89062,-1.17188 -1.35938,-1.17187 -1.625,-3.40625 z m 21.67795,-0.5625 2.60937,0.82813 q -0.59375,2.1875 -2,3.25 -1.39062,1.0625 -3.54687,1.0625 -2.65625,0 -4.375,-1.8125 -1.70313,-1.82813 -1.70313,-4.98438 0,-3.32812 1.71875,-5.17187 1.71875,-1.84375 4.51563,-1.84375 2.45312,0 3.98437,1.4375 0.92188,0.85937 1.375,2.46875 l -2.67187,0.64062 q -0.23438,-1.04687 -0.98438,-1.64062 -0.75,-0.60938 -1.82812,-0.60938 -1.48438,0 -2.42188,1.07813 -0.92187,1.0625 -0.92187,3.4375 0,2.53125 0.90625,3.60937 0.92187,1.07813 2.375,1.07813 1.07812,0 1.84375,-0.67188 0.78125,-0.6875 1.125,-2.15625 z"
       id="path63"
       inkscape:connector-curvature="0"
       style="fill:#434343;fill-rule:nonzero" />
    <path
       d="M 333.06122,231.60767 V 218.2483 h 4.32812 q 2.45313,0 3.20313,0.20312 1.14062,0.29688 1.92187,1.3125 0.78125,1 0.78125,2.59375 0,1.23438 -0.45312,2.07813 -0.45313,0.82812 -1.14063,1.3125 -0.6875,0.46875 -1.39062,0.625 -0.96875,0.20312 -2.79688,0.20312 h -1.76562 v 5.03125 z m 2.6875,-11.09375 v 3.78125 h 1.48437 q 1.59375,0 2.125,-0.20312 0.54688,-0.20313 0.84375,-0.65625 0.3125,-0.45313 0.3125,-1.03125 0,-0.73438 -0.4375,-1.20313 -0.42187,-0.48437 -1.07812,-0.59375 -0.48438,-0.0937 -1.9375,-0.0937 z m 9.74045,-2.26562 h 4.9375 q 1.65625,0 2.53125,0.26562 1.1875,0.34375 2.01562,1.23438 0.84375,0.875 1.28125,2.15625 0.4375,1.28125 0.4375,3.15625 0,1.64062 -0.40625,2.84375 -0.5,1.45312 -1.4375,2.35937 -0.70312,0.67188 -1.89062,1.0625 -0.89063,0.28125 -2.39063,0.28125 h -5.07812 z m 2.70312,2.26562 v 8.84375 h 2.01563 q 1.125,0 1.625,-0.125 0.65625,-0.17187 1.07812,-0.5625 0.4375,-0.39062 0.70313,-1.28125 0.28125,-0.90625 0.28125,-2.45312 0,-1.54688 -0.28125,-2.375 -0.26563,-0.82813 -0.76563,-1.28125 -0.48437,-0.46875 -1.23437,-0.64063 -0.5625,-0.125 -2.21875,-0.125 z m 10.81668,11.09375 V 218.2483 h 2.70313 v 5.9375 l 5.4375,-5.9375 h 3.625 l -5.01563,5.20312 5.29688,8.15625 h -3.48438 l -3.67187,-6.26562 -2.1875,2.23437 v 4.03125 z m 12.51984,-2.76562 2.5625,-0.39063 q 0.17188,0.75 0.67188,1.14063 0.5,0.39062 1.40625,0.39062 0.98437,0 1.48437,-0.375 0.34375,-0.25 0.34375,-0.67187 0,-0.29688 -0.1875,-0.48438 -0.1875,-0.1875 -0.85937,-0.34375 -3.09375,-0.6875 -3.92188,-1.25 -1.14062,-0.78125 -1.14062,-2.17187 0,-1.26563 0.98437,-2.10938 1,-0.85937 3.07813,-0.85937 1.98437,0 2.95312,0.65625 0.96875,0.64062 1.32813,1.90625 l -2.40625,0.4375 q -0.15625,-0.5625 -0.59375,-0.85938 -0.42188,-0.29687 -1.23438,-0.29687 -1,0 -1.4375,0.28125 -0.29687,0.20312 -0.29687,0.51562 0,0.26563 0.25,0.46875 0.34375,0.25 2.39062,0.71875 2.04688,0.45313 2.85938,1.14063 0.79687,0.67187 0.79687,1.89062 0,1.34375 -1.10937,2.29688 -1.10938,0.95312 -3.28125,0.95312 -1.98438,0 -3.14063,-0.79687 -1.14062,-0.8125 -1.5,-2.1875 z"
       id="path65"
       inkscape:connector-curvature="0"
       style="fill:#434343;fill-rule:nonzero" />
    <path
       d="m 428.83466,168.74278 h 118.33069 v 89.88976 H 428.83466 Z"
       id="path67"
       inkscape:connector-curvature="0"
       style="fill:#ffe599;fill-rule:evenodd" />
    <path
       d="m 428.83466,168.74278 h 118.33069 v 89.88976 H 428.83466 Z"
       id="path69"
       inkscape:connector-curvature="0"
       style="fill-rule:evenodd;stroke:#666666;stroke-width:2;stroke-linecap:butt;stroke-linejoin:round" />
    <path
       d="m 475.71362,201.26392 2.625,-0.25 q 0.23437,1.3125 0.95312,1.9375 0.73438,0.60938 1.96875,0.60938 1.29688,0 1.95313,-0.54688 0.67187,-0.54687 0.67187,-1.28125 0,-0.48437 -0.28125,-0.8125 -0.28125,-0.32812 -0.96875,-0.57812 -0.48437,-0.15625 -2.17187,-0.57813 -2.15625,-0.54687 -3.03125,-1.32812 -1.23438,-1.09375 -1.23438,-2.6875 0,-1.01563 0.57813,-1.90625 0.57812,-0.89063 1.65625,-1.34375 1.09375,-0.46875 2.64062,-0.46875 2.51563,0 3.78125,1.10937 1.28125,1.09375 1.34375,2.9375 l -2.70312,0.10938 q -0.17188,-1.03125 -0.75,-1.46875 -0.5625,-0.45313 -1.70313,-0.45313 -1.17187,0 -1.84375,0.46875 -0.42187,0.3125 -0.42187,0.84375 0,0.46875 0.40625,0.79688 0.5,0.4375 2.46875,0.90625 1.96875,0.45312 2.90625,0.95312 0.95312,0.5 1.48437,1.35938 0.53125,0.85937 0.53125,2.125 0,1.15625 -0.64062,2.15625 -0.64063,1 -1.8125,1.48437 -1.15625,0.48438 -2.89063,0.48438 -2.53125,0 -3.89062,-1.17188 -1.35938,-1.17187 -1.625,-3.40625 z m 21.67795,-0.5625 2.60937,0.82813 q -0.59375,2.1875 -2,3.25 -1.39062,1.0625 -3.54687,1.0625 -2.65625,0 -4.375,-1.8125 -1.70313,-1.82813 -1.70313,-4.98438 0,-3.32812 1.71875,-5.17187 1.71875,-1.84375 4.51563,-1.84375 2.45312,0 3.98437,1.4375 0.92188,0.85937 1.375,2.46875 l -2.67187,0.64062 q -0.23438,-1.04687 -0.98438,-1.64062 -0.75,-0.60938 -1.82812,-0.60938 -1.48438,0 -2.42188,1.07813 -0.92187,1.0625 -0.92187,3.4375 0,2.53125 0.90625,3.60937 0.92187,1.07813 2.375,1.07813 1.07812,0 1.84375,-0.67188 0.78125,-0.6875 1.125,-2.15625 z"
       id="path71"
       inkscape:connector-curvature="0"
       style="fill:#434343;fill-rule:nonzero" />
    <path
       d="m 468.17862,231.60767 v -11.09375 h -3.95312 v -2.26562 h 10.60937 v 2.26562 h -3.95312 v 11.09375 z m 6.40118,-4.96875 q 0,-1.28125 0.625,-2.46875 0.625,-1.20312 1.78125,-1.82812 1.15625,-0.625 2.57813,-0.625 2.1875,0 3.59375,1.42187 1.40625,1.42188 1.40625,3.60938 0,2.1875 -1.42188,3.64062 -1.42187,1.4375 -3.5625,1.4375 -1.32812,0 -2.54687,-0.59375 -1.20313,-0.60937 -1.82813,-1.76562 -0.625,-1.17188 -0.625,-2.82813 z m 2.625,0.125 q 0,1.45313 0.67188,2.21875 0.6875,0.75 1.6875,0.75 1,0 1.67187,-0.75 0.6875,-0.76562 0.6875,-2.23437 0,-1.42188 -0.6875,-2.1875 -0.67187,-0.76563 -1.67187,-0.76563 -1,0 -1.6875,0.76563 -0.67188,0.76562 -0.67188,2.20312 z m 8.77097,-0.125 q 0,-1.28125 0.625,-2.46875 0.625,-1.20312 1.78125,-1.82812 1.15625,-0.625 2.57812,-0.625 2.1875,0 3.59375,1.42187 1.40625,1.42188 1.40625,3.60938 0,2.1875 -1.42187,3.64062 -1.42188,1.4375 -3.5625,1.4375 -1.32813,0 -2.54688,-0.59375 -1.20312,-0.60937 -1.82812,-1.76562 -0.625,-1.17188 -0.625,-2.82813 z m 2.625,0.125 q 0,1.45313 0.67187,2.21875 0.6875,0.75 1.6875,0.75 1,0 1.67188,-0.75 0.6875,-0.76562 0.6875,-2.23437 0,-1.42188 -0.6875,-2.1875 -0.67188,-0.76563 -1.67188,-0.76563 -1,0 -1.6875,0.76563 -0.67187,0.76562 -0.67187,2.20312 z m 9.36475,4.84375 V 218.2483 h 2.5625 v 13.35937 z m 4.27703,-2.76562 2.5625,-0.39063 q 0.17188,0.75 0.67188,1.14063 0.5,0.39062 1.40625,0.39062 0.98437,0 1.48437,-0.375 0.34375,-0.25 0.34375,-0.67187 0,-0.29688 -0.1875,-0.48438 -0.1875,-0.1875 -0.85937,-0.34375 -3.09375,-0.6875 -3.92188,-1.25 -1.14062,-0.78125 -1.14062,-2.17187 0,-1.26563 0.98437,-2.10938 1,-0.85937 3.07813,-0.85937 1.98437,0 2.95312,0.65625 0.96875,0.64062 1.32813,1.90625 l -2.40625,0.4375 q -0.15625,-0.5625 -0.59375,-0.85938 -0.42188,-0.29687 -1.23438,-0.29687 -1,0 -1.4375,0.28125 -0.29687,0.20312 -0.29687,0.51562 0,0.26563 0.25,0.46875 0.34375,0.25 2.39062,0.71875 2.04688,0.45313 2.85938,1.14063 0.79687,0.67187 0.79687,1.89062 0,1.34375 -1.10937,2.29688 -1.10938,0.95312 -3.28125,0.95312 -1.98438,0 -3.14063,-0.79687 -1.14062,-0.8125 -1.5,-2.1875 z"
       id="path73"
       inkscape:connector-curvature="0"
       style="fill:#434343;fill-rule:nonzero" />
  </g>
</svg>
